<svg width="16" height="15" viewBox="0 0 16 15" fill="none" xmlns="http://www.w3.org/2000/svg">
<path fill-rule="evenodd" clip-rule="evenodd" d="M12.2665 3.30014V3.30014C11.9842 3.30014 11.7284 3.13743 11.6081 2.88316C11.3909 2.42304 11.1147 1.83503 10.9512 1.51491C10.7098 1.0389 10.3186 0.76192 9.7767 0.758136C9.76762 0.757379 6.23197 0.757379 6.22289 0.758136C5.68104 0.76192 5.29054 1.0389 5.04838 1.51491C4.88567 1.83503 4.60945 2.42304 4.39225 2.88316C4.27193 3.13743 4.01538 3.30014 3.73386 3.30014V3.30014C2.22334 3.30014 0.999634 4.52385 0.999634 6.03361V10.5258C0.999634 12.0348 2.22334 13.2593 3.73386 13.2593H12.2665C13.7763 13.2593 15 12.0348 15 10.5258V6.03361C15 4.52385 13.7763 3.30014 12.2665 3.30014Z" stroke="#28519E" stroke-width="1.5" stroke-linecap="round" stroke-linejoin="round"/>
<path fill-rule="evenodd" clip-rule="evenodd" d="M5.59444 8.01084C5.59368 9.33747 6.67662 10.4227 8.00098 10.4219C9.32307 10.4204 10.403 9.33974 10.4053 8.01614C10.4075 6.68724 9.32836 5.6043 8.00249 5.60278C6.66906 5.60127 5.58384 6.70238 5.59444 8.01084Z" stroke="#28519E" stroke-width="1.5" stroke-linecap="round" stroke-linejoin="round"/>
<path d="M11.71 6.2403C11.6369 6.2328 11.5646 6.21372 11.4838 6.18116C11.3938 6.1412 11.3159 6.09035 11.2406 6.01385C11.1053 5.86994 11.027 5.68175 11.027 5.48761C11.027 5.38449 11.0481 5.28228 11.0892 5.18969C11.1305 5.09588 11.1794 5.01675 11.2678 4.93068C11.335 4.87213 11.4039 4.82501 11.498 4.78354C11.7772 4.67292 12.1092 4.73902 12.3168 4.94646C12.379 5.00774 12.4314 5.08169 12.4604 5.14405L12.4776 5.18827C12.5194 5.28228 12.5405 5.38449 12.5405 5.48761C12.5405 5.68568 12.4632 5.86887 12.3197 6.02135C12.1956 6.14625 12.0326 6.22305 11.8588 6.2403L11.7838 6.24402L11.71 6.2403Z" fill="#28519E"/>
</svg>
