<svg width="328" height="250" viewBox="0 0 328 250" fill="none" xmlns="http://www.w3.org/2000/svg">
<path d="M47.3168 146.534C58.7256 146.534 67.9743 137.275 67.9743 125.853C67.9743 114.431 58.7256 105.172 47.3168 105.172C35.9081 105.172 26.6594 114.431 26.6594 125.853C26.6594 137.275 35.9081 146.534 47.3168 146.534Z" fill="#FFB81C"/>
<path d="M89.621 242.668H89.6C88.8726 242.667 88.1753 242.378 87.6609 241.863C87.1466 241.348 86.8573 240.649 86.8564 239.921V78.6743C86.8573 77.9461 87.1466 77.248 87.6609 76.733C88.1753 76.2181 88.8726 75.9285 89.6 75.9276H225.164C225.892 75.9285 226.589 76.2181 227.103 76.733C227.618 77.248 227.907 77.9461 227.908 78.6743V204.053C227.907 204.777 227.621 205.472 227.111 205.986C226.601 206.501 225.909 206.793 225.186 206.799L89.621 242.668Z" fill="#DCD7D7"/>
<path d="M95.6553 48.7314L95.8942 49.2032C96.0001 49.4067 96.0554 49.6329 96.0556 49.8624V69.6264H107.353V49.8624C107.353 49.6329 107.408 49.4067 107.514 49.2032L107.753 48.7314H95.6553ZM106.707 49.8624V68.9801H96.7011V49.8624C96.7013 49.699 96.6818 49.5363 96.643 49.3777H106.765C106.726 49.5363 106.707 49.699 106.707 49.8624ZM109.857 48.7314L110.096 49.2032C110.202 49.4067 110.257 49.6329 110.257 49.8624V69.6264H121.554V49.8624C121.555 49.6329 121.61 49.4067 121.716 49.2032L121.955 48.7314H109.857ZM120.909 49.8624V68.9801H110.903V49.8624C110.903 49.699 110.884 49.5363 110.845 49.3777H120.967C120.928 49.5363 120.909 49.699 120.909 49.8624ZM124.059 48.7314L124.298 49.2032C124.404 49.4067 124.459 49.6329 124.459 49.8624V69.6264H135.756V49.8624C135.757 49.6329 135.812 49.4067 135.918 49.2032L136.157 48.7314H124.059ZM135.111 49.8624V68.9801H125.105V49.8624C125.105 49.699 125.086 49.5363 125.047 49.3777H135.169C135.13 49.5363 135.111 49.699 135.111 49.8624ZM138.261 48.7314L138.5 49.2032C138.606 49.4067 138.661 49.6329 138.661 49.8624V69.6264H149.958V49.8624C149.959 49.6329 150.014 49.4067 150.12 49.2032L150.359 48.7314H138.261ZM149.313 49.8624V68.9801H139.307V49.8624C139.307 49.699 139.288 49.5363 139.249 49.3777H149.371C149.332 49.5363 149.313 49.699 149.313 49.8624ZM152.463 48.7314L152.702 49.2032C152.808 49.4067 152.863 49.6329 152.863 49.8624V69.6264H164.16V49.8624C164.161 49.6329 164.216 49.4067 164.322 49.2032L164.561 48.7314H152.463ZM163.515 49.8624V68.9801H153.509V49.8624C153.509 49.699 153.49 49.5363 153.451 49.3777H163.573C163.534 49.5363 163.515 49.699 163.515 49.8624ZM166.665 48.7314L166.904 49.2032C167.01 49.4067 167.065 49.6329 167.065 49.8624V69.6264H178.362V49.8624C178.363 49.6329 178.418 49.4067 178.524 49.2032L178.763 48.7314H166.665ZM177.717 49.8624V68.9801H167.711V49.8624C167.711 49.699 167.692 49.5363 167.653 49.3777H177.775C177.736 49.5363 177.717 49.699 177.717 49.8624ZM180.867 48.7314L181.106 49.2032C181.212 49.4067 181.267 49.6329 181.267 49.8624V69.6264H192.564V49.8624C192.565 49.6329 192.62 49.4067 192.726 49.2032L192.965 48.7314H180.867ZM191.919 49.8624V68.9801H181.913V49.8624C181.913 49.699 181.894 49.5363 181.855 49.3777H191.977C191.938 49.5363 191.919 49.699 191.919 49.8624ZM195.069 48.7314L195.308 49.2032C195.414 49.4067 195.469 49.6329 195.469 49.8624V69.6264H206.766V49.8624C206.767 49.6329 206.822 49.4067 206.928 49.2032L207.167 48.7314H195.069ZM206.121 49.8624V68.9801H196.115V49.8624C196.115 49.699 196.096 49.5363 196.057 49.3777H206.179C206.14 49.5363 206.121 49.699 206.121 49.8624ZM209.271 48.7314L209.51 49.2032C209.616 49.4067 209.671 49.6329 209.671 49.8624V69.6264H220.968V49.8624C220.969 49.6329 221.024 49.4067 221.13 49.2032L221.369 48.7314H209.271ZM220.323 49.8624V68.9801H210.317V49.8624C210.317 49.699 210.298 49.5363 210.259 49.3777H220.381C220.342 49.5363 220.323 49.699 220.323 49.8624ZM209.271 48.7314L209.51 49.2032C209.616 49.4067 209.671 49.6329 209.671 49.8624V69.6264H220.968V49.8624C220.969 49.6329 221.024 49.4067 221.13 49.2032L221.369 48.7314H209.271ZM220.323 49.8624V68.9801H210.317V49.8624C210.317 49.699 210.298 49.5363 210.259 49.3777H220.381C220.342 49.5363 220.323 49.699 220.323 49.8624ZM195.069 48.7314L195.308 49.2032C195.414 49.4067 195.469 49.6329 195.469 49.8624V69.6264H206.766V49.8624C206.767 49.6329 206.822 49.4067 206.928 49.2032L207.167 48.7314H195.069ZM206.121 49.8624V68.9801H196.115V49.8624C196.115 49.699 196.096 49.5363 196.057 49.3777H206.179C206.14 49.5363 206.121 49.699 206.121 49.8624ZM180.867 48.7314L181.106 49.2032C181.212 49.4067 181.267 49.6329 181.267 49.8624V69.6264H192.564V49.8624C192.565 49.6329 192.62 49.4067 192.726 49.2032L192.965 48.7314H180.867ZM191.919 49.8624V68.9801H181.913V49.8624C181.913 49.699 181.894 49.5363 181.855 49.3777H191.977C191.938 49.5363 191.919 49.699 191.919 49.8624ZM166.665 48.7314L166.904 49.2032C167.01 49.4067 167.065 49.6329 167.065 49.8624V69.6264H178.362V49.8624C178.363 49.6329 178.418 49.4067 178.524 49.2032L178.763 48.7314H166.665ZM177.717 49.8624V68.9801H167.711V49.8624C167.711 49.699 167.692 49.5363 167.653 49.3777H177.775C177.736 49.5363 177.717 49.699 177.717 49.8624ZM152.463 48.7314L152.702 49.2032C152.808 49.4067 152.863 49.6329 152.863 49.8624V69.6264H164.16V49.8624C164.161 49.6329 164.216 49.4067 164.322 49.2032L164.561 48.7314H152.463ZM163.515 49.8624V68.9801H153.509V49.8624C153.509 49.699 153.49 49.5363 153.451 49.3777H163.573C163.534 49.5363 163.515 49.699 163.515 49.8624ZM138.261 48.7314L138.5 49.2032C138.606 49.4067 138.661 49.6329 138.661 49.8624V69.6264H149.958V49.8624C149.959 49.6329 150.014 49.4067 150.12 49.2032L150.359 48.7314H138.261ZM149.313 49.8624V68.9801H139.307V49.8624C139.307 49.699 139.288 49.5363 139.249 49.3777H149.371C149.332 49.5363 149.313 49.699 149.313 49.8624ZM124.059 48.7314L124.298 49.2032C124.404 49.4067 124.459 49.6329 124.459 49.8624V69.6264H135.756V49.8624C135.757 49.6329 135.812 49.4067 135.918 49.2032L136.157 48.7314H124.059ZM135.111 49.8624V68.9801H125.105V49.8624C125.105 49.699 125.086 49.5363 125.047 49.3777H135.169C135.13 49.5363 135.111 49.699 135.111 49.8624ZM109.857 48.7314L110.096 49.2032C110.202 49.4067 110.257 49.6329 110.257 49.8624V69.6264H121.554V49.8624C121.555 49.6329 121.61 49.4067 121.716 49.2032L121.955 48.7314H109.857ZM120.909 49.8624V68.9801H110.903V49.8624C110.903 49.699 110.884 49.5363 110.845 49.3777H120.967C120.928 49.5363 120.909 49.699 120.909 49.8624ZM95.6553 48.7314L95.8942 49.2032C96.0001 49.4067 96.0554 49.6329 96.0556 49.8624V69.6264H107.353V49.8624C107.353 49.6329 107.408 49.4067 107.514 49.2032L107.753 48.7314H95.6553ZM106.707 49.8624V68.9801H96.7011V49.8624C96.7013 49.699 96.6818 49.5363 96.643 49.3777H106.765C106.726 49.5363 106.707 49.699 106.707 49.8624ZM209.271 48.7314L209.51 49.2032C209.616 49.4067 209.671 49.6329 209.671 49.8624V69.6264H220.968V49.8624C220.969 49.6329 221.024 49.4067 221.13 49.2032L221.369 48.7314H209.271ZM220.323 49.8624V68.9801H210.317V49.8624C210.317 49.699 210.298 49.5363 210.259 49.3777H220.381C220.342 49.5363 220.323 49.699 220.323 49.8624ZM195.069 48.7314L195.308 49.2032C195.414 49.4067 195.469 49.6329 195.469 49.8624V69.6264H206.766V49.8624C206.767 49.6329 206.822 49.4067 206.928 49.2032L207.167 48.7314H195.069ZM206.121 49.8624V68.9801H196.115V49.8624C196.115 49.699 196.096 49.5363 196.057 49.3777H206.179C206.14 49.5363 206.121 49.699 206.121 49.8624ZM180.867 48.7314L181.106 49.2032C181.212 49.4067 181.267 49.6329 181.267 49.8624V69.6264H192.564V49.8624C192.565 49.6329 192.62 49.4067 192.726 49.2032L192.965 48.7314H180.867ZM191.919 49.8624V68.9801H181.913V49.8624C181.913 49.699 181.894 49.5363 181.855 49.3777H191.977C191.938 49.5363 191.919 49.699 191.919 49.8624ZM166.665 48.7314L166.904 49.2032C167.01 49.4067 167.065 49.6329 167.065 49.8624V69.6264H178.362V49.8624C178.363 49.6329 178.418 49.4067 178.524 49.2032L178.763 48.7314H166.665ZM177.717 49.8624V68.9801H167.711V49.8624C167.711 49.699 167.692 49.5363 167.653 49.3777H177.775C177.736 49.5363 177.717 49.699 177.717 49.8624ZM152.463 48.7314L152.702 49.2032C152.808 49.4067 152.863 49.6329 152.863 49.8624V69.6264H164.16V49.8624C164.161 49.6329 164.216 49.4067 164.322 49.2032L164.561 48.7314H152.463ZM163.515 49.8624V68.9801H153.509V49.8624C153.509 49.699 153.49 49.5363 153.451 49.3777H163.573C163.534 49.5363 163.515 49.699 163.515 49.8624ZM138.261 48.7314L138.5 49.2032C138.606 49.4067 138.661 49.6329 138.661 49.8624V69.6264H149.958V49.8624C149.959 49.6329 150.014 49.4067 150.12 49.2032L150.359 48.7314H138.261ZM149.313 49.8624V68.9801H139.307V49.8624C139.307 49.699 139.288 49.5363 139.249 49.3777H149.371C149.332 49.5363 149.313 49.699 149.313 49.8624ZM124.059 48.7314L124.298 49.2032C124.404 49.4067 124.459 49.6329 124.459 49.8624V69.6264H135.756V49.8624C135.757 49.6329 135.812 49.4067 135.918 49.2032L136.157 48.7314H124.059ZM135.111 49.8624V68.9801H125.105V49.8624C125.105 49.699 125.086 49.5363 125.047 49.3777H135.169C135.13 49.5363 135.111 49.699 135.111 49.8624ZM109.857 48.7314L110.096 49.2032C110.202 49.4067 110.257 49.6329 110.257 49.8624V69.6264H121.554V49.8624C121.555 49.6329 121.61 49.4067 121.716 49.2032L121.955 48.7314H109.857ZM120.909 49.8624V68.9801H110.903V49.8624C110.903 49.699 110.884 49.5363 110.845 49.3777H120.967C120.928 49.5363 120.909 49.699 120.909 49.8624ZM95.6553 48.7314L95.8942 49.2032C96.0001 49.4067 96.0554 49.6329 96.0556 49.8624V69.6264H107.353V49.8624C107.353 49.6329 107.408 49.4067 107.514 49.2032L107.753 48.7314H95.6553ZM106.707 49.8624V68.9801H96.7011V49.8624C96.7013 49.699 96.6818 49.5363 96.643 49.3777H106.765C106.726 49.5363 106.707 49.699 106.707 49.8624ZM209.271 48.7314L209.51 49.2032C209.616 49.4067 209.671 49.6329 209.671 49.8624V69.6264H220.968V49.8624C220.969 49.6329 221.024 49.4067 221.13 49.2032L221.369 48.7314H209.271ZM220.323 49.8624V68.9801H210.317V49.8624C210.317 49.699 210.298 49.5363 210.259 49.3777H220.381C220.342 49.5363 220.323 49.699 220.323 49.8624ZM195.069 48.7314L195.308 49.2032C195.414 49.4067 195.469 49.6329 195.469 49.8624V69.6264H206.766V49.8624C206.767 49.6329 206.822 49.4067 206.928 49.2032L207.167 48.7314H195.069ZM206.121 49.8624V68.9801H196.115V49.8624C196.115 49.699 196.096 49.5363 196.057 49.3777H206.179C206.14 49.5363 206.121 49.699 206.121 49.8624ZM180.867 48.7314L181.106 49.2032C181.212 49.4067 181.267 49.6329 181.267 49.8624V69.6264H192.564V49.8624C192.565 49.6329 192.62 49.4067 192.726 49.2032L192.965 48.7314H180.867ZM191.919 49.8624V68.9801H181.913V49.8624C181.913 49.699 181.894 49.5363 181.855 49.3777H191.977C191.938 49.5363 191.919 49.699 191.919 49.8624ZM166.665 48.7314L166.904 49.2032C167.01 49.4067 167.065 49.6329 167.065 49.8624V69.6264H178.362V49.8624C178.363 49.6329 178.418 49.4067 178.524 49.2032L178.763 48.7314H166.665ZM177.717 49.8624V68.9801H167.711V49.8624C167.711 49.699 167.692 49.5363 167.653 49.3777H177.775C177.736 49.5363 177.717 49.699 177.717 49.8624ZM152.463 48.7314L152.702 49.2032C152.808 49.4067 152.863 49.6329 152.863 49.8624V69.6264H164.16V49.8624C164.161 49.6329 164.216 49.4067 164.322 49.2032L164.561 48.7314H152.463ZM163.515 49.8624V68.9801H153.509V49.8624C153.509 49.699 153.49 49.5363 153.451 49.3777H163.573C163.534 49.5363 163.515 49.699 163.515 49.8624ZM138.261 48.7314L138.5 49.2032C138.606 49.4067 138.661 49.6329 138.661 49.8624V69.6264H149.958V49.8624C149.959 49.6329 150.014 49.4067 150.12 49.2032L150.359 48.7314H138.261ZM149.313 49.8624V68.9801H139.307V49.8624C139.307 49.699 139.288 49.5363 139.249 49.3777H149.371C149.332 49.5363 149.313 49.699 149.313 49.8624ZM124.059 48.7314L124.298 49.2032C124.404 49.4067 124.459 49.6329 124.459 49.8624V69.6264H135.756V49.8624C135.757 49.6329 135.812 49.4067 135.918 49.2032L136.157 48.7314H124.059ZM135.111 49.8624V68.9801H125.105V49.8624C125.105 49.699 125.086 49.5363 125.047 49.3777H135.169C135.13 49.5363 135.111 49.699 135.111 49.8624ZM109.857 48.7314L110.096 49.2032C110.202 49.4067 110.257 49.6329 110.257 49.8624V69.6264H121.554V49.8624C121.555 49.6329 121.61 49.4067 121.716 49.2032L121.955 48.7314H109.857ZM120.909 49.8624V68.9801H110.903V49.8624C110.903 49.699 110.884 49.5363 110.845 49.3777H120.967C120.928 49.5363 120.909 49.699 120.909 49.8624ZM95.6553 48.7314L95.8942 49.2032C96.0001 49.4067 96.0554 49.6329 96.0556 49.8624V69.6264H107.353V49.8624C107.353 49.6329 107.408 49.4067 107.514 49.2032L107.753 48.7314H95.6553ZM106.707 49.8624V68.9801H96.7011V49.8624C96.7013 49.699 96.6818 49.5363 96.643 49.3777H106.765C106.726 49.5363 106.707 49.699 106.707 49.8624ZM209.271 48.7314L209.51 49.2032C209.616 49.4067 209.671 49.6329 209.671 49.8624V69.6264H220.968V49.8624C220.969 49.6329 221.024 49.4067 221.13 49.2032L221.369 48.7314H209.271ZM220.323 49.8624V68.9801H210.317V49.8624C210.317 49.699 210.298 49.5363 210.259 49.3777H220.381C220.342 49.5363 220.323 49.699 220.323 49.8624ZM195.069 48.7314L195.308 49.2032C195.414 49.4067 195.469 49.6329 195.469 49.8624V69.6264H206.766V49.8624C206.767 49.6329 206.822 49.4067 206.928 49.2032L207.167 48.7314H195.069ZM206.121 49.8624V68.9801H196.115V49.8624C196.115 49.699 196.096 49.5363 196.057 49.3777H206.179C206.14 49.5363 206.121 49.699 206.121 49.8624ZM180.867 48.7314L181.106 49.2032C181.212 49.4067 181.267 49.6329 181.267 49.8624V69.6264H192.564V49.8624C192.565 49.6329 192.62 49.4067 192.726 49.2032L192.965 48.7314H180.867ZM191.919 49.8624V68.9801H181.913V49.8624C181.913 49.699 181.894 49.5363 181.855 49.3777H191.977C191.938 49.5363 191.919 49.699 191.919 49.8624ZM166.665 48.7314L166.904 49.2032C167.01 49.4067 167.065 49.6329 167.065 49.8624V69.6264H178.362V49.8624C178.363 49.6329 178.418 49.4067 178.524 49.2032L178.763 48.7314H166.665ZM177.717 49.8624V68.9801H167.711V49.8624C167.711 49.699 167.692 49.5363 167.653 49.3777H177.775C177.736 49.5363 177.717 49.699 177.717 49.8624ZM152.463 48.7314L152.702 49.2032C152.808 49.4067 152.863 49.6329 152.863 49.8624V69.6264H164.16V49.8624C164.161 49.6329 164.216 49.4067 164.322 49.2032L164.561 48.7314H152.463ZM163.515 49.8624V68.9801H153.509V49.8624C153.509 49.699 153.49 49.5363 153.451 49.3777H163.573C163.534 49.5363 163.515 49.699 163.515 49.8624ZM138.261 48.7314L138.5 49.2032C138.606 49.4067 138.661 49.6329 138.661 49.8624V69.6264H149.958V49.8624C149.959 49.6329 150.014 49.4067 150.12 49.2032L150.359 48.7314H138.261ZM149.313 49.8624V68.9801H139.307V49.8624C139.307 49.699 139.288 49.5363 139.249 49.3777H149.371C149.332 49.5363 149.313 49.699 149.313 49.8624ZM124.059 48.7314L124.298 49.2032C124.404 49.4067 124.459 49.6329 124.459 49.8624V69.6264H135.756V49.8624C135.757 49.6329 135.812 49.4067 135.918 49.2032L136.157 48.7314H124.059ZM135.111 49.8624V68.9801H125.105V49.8624C125.105 49.699 125.086 49.5363 125.047 49.3777H135.169C135.13 49.5363 135.111 49.699 135.111 49.8624ZM109.857 48.7314L110.096 49.2032C110.202 49.4067 110.257 49.6329 110.257 49.8624V69.6264H121.554V49.8624C121.555 49.6329 121.61 49.4067 121.716 49.2032L121.955 48.7314H109.857ZM120.909 49.8624V68.9801H110.903V49.8624C110.903 49.699 110.884 49.5363 110.845 49.3777H120.967C120.928 49.5363 120.909 49.699 120.909 49.8624ZM95.6553 48.7314L95.8942 49.2032C96.0001 49.4067 96.0554 49.6329 96.0556 49.8624V69.6264H107.353V49.8624C107.353 49.6329 107.408 49.4067 107.514 49.2032L107.753 48.7314H95.6553ZM106.707 49.8624V68.9801H96.7011V49.8624C96.7013 49.699 96.6818 49.5363 96.643 49.3777H106.765C106.726 49.5363 106.707 49.699 106.707 49.8624ZM209.271 48.7314L209.51 49.2032C209.616 49.4067 209.671 49.6329 209.671 49.8624V69.6264H220.968V49.8624C220.969 49.6329 221.024 49.4067 221.13 49.2032L221.369 48.7314H209.271ZM220.323 49.8624V68.9801H210.317V49.8624C210.317 49.699 210.298 49.5363 210.259 49.3777H220.381C220.342 49.5363 220.323 49.699 220.323 49.8624ZM195.308 49.2032C195.414 49.4067 195.469 49.6329 195.469 49.8624V69.6264H206.766V49.8624C206.767 49.6329 206.822 49.4067 206.928 49.2032L207.167 48.7314H195.069L195.308 49.2032ZM206.179 49.3777C206.14 49.5363 206.121 49.699 206.121 49.8624V68.9801H196.115V49.8624C196.115 49.699 196.096 49.5363 196.057 49.3777H206.179ZM181.106 49.2032C181.212 49.4067 181.267 49.6329 181.267 49.8624V69.6264H192.564V49.8624C192.565 49.6329 192.62 49.4067 192.726 49.2032L192.965 48.7314H180.867L181.106 49.2032ZM191.977 49.3777C191.938 49.5363 191.919 49.699 191.919 49.8624V68.9801H181.913V49.8624C181.913 49.699 181.894 49.5363 181.855 49.3777H191.977ZM166.904 49.2032C167.01 49.4067 167.065 49.6329 167.065 49.8624V69.6264H178.362V49.8624C178.363 49.6329 178.418 49.4067 178.524 49.2032L178.763 48.7314H166.665L166.904 49.2032ZM177.775 49.3777C177.736 49.5363 177.717 49.699 177.717 49.8624V68.9801H167.711V49.8624C167.711 49.699 167.692 49.5363 167.653 49.3777H177.775ZM152.702 49.2032C152.808 49.4067 152.863 49.6329 152.863 49.8624V69.6264H164.16V49.8624C164.161 49.6329 164.216 49.4067 164.322 49.2032L164.561 48.7314H152.463L152.702 49.2032ZM163.573 49.3777C163.534 49.5363 163.515 49.699 163.515 49.8624V68.9801H153.509V49.8624C153.509 49.699 153.49 49.5363 153.451 49.3777H163.573ZM138.5 49.2032C138.606 49.4067 138.661 49.6329 138.661 49.8624V69.6264H149.958V49.8624C149.959 49.6329 150.014 49.4067 150.12 49.2032L150.359 48.7314H138.261L138.5 49.2032ZM149.371 49.3777C149.332 49.5363 149.313 49.699 149.313 49.8624V68.9801H139.307V49.8624C139.307 49.699 139.288 49.5363 139.249 49.3777H149.371ZM124.298 49.2032C124.404 49.4067 124.459 49.6329 124.459 49.8624V69.6264H135.756V49.8624C135.757 49.6329 135.812 49.4067 135.918 49.2032L136.157 48.7314H124.059L124.298 49.2032ZM135.169 49.3777C135.13 49.5363 135.111 49.699 135.111 49.8624V68.9801H125.105V49.8624C125.105 49.699 125.086 49.5363 125.047 49.3777H135.169ZM110.096 49.2032C110.202 49.4067 110.257 49.6329 110.257 49.8624V69.6264H121.554V49.8624C121.555 49.6329 121.61 49.4067 121.716 49.2032L121.955 48.7314H109.857L110.096 49.2032ZM120.967 49.3777C120.928 49.5363 120.909 49.699 120.909 49.8624V68.9801H110.903V49.8624C110.903 49.699 110.884 49.5363 110.845 49.3777H120.967ZM95.8942 49.2032C96.0001 49.4067 96.0554 49.6329 96.0556 49.8624V69.6264H107.353V49.8624C107.353 49.6329 107.408 49.4067 107.514 49.2032L107.753 48.7314H95.6553L95.8942 49.2032ZM106.765 49.3777C106.726 49.5363 106.707 49.699 106.707 49.8624V68.9801H96.7011V49.8624C96.7013 49.699 96.6818 49.5363 96.643 49.3777H106.765ZM209.51 49.2032C209.616 49.4067 209.671 49.6329 209.671 49.8624V69.6264H220.968V49.8624C220.969 49.6329 221.024 49.4067 221.13 49.2032L221.369 48.7314H209.271L209.51 49.2032ZM220.381 49.3777C220.342 49.5363 220.323 49.699 220.323 49.8624V68.9801H210.317V49.8624C210.317 49.699 210.298 49.5363 210.259 49.3777H220.381ZM195.308 49.2032C195.414 49.4067 195.469 49.6329 195.469 49.8624V69.6264H206.766V49.8624C206.767 49.6329 206.822 49.4067 206.928 49.2032L207.167 48.7314H195.069L195.308 49.2032ZM206.179 49.3777C206.14 49.5363 206.121 49.699 206.121 49.8624V68.9801H196.115V49.8624C196.115 49.699 196.096 49.5363 196.057 49.3777H206.179ZM181.106 49.2032C181.212 49.4067 181.267 49.6329 181.267 49.8624V69.6264H192.564V49.8624C192.565 49.6329 192.62 49.4067 192.726 49.2032L192.965 48.7314H180.867L181.106 49.2032ZM191.977 49.3777C191.938 49.5363 191.919 49.699 191.919 49.8624V68.9801H181.913V49.8624C181.913 49.699 181.894 49.5363 181.855 49.3777H191.977ZM166.904 49.2032C167.01 49.4067 167.065 49.6329 167.065 49.8624V69.6264H178.362V49.8624C178.363 49.6329 178.418 49.4067 178.524 49.2032L178.763 48.7314H166.665L166.904 49.2032ZM177.775 49.3777C177.736 49.5363 177.717 49.699 177.717 49.8624V68.9801H167.711V49.8624C167.711 49.699 167.692 49.5363 167.653 49.3777H177.775ZM152.702 49.2032C152.808 49.4067 152.863 49.6329 152.863 49.8624V69.6264H164.16V49.8624C164.161 49.6329 164.216 49.4067 164.322 49.2032L164.561 48.7314H152.463L152.702 49.2032ZM163.573 49.3777C163.534 49.5363 163.515 49.699 163.515 49.8624V68.9801H153.509V49.8624C153.509 49.699 153.49 49.5363 153.451 49.3777H163.573ZM138.5 49.2032C138.606 49.4067 138.661 49.6329 138.661 49.8624V69.6264H149.958V49.8624C149.959 49.6329 150.014 49.4067 150.12 49.2032L150.359 48.7314H138.261L138.5 49.2032ZM149.371 49.3777C149.332 49.5363 149.313 49.699 149.313 49.8624V68.9801H139.307V49.8624C139.307 49.699 139.288 49.5363 139.249 49.3777H149.371ZM124.298 49.2032C124.404 49.4067 124.459 49.6329 124.459 49.8624V69.6264H135.756V49.8624C135.757 49.6329 135.812 49.4067 135.918 49.2032L136.157 48.7314H124.059L124.298 49.2032ZM135.169 49.3777C135.13 49.5363 135.111 49.699 135.111 49.8624V68.9801H125.105V49.8624C125.105 49.699 125.086 49.5363 125.047 49.3777H135.169ZM110.096 49.2032C110.202 49.4067 110.257 49.6329 110.257 49.8624V69.6264H121.554V49.8624C121.555 49.6329 121.61 49.4067 121.716 49.2032L121.955 48.7314H109.857L110.096 49.2032ZM120.967 49.3777C120.928 49.5363 120.909 49.699 120.909 49.8624V68.9801H110.903V49.8624C110.903 49.699 110.884 49.5363 110.845 49.3777H120.967ZM95.8942 49.2032C96.0001 49.4067 96.0554 49.6329 96.0556 49.8624V69.6264H107.353V49.8624C107.353 49.6329 107.408 49.4067 107.514 49.2032L107.753 48.7314H95.6553L95.8942 49.2032ZM106.765 49.3777C106.726 49.5363 106.707 49.699 106.707 49.8624V68.9801H96.7011V49.8624C96.7013 49.699 96.6818 49.5363 96.643 49.3777H106.765ZM233.879 71.5653H230.032C229.82 70.8219 229.372 70.1677 228.756 69.7014C228.14 69.2351 227.389 68.982 226.617 68.9801H224.519V49.8624C224.52 49.6022 224.47 49.3444 224.374 49.103C224.739 48.8874 225.024 48.5573 225.184 48.1636C225.343 47.7699 225.369 47.3346 225.257 46.9247C225.145 46.5149 224.902 46.1533 224.564 45.8958C224.226 45.6383 223.814 45.4992 223.389 45.5H93.6348C93.2104 45.4992 92.7975 45.6383 92.4599 45.8958C92.1222 46.1533 91.8786 46.5149 91.7667 46.9247C91.6547 47.3346 91.6806 47.7699 91.8403 48.1636C92 48.5573 92.2847 48.8874 92.6504 49.103C92.5536 49.3444 92.5042 49.6022 92.5051 49.8624V68.9801H90.4071C89.6348 68.982 88.8841 69.2351 88.2681 69.7014C87.6522 70.1677 87.2043 70.8219 86.9921 71.5653H82.8219C82.0518 71.5664 81.3136 71.8732 80.7691 72.4183C80.2246 72.9635 79.9181 73.7025 79.917 74.4735V245.092C79.9186 245.862 80.2252 246.601 80.7697 247.146C81.3141 247.691 82.052 247.998 82.8219 248H233.879C234.649 247.999 235.388 247.692 235.932 247.147C236.477 246.602 236.783 245.862 236.784 245.092V74.4735C236.783 73.7025 236.477 72.9635 235.932 72.4183C235.388 71.8732 234.649 71.5664 233.879 71.5653ZM236.139 245.092C236.138 245.553 235.997 246.004 235.733 246.383C235.469 246.762 235.096 247.051 234.664 247.211C234.413 247.307 234.147 247.355 233.879 247.353H82.8219C82.5539 247.355 82.288 247.307 82.0375 247.211C81.6051 247.051 81.2319 246.762 80.9683 246.383C80.7046 246.004 80.563 245.553 80.5625 245.092V74.4735C80.5632 73.8738 80.8014 73.2988 81.225 72.8748C81.6486 72.4507 82.2229 72.2122 82.8219 72.2115H87.5086L87.5603 71.953C87.696 71.297 88.053 70.7077 88.5714 70.2841C89.0897 69.8604 89.7379 69.6282 90.4071 69.6264H93.1506V49.8624C93.1507 49.5994 93.2221 49.3414 93.3573 49.1159L93.5573 48.7831L93.1926 48.6474C92.9075 48.5439 92.6681 48.3431 92.5164 48.0803C92.3647 47.8175 92.3106 47.5096 92.3634 47.2107C92.4163 46.9118 92.5727 46.6412 92.8053 46.4465C93.0379 46.2518 93.3316 46.1455 93.6348 46.1463H223.389C223.692 46.1455 223.986 46.2518 224.219 46.4465C224.451 46.6412 224.608 46.9118 224.661 47.2107C224.713 47.5096 224.659 47.8175 224.508 48.0803C224.356 48.3431 224.116 48.5439 223.831 48.6474L223.467 48.7831L223.667 49.1159C223.802 49.3414 223.873 49.5994 223.873 49.8624V69.6264H226.617C227.286 69.6282 227.934 69.8604 228.453 70.2841C228.971 70.7077 229.328 71.297 229.464 71.953L229.515 72.2115H233.879C234.478 72.2122 235.053 72.4507 235.476 72.8748C235.9 73.2988 236.138 73.8738 236.139 74.4735V245.092ZM95.6553 48.7314L95.8942 49.2032C96.0001 49.4067 96.0554 49.6329 96.0556 49.8624V69.6264H107.353V49.8624C107.353 49.6329 107.408 49.4067 107.514 49.2032L107.753 48.7314H95.6553ZM106.707 49.8624V68.9801H96.7011V49.8624C96.7013 49.699 96.6818 49.5363 96.643 49.3777H106.765C106.726 49.5363 106.707 49.699 106.707 49.8624ZM109.857 48.7314L110.096 49.2032C110.202 49.4067 110.257 49.6329 110.257 49.8624V69.6264H121.554V49.8624C121.555 49.6329 121.61 49.4067 121.716 49.2032L121.955 48.7314H109.857ZM120.909 49.8624V68.9801H110.903V49.8624C110.903 49.699 110.884 49.5363 110.845 49.3777H120.967C120.928 49.5363 120.909 49.699 120.909 49.8624ZM124.059 48.7314L124.298 49.2032C124.404 49.4067 124.459 49.6329 124.459 49.8624V69.6264H135.756V49.8624C135.757 49.6329 135.812 49.4067 135.918 49.2032L136.157 48.7314H124.059ZM135.111 49.8624V68.9801H125.105V49.8624C125.105 49.699 125.086 49.5363 125.047 49.3777H135.169C135.13 49.5363 135.111 49.699 135.111 49.8624ZM138.261 48.7314L138.5 49.2032C138.606 49.4067 138.661 49.6329 138.661 49.8624V69.6264H149.958V49.8624C149.959 49.6329 150.014 49.4067 150.12 49.2032L150.359 48.7314H138.261ZM149.313 49.8624V68.9801H139.307V49.8624C139.307 49.699 139.288 49.5363 139.249 49.3777H149.371C149.332 49.5363 149.313 49.699 149.313 49.8624ZM152.463 48.7314L152.702 49.2032C152.808 49.4067 152.863 49.6329 152.863 49.8624V69.6264H164.16V49.8624C164.161 49.6329 164.216 49.4067 164.322 49.2032L164.561 48.7314H152.463ZM163.515 49.8624V68.9801H153.509V49.8624C153.509 49.699 153.49 49.5363 153.451 49.3777H163.573C163.534 49.5363 163.515 49.699 163.515 49.8624ZM166.665 48.7314L166.904 49.2032C167.01 49.4067 167.065 49.6329 167.065 49.8624V69.6264H178.362V49.8624C178.363 49.6329 178.418 49.4067 178.524 49.2032L178.763 48.7314H166.665ZM177.717 49.8624V68.9801H167.711V49.8624C167.711 49.699 167.692 49.5363 167.653 49.3777H177.775C177.736 49.5363 177.717 49.699 177.717 49.8624ZM180.867 48.7314L181.106 49.2032C181.212 49.4067 181.267 49.6329 181.267 49.8624V69.6264H192.564V49.8624C192.565 49.6329 192.62 49.4067 192.726 49.2032L192.965 48.7314H180.867ZM191.919 49.8624V68.9801H181.913V49.8624C181.913 49.699 181.894 49.5363 181.855 49.3777H191.977C191.938 49.5363 191.919 49.699 191.919 49.8624ZM195.069 48.7314L195.308 49.2032C195.414 49.4067 195.469 49.6329 195.469 49.8624V69.6264H206.766V49.8624C206.767 49.6329 206.822 49.4067 206.928 49.2032L207.167 48.7314H195.069ZM206.121 49.8624V68.9801H196.115V49.8624C196.115 49.699 196.096 49.5363 196.057 49.3777H206.179C206.14 49.5363 206.121 49.699 206.121 49.8624ZM209.271 48.7314L209.51 49.2032C209.616 49.4067 209.671 49.6329 209.671 49.8624V69.6264H220.968V49.8624C220.969 49.6329 221.024 49.4067 221.13 49.2032L221.369 48.7314H209.271ZM220.323 49.8624V68.9801H210.317V49.8624C210.317 49.699 210.298 49.5363 210.259 49.3777H220.381C220.342 49.5363 220.323 49.699 220.323 49.8624ZM95.6553 48.7314L95.8942 49.2032C96.0001 49.4067 96.0554 49.6329 96.0556 49.8624V69.6264H107.353V49.8624C107.353 49.6329 107.408 49.4067 107.514 49.2032L107.753 48.7314H95.6553ZM106.707 49.8624V68.9801H96.7011V49.8624C96.7013 49.699 96.6818 49.5363 96.643 49.3777H106.765C106.726 49.5363 106.707 49.699 106.707 49.8624ZM109.857 48.7314L110.096 49.2032C110.202 49.4067 110.257 49.6329 110.257 49.8624V69.6264H121.554V49.8624C121.555 49.6329 121.61 49.4067 121.716 49.2032L121.955 48.7314H109.857ZM120.909 49.8624V68.9801H110.903V49.8624C110.903 49.699 110.884 49.5363 110.845 49.3777H120.967C120.928 49.5363 120.909 49.699 120.909 49.8624ZM124.059 48.7314L124.298 49.2032C124.404 49.4067 124.459 49.6329 124.459 49.8624V69.6264H135.756V49.8624C135.757 49.6329 135.812 49.4067 135.918 49.2032L136.157 48.7314H124.059ZM135.111 49.8624V68.9801H125.105V49.8624C125.105 49.699 125.086 49.5363 125.047 49.3777H135.169C135.13 49.5363 135.111 49.699 135.111 49.8624ZM138.261 48.7314L138.5 49.2032C138.606 49.4067 138.661 49.6329 138.661 49.8624V69.6264H149.958V49.8624C149.959 49.6329 150.014 49.4067 150.12 49.2032L150.359 48.7314H138.261ZM149.313 49.8624V68.9801H139.307V49.8624C139.307 49.699 139.288 49.5363 139.249 49.3777H149.371C149.332 49.5363 149.313 49.699 149.313 49.8624ZM152.463 48.7314L152.702 49.2032C152.808 49.4067 152.863 49.6329 152.863 49.8624V69.6264H164.16V49.8624C164.161 49.6329 164.216 49.4067 164.322 49.2032L164.561 48.7314H152.463ZM163.515 49.8624V68.9801H153.509V49.8624C153.509 49.699 153.49 49.5363 153.451 49.3777H163.573C163.534 49.5363 163.515 49.699 163.515 49.8624ZM166.665 48.7314L166.904 49.2032C167.01 49.4067 167.065 49.6329 167.065 49.8624V69.6264H178.362V49.8624C178.363 49.6329 178.418 49.4067 178.524 49.2032L178.763 48.7314H166.665ZM177.717 49.8624V68.9801H167.711V49.8624C167.711 49.699 167.692 49.5363 167.653 49.3777H177.775C177.736 49.5363 177.717 49.699 177.717 49.8624ZM180.867 48.7314L181.106 49.2032C181.212 49.4067 181.267 49.6329 181.267 49.8624V69.6264H192.564V49.8624C192.565 49.6329 192.62 49.4067 192.726 49.2032L192.965 48.7314H180.867ZM191.919 49.8624V68.9801H181.913V49.8624C181.913 49.699 181.894 49.5363 181.855 49.3777H191.977C191.938 49.5363 191.919 49.699 191.919 49.8624ZM195.069 48.7314L195.308 49.2032C195.414 49.4067 195.469 49.6329 195.469 49.8624V69.6264H206.766V49.8624C206.767 49.6329 206.822 49.4067 206.928 49.2032L207.167 48.7314H195.069ZM206.121 49.8624V68.9801H196.115V49.8624C196.115 49.699 196.096 49.5363 196.057 49.3777H206.179C206.14 49.5363 206.121 49.699 206.121 49.8624ZM209.271 48.7314L209.51 49.2032C209.616 49.4067 209.671 49.6329 209.671 49.8624V69.6264H220.968V49.8624C220.969 49.6329 221.024 49.4067 221.13 49.2032L221.369 48.7314H209.271ZM220.323 49.8624V68.9801H210.317V49.8624C210.317 49.699 210.298 49.5363 210.259 49.3777H220.381C220.342 49.5363 220.323 49.699 220.323 49.8624ZM95.6553 48.7314L95.8942 49.2032C96.0001 49.4067 96.0554 49.6329 96.0556 49.8624V69.6264H107.353V49.8624C107.353 49.6329 107.408 49.4067 107.514 49.2032L107.753 48.7314H95.6553ZM106.707 49.8624V68.9801H96.7011V49.8624C96.7013 49.699 96.6818 49.5363 96.643 49.3777H106.765C106.726 49.5363 106.707 49.699 106.707 49.8624ZM109.857 48.7314L110.096 49.2032C110.202 49.4067 110.257 49.6329 110.257 49.8624V69.6264H121.554V49.8624C121.555 49.6329 121.61 49.4067 121.716 49.2032L121.955 48.7314H109.857ZM120.909 49.8624V68.9801H110.903V49.8624C110.903 49.699 110.884 49.5363 110.845 49.3777H120.967C120.928 49.5363 120.909 49.699 120.909 49.8624ZM124.059 48.7314L124.298 49.2032C124.404 49.4067 124.459 49.6329 124.459 49.8624V69.6264H135.756V49.8624C135.757 49.6329 135.812 49.4067 135.918 49.2032L136.157 48.7314H124.059ZM135.111 49.8624V68.9801H125.105V49.8624C125.105 49.699 125.086 49.5363 125.047 49.3777H135.169C135.13 49.5363 135.111 49.699 135.111 49.8624ZM138.261 48.7314L138.5 49.2032C138.606 49.4067 138.661 49.6329 138.661 49.8624V69.6264H149.958V49.8624C149.959 49.6329 150.014 49.4067 150.12 49.2032L150.359 48.7314H138.261ZM149.313 49.8624V68.9801H139.307V49.8624C139.307 49.699 139.288 49.5363 139.249 49.3777H149.371C149.332 49.5363 149.313 49.699 149.313 49.8624ZM152.463 48.7314L152.702 49.2032C152.808 49.4067 152.863 49.6329 152.863 49.8624V69.6264H164.16V49.8624C164.161 49.6329 164.216 49.4067 164.322 49.2032L164.561 48.7314H152.463ZM163.515 49.8624V68.9801H153.509V49.8624C153.509 49.699 153.49 49.5363 153.451 49.3777H163.573C163.534 49.5363 163.515 49.699 163.515 49.8624ZM166.665 48.7314L166.904 49.2032C167.01 49.4067 167.065 49.6329 167.065 49.8624V69.6264H178.362V49.8624C178.363 49.6329 178.418 49.4067 178.524 49.2032L178.763 48.7314H166.665ZM177.717 49.8624V68.9801H167.711V49.8624C167.711 49.699 167.692 49.5363 167.653 49.3777H177.775C177.736 49.5363 177.717 49.699 177.717 49.8624ZM180.867 48.7314L181.106 49.2032C181.212 49.4067 181.267 49.6329 181.267 49.8624V69.6264H192.564V49.8624C192.565 49.6329 192.62 49.4067 192.726 49.2032L192.965 48.7314H180.867ZM191.919 49.8624V68.9801H181.913V49.8624C181.913 49.699 181.894 49.5363 181.855 49.3777H191.977C191.938 49.5363 191.919 49.699 191.919 49.8624ZM195.069 48.7314L195.308 49.2032C195.414 49.4067 195.469 49.6329 195.469 49.8624V69.6264H206.766V49.8624C206.767 49.6329 206.822 49.4067 206.928 49.2032L207.167 48.7314H195.069ZM206.121 49.8624V68.9801H196.115V49.8624C196.115 49.699 196.096 49.5363 196.057 49.3777H206.179C206.14 49.5363 206.121 49.699 206.121 49.8624ZM209.271 48.7314L209.51 49.2032C209.616 49.4067 209.671 49.6329 209.671 49.8624V69.6264H220.968V49.8624C220.969 49.6329 221.024 49.4067 221.13 49.2032L221.369 48.7314H209.271ZM220.323 49.8624V68.9801H210.317V49.8624C210.317 49.699 210.298 49.5363 210.259 49.3777H220.381C220.342 49.5363 220.323 49.699 220.323 49.8624ZM95.6553 48.7314L95.8942 49.2032C96.0001 49.4067 96.0554 49.6329 96.0556 49.8624V69.6264H107.353V49.8624C107.353 49.6329 107.408 49.4067 107.514 49.2032L107.753 48.7314H95.6553ZM106.707 49.8624V68.9801H96.7011V49.8624C96.7013 49.699 96.6818 49.5363 96.643 49.3777H106.765C106.726 49.5363 106.707 49.699 106.707 49.8624ZM109.857 48.7314L110.096 49.2032C110.202 49.4067 110.257 49.6329 110.257 49.8624V69.6264H121.554V49.8624C121.555 49.6329 121.61 49.4067 121.716 49.2032L121.955 48.7314H109.857ZM120.909 49.8624V68.9801H110.903V49.8624C110.903 49.699 110.884 49.5363 110.845 49.3777H120.967C120.928 49.5363 120.909 49.699 120.909 49.8624ZM124.059 48.7314L124.298 49.2032C124.404 49.4067 124.459 49.6329 124.459 49.8624V69.6264H135.756V49.8624C135.757 49.6329 135.812 49.4067 135.918 49.2032L136.157 48.7314H124.059ZM135.111 49.8624V68.9801H125.105V49.8624C125.105 49.699 125.086 49.5363 125.047 49.3777H135.169C135.13 49.5363 135.111 49.699 135.111 49.8624ZM138.261 48.7314L138.5 49.2032C138.606 49.4067 138.661 49.6329 138.661 49.8624V69.6264H149.958V49.8624C149.959 49.6329 150.014 49.4067 150.12 49.2032L150.359 48.7314H138.261ZM149.313 49.8624V68.9801H139.307V49.8624C139.307 49.699 139.288 49.5363 139.249 49.3777H149.371C149.332 49.5363 149.313 49.699 149.313 49.8624ZM152.463 48.7314L152.702 49.2032C152.808 49.4067 152.863 49.6329 152.863 49.8624V69.6264H164.16V49.8624C164.161 49.6329 164.216 49.4067 164.322 49.2032L164.561 48.7314H152.463ZM163.515 49.8624V68.9801H153.509V49.8624C153.509 49.699 153.49 49.5363 153.451 49.3777H163.573C163.534 49.5363 163.515 49.699 163.515 49.8624ZM166.665 48.7314L166.904 49.2032C167.01 49.4067 167.065 49.6329 167.065 49.8624V69.6264H178.362V49.8624C178.363 49.6329 178.418 49.4067 178.524 49.2032L178.763 48.7314H166.665ZM177.717 49.8624V68.9801H167.711V49.8624C167.711 49.699 167.692 49.5363 167.653 49.3777H177.775C177.736 49.5363 177.717 49.699 177.717 49.8624ZM180.867 48.7314L181.106 49.2032C181.212 49.4067 181.267 49.6329 181.267 49.8624V69.6264H192.564V49.8624C192.565 49.6329 192.62 49.4067 192.726 49.2032L192.965 48.7314H180.867ZM191.919 49.8624V68.9801H181.913V49.8624C181.913 49.699 181.894 49.5363 181.855 49.3777H191.977C191.938 49.5363 191.919 49.699 191.919 49.8624ZM195.069 48.7314L195.308 49.2032C195.414 49.4067 195.469 49.6329 195.469 49.8624V69.6264H206.766V49.8624C206.767 49.6329 206.822 49.4067 206.928 49.2032L207.167 48.7314H195.069ZM206.121 49.8624V68.9801H196.115V49.8624C196.115 49.699 196.096 49.5363 196.057 49.3777H206.179C206.14 49.5363 206.121 49.699 206.121 49.8624ZM209.271 48.7314L209.51 49.2032C209.616 49.4067 209.671 49.6329 209.671 49.8624V69.6264H220.968V49.8624C220.969 49.6329 221.024 49.4067 221.13 49.2032L221.369 48.7314H209.271ZM220.323 49.8624V68.9801H210.317V49.8624C210.317 49.699 210.298 49.5363 210.259 49.3777H220.381C220.342 49.5363 220.323 49.699 220.323 49.8624Z" fill="white"/>
<path d="M95.6553 48.7314L95.8942 49.2032C96.0001 49.4067 96.0554 49.6329 96.0556 49.8624V69.6264H107.353V49.8624C107.353 49.6329 107.408 49.4067 107.514 49.2032L107.753 48.7314H95.6553ZM106.707 49.8624V68.9801H96.7011V49.8624C96.7013 49.699 96.6818 49.5363 96.643 49.3777H106.765C106.726 49.5363 106.707 49.699 106.707 49.8624ZM109.857 48.7314L110.096 49.2032C110.202 49.4067 110.257 49.6329 110.257 49.8624V69.6264H121.554V49.8624C121.555 49.6329 121.61 49.4067 121.716 49.2032L121.955 48.7314H109.857ZM120.909 49.8624V68.9801H110.903V49.8624C110.903 49.699 110.884 49.5363 110.845 49.3777H120.967C120.928 49.5363 120.909 49.699 120.909 49.8624ZM124.059 48.7314L124.298 49.2032C124.404 49.4067 124.459 49.6329 124.459 49.8624V69.6264H135.756V49.8624C135.757 49.6329 135.812 49.4067 135.918 49.2032L136.157 48.7314H124.059ZM135.111 49.8624V68.9801H125.105V49.8624C125.105 49.699 125.086 49.5363 125.047 49.3777H135.169C135.13 49.5363 135.111 49.699 135.111 49.8624ZM138.261 48.7314L138.5 49.2032C138.606 49.4067 138.661 49.6329 138.661 49.8624V69.6264H149.958V49.8624C149.959 49.6329 150.014 49.4067 150.12 49.2032L150.359 48.7314H138.261ZM149.313 49.8624V68.9801H139.307V49.8624C139.307 49.699 139.288 49.5363 139.249 49.3777H149.371C149.332 49.5363 149.313 49.699 149.313 49.8624ZM152.463 48.7314L152.702 49.2032C152.808 49.4067 152.863 49.6329 152.863 49.8624V69.6264H164.16V49.8624C164.161 49.6329 164.216 49.4067 164.322 49.2032L164.561 48.7314H152.463ZM163.515 49.8624V68.9801H153.509V49.8624C153.509 49.699 153.49 49.5363 153.451 49.3777H163.573C163.534 49.5363 163.515 49.699 163.515 49.8624ZM166.665 48.7314L166.904 49.2032C167.01 49.4067 167.065 49.6329 167.065 49.8624V69.6264H178.362V49.8624C178.363 49.6329 178.418 49.4067 178.524 49.2032L178.763 48.7314H166.665ZM177.717 49.8624V68.9801H167.711V49.8624C167.711 49.699 167.692 49.5363 167.653 49.3777H177.775C177.736 49.5363 177.717 49.699 177.717 49.8624ZM180.867 48.7314L181.106 49.2032C181.212 49.4067 181.267 49.6329 181.267 49.8624V69.6264H192.564V49.8624C192.565 49.6329 192.62 49.4067 192.726 49.2032L192.965 48.7314H180.867ZM191.919 49.8624V68.9801H181.913V49.8624C181.913 49.699 181.894 49.5363 181.855 49.3777H191.977C191.938 49.5363 191.919 49.699 191.919 49.8624ZM195.069 48.7314L195.308 49.2032C195.414 49.4067 195.469 49.6329 195.469 49.8624V69.6264H206.766V49.8624C206.767 49.6329 206.822 49.4067 206.928 49.2032L207.167 48.7314H195.069ZM206.121 49.8624V68.9801H196.115V49.8624C196.115 49.699 196.096 49.5363 196.057 49.3777H206.179C206.14 49.5363 206.121 49.699 206.121 49.8624ZM209.271 48.7314L209.51 49.2032C209.616 49.4067 209.671 49.6329 209.671 49.8624V69.6264H220.968V49.8624C220.969 49.6329 221.024 49.4067 221.13 49.2032L221.369 48.7314H209.271ZM220.323 49.8624V68.9801H210.317V49.8624C210.317 49.699 210.298 49.5363 210.259 49.3777H220.381C220.342 49.5363 220.323 49.699 220.323 49.8624ZM209.271 48.7314L209.51 49.2032C209.616 49.4067 209.671 49.6329 209.671 49.8624V69.6264H220.968V49.8624C220.969 49.6329 221.024 49.4067 221.13 49.2032L221.369 48.7314H209.271ZM220.323 49.8624V68.9801H210.317V49.8624C210.317 49.699 210.298 49.5363 210.259 49.3777H220.381C220.342 49.5363 220.323 49.699 220.323 49.8624ZM195.069 48.7314L195.308 49.2032C195.414 49.4067 195.469 49.6329 195.469 49.8624V69.6264H206.766V49.8624C206.767 49.6329 206.822 49.4067 206.928 49.2032L207.167 48.7314H195.069ZM206.121 49.8624V68.9801H196.115V49.8624C196.115 49.699 196.096 49.5363 196.057 49.3777H206.179C206.14 49.5363 206.121 49.699 206.121 49.8624ZM180.867 48.7314L181.106 49.2032C181.212 49.4067 181.267 49.6329 181.267 49.8624V69.6264H192.564V49.8624C192.565 49.6329 192.62 49.4067 192.726 49.2032L192.965 48.7314H180.867ZM191.919 49.8624V68.9801H181.913V49.8624C181.913 49.699 181.894 49.5363 181.855 49.3777H191.977C191.938 49.5363 191.919 49.699 191.919 49.8624ZM166.665 48.7314L166.904 49.2032C167.01 49.4067 167.065 49.6329 167.065 49.8624V69.6264H178.362V49.8624C178.363 49.6329 178.418 49.4067 178.524 49.2032L178.763 48.7314H166.665ZM177.717 49.8624V68.9801H167.711V49.8624C167.711 49.699 167.692 49.5363 167.653 49.3777H177.775C177.736 49.5363 177.717 49.699 177.717 49.8624ZM152.463 48.7314L152.702 49.2032C152.808 49.4067 152.863 49.6329 152.863 49.8624V69.6264H164.16V49.8624C164.161 49.6329 164.216 49.4067 164.322 49.2032L164.561 48.7314H152.463ZM163.515 49.8624V68.9801H153.509V49.8624C153.509 49.699 153.49 49.5363 153.451 49.3777H163.573C163.534 49.5363 163.515 49.699 163.515 49.8624ZM138.261 48.7314L138.5 49.2032C138.606 49.4067 138.661 49.6329 138.661 49.8624V69.6264H149.958V49.8624C149.959 49.6329 150.014 49.4067 150.12 49.2032L150.359 48.7314H138.261ZM149.313 49.8624V68.9801H139.307V49.8624C139.307 49.699 139.288 49.5363 139.249 49.3777H149.371C149.332 49.5363 149.313 49.699 149.313 49.8624ZM124.059 48.7314L124.298 49.2032C124.404 49.4067 124.459 49.6329 124.459 49.8624V69.6264H135.756V49.8624C135.757 49.6329 135.812 49.4067 135.918 49.2032L136.157 48.7314H124.059ZM135.111 49.8624V68.9801H125.105V49.8624C125.105 49.699 125.086 49.5363 125.047 49.3777H135.169C135.13 49.5363 135.111 49.699 135.111 49.8624ZM109.857 48.7314L110.096 49.2032C110.202 49.4067 110.257 49.6329 110.257 49.8624V69.6264H121.554V49.8624C121.555 49.6329 121.61 49.4067 121.716 49.2032L121.955 48.7314H109.857ZM120.909 49.8624V68.9801H110.903V49.8624C110.903 49.699 110.884 49.5363 110.845 49.3777H120.967C120.928 49.5363 120.909 49.699 120.909 49.8624ZM95.6553 48.7314L95.8942 49.2032C96.0001 49.4067 96.0554 49.6329 96.0556 49.8624V69.6264H107.353V49.8624C107.353 49.6329 107.408 49.4067 107.514 49.2032L107.753 48.7314H95.6553ZM106.707 49.8624V68.9801H96.7011V49.8624C96.7013 49.699 96.6818 49.5363 96.643 49.3777H106.765C106.726 49.5363 106.707 49.699 106.707 49.8624ZM209.271 48.7314L209.51 49.2032C209.616 49.4067 209.671 49.6329 209.671 49.8624V69.6264H220.968V49.8624C220.969 49.6329 221.024 49.4067 221.13 49.2032L221.369 48.7314H209.271ZM220.323 49.8624V68.9801H210.317V49.8624C210.317 49.699 210.298 49.5363 210.259 49.3777H220.381C220.342 49.5363 220.323 49.699 220.323 49.8624ZM195.069 48.7314L195.308 49.2032C195.414 49.4067 195.469 49.6329 195.469 49.8624V69.6264H206.766V49.8624C206.767 49.6329 206.822 49.4067 206.928 49.2032L207.167 48.7314H195.069ZM206.121 49.8624V68.9801H196.115V49.8624C196.115 49.699 196.096 49.5363 196.057 49.3777H206.179C206.14 49.5363 206.121 49.699 206.121 49.8624ZM180.867 48.7314L181.106 49.2032C181.212 49.4067 181.267 49.6329 181.267 49.8624V69.6264H192.564V49.8624C192.565 49.6329 192.62 49.4067 192.726 49.2032L192.965 48.7314H180.867ZM191.919 49.8624V68.9801H181.913V49.8624C181.913 49.699 181.894 49.5363 181.855 49.3777H191.977C191.938 49.5363 191.919 49.699 191.919 49.8624ZM166.665 48.7314L166.904 49.2032C167.01 49.4067 167.065 49.6329 167.065 49.8624V69.6264H178.362V49.8624C178.363 49.6329 178.418 49.4067 178.524 49.2032L178.763 48.7314H166.665ZM177.717 49.8624V68.9801H167.711V49.8624C167.711 49.699 167.692 49.5363 167.653 49.3777H177.775C177.736 49.5363 177.717 49.699 177.717 49.8624ZM152.463 48.7314L152.702 49.2032C152.808 49.4067 152.863 49.6329 152.863 49.8624V69.6264H164.16V49.8624C164.161 49.6329 164.216 49.4067 164.322 49.2032L164.561 48.7314H152.463ZM163.515 49.8624V68.9801H153.509V49.8624C153.509 49.699 153.49 49.5363 153.451 49.3777H163.573C163.534 49.5363 163.515 49.699 163.515 49.8624ZM138.261 48.7314L138.5 49.2032C138.606 49.4067 138.661 49.6329 138.661 49.8624V69.6264H149.958V49.8624C149.959 49.6329 150.014 49.4067 150.12 49.2032L150.359 48.7314H138.261ZM149.313 49.8624V68.9801H139.307V49.8624C139.307 49.699 139.288 49.5363 139.249 49.3777H149.371C149.332 49.5363 149.313 49.699 149.313 49.8624ZM124.059 48.7314L124.298 49.2032C124.404 49.4067 124.459 49.6329 124.459 49.8624V69.6264H135.756V49.8624C135.757 49.6329 135.812 49.4067 135.918 49.2032L136.157 48.7314H124.059ZM135.111 49.8624V68.9801H125.105V49.8624C125.105 49.699 125.086 49.5363 125.047 49.3777H135.169C135.13 49.5363 135.111 49.699 135.111 49.8624ZM109.857 48.7314L110.096 49.2032C110.202 49.4067 110.257 49.6329 110.257 49.8624V69.6264H121.554V49.8624C121.555 49.6329 121.61 49.4067 121.716 49.2032L121.955 48.7314H109.857ZM120.909 49.8624V68.9801H110.903V49.8624C110.903 49.699 110.884 49.5363 110.845 49.3777H120.967C120.928 49.5363 120.909 49.699 120.909 49.8624ZM95.6553 48.7314L95.8942 49.2032C96.0001 49.4067 96.0554 49.6329 96.0556 49.8624V69.6264H107.353V49.8624C107.353 49.6329 107.408 49.4067 107.514 49.2032L107.753 48.7314H95.6553ZM106.707 49.8624V68.9801H96.7011V49.8624C96.7013 49.699 96.6818 49.5363 96.643 49.3777H106.765C106.726 49.5363 106.707 49.699 106.707 49.8624ZM209.271 48.7314L209.51 49.2032C209.616 49.4067 209.671 49.6329 209.671 49.8624V69.6264H220.968V49.8624C220.969 49.6329 221.024 49.4067 221.13 49.2032L221.369 48.7314H209.271ZM220.323 49.8624V68.9801H210.317V49.8624C210.317 49.699 210.298 49.5363 210.259 49.3777H220.381C220.342 49.5363 220.323 49.699 220.323 49.8624ZM195.069 48.7314L195.308 49.2032C195.414 49.4067 195.469 49.6329 195.469 49.8624V69.6264H206.766V49.8624C206.767 49.6329 206.822 49.4067 206.928 49.2032L207.167 48.7314H195.069ZM206.121 49.8624V68.9801H196.115V49.8624C196.115 49.699 196.096 49.5363 196.057 49.3777H206.179C206.14 49.5363 206.121 49.699 206.121 49.8624ZM180.867 48.7314L181.106 49.2032C181.212 49.4067 181.267 49.6329 181.267 49.8624V69.6264H192.564V49.8624C192.565 49.6329 192.62 49.4067 192.726 49.2032L192.965 48.7314H180.867ZM191.919 49.8624V68.9801H181.913V49.8624C181.913 49.699 181.894 49.5363 181.855 49.3777H191.977C191.938 49.5363 191.919 49.699 191.919 49.8624ZM166.665 48.7314L166.904 49.2032C167.01 49.4067 167.065 49.6329 167.065 49.8624V69.6264H178.362V49.8624C178.363 49.6329 178.418 49.4067 178.524 49.2032L178.763 48.7314H166.665ZM177.717 49.8624V68.9801H167.711V49.8624C167.711 49.699 167.692 49.5363 167.653 49.3777H177.775C177.736 49.5363 177.717 49.699 177.717 49.8624ZM152.463 48.7314L152.702 49.2032C152.808 49.4067 152.863 49.6329 152.863 49.8624V69.6264H164.16V49.8624C164.161 49.6329 164.216 49.4067 164.322 49.2032L164.561 48.7314H152.463ZM163.515 49.8624V68.9801H153.509V49.8624C153.509 49.699 153.49 49.5363 153.451 49.3777H163.573C163.534 49.5363 163.515 49.699 163.515 49.8624ZM138.261 48.7314L138.5 49.2032C138.606 49.4067 138.661 49.6329 138.661 49.8624V69.6264H149.958V49.8624C149.959 49.6329 150.014 49.4067 150.12 49.2032L150.359 48.7314H138.261ZM149.313 49.8624V68.9801H139.307V49.8624C139.307 49.699 139.288 49.5363 139.249 49.3777H149.371C149.332 49.5363 149.313 49.699 149.313 49.8624ZM124.059 48.7314L124.298 49.2032C124.404 49.4067 124.459 49.6329 124.459 49.8624V69.6264H135.756V49.8624C135.757 49.6329 135.812 49.4067 135.918 49.2032L136.157 48.7314H124.059ZM135.111 49.8624V68.9801H125.105V49.8624C125.105 49.699 125.086 49.5363 125.047 49.3777H135.169C135.13 49.5363 135.111 49.699 135.111 49.8624ZM109.857 48.7314L110.096 49.2032C110.202 49.4067 110.257 49.6329 110.257 49.8624V69.6264H121.554V49.8624C121.555 49.6329 121.61 49.4067 121.716 49.2032L121.955 48.7314H109.857ZM120.909 49.8624V68.9801H110.903V49.8624C110.903 49.699 110.884 49.5363 110.845 49.3777H120.967C120.928 49.5363 120.909 49.699 120.909 49.8624ZM95.6553 48.7314L95.8942 49.2032C96.0001 49.4067 96.0554 49.6329 96.0556 49.8624V69.6264H107.353V49.8624C107.353 49.6329 107.408 49.4067 107.514 49.2032L107.753 48.7314H95.6553ZM106.707 49.8624V68.9801H96.7011V49.8624C96.7013 49.699 96.6818 49.5363 96.643 49.3777H106.765C106.726 49.5363 106.707 49.699 106.707 49.8624ZM209.271 48.7314L209.51 49.2032C209.616 49.4067 209.671 49.6329 209.671 49.8624V69.6264H220.968V49.8624C220.969 49.6329 221.024 49.4067 221.13 49.2032L221.369 48.7314H209.271ZM220.323 49.8624V68.9801H210.317V49.8624C210.317 49.699 210.298 49.5363 210.259 49.3777H220.381C220.342 49.5363 220.323 49.699 220.323 49.8624ZM195.069 48.7314L195.308 49.2032C195.414 49.4067 195.469 49.6329 195.469 49.8624V69.6264H206.766V49.8624C206.767 49.6329 206.822 49.4067 206.928 49.2032L207.167 48.7314H195.069ZM206.121 49.8624V68.9801H196.115V49.8624C196.115 49.699 196.096 49.5363 196.057 49.3777H206.179C206.14 49.5363 206.121 49.699 206.121 49.8624ZM180.867 48.7314L181.106 49.2032C181.212 49.4067 181.267 49.6329 181.267 49.8624V69.6264H192.564V49.8624C192.565 49.6329 192.62 49.4067 192.726 49.2032L192.965 48.7314H180.867ZM191.919 49.8624V68.9801H181.913V49.8624C181.913 49.699 181.894 49.5363 181.855 49.3777H191.977C191.938 49.5363 191.919 49.699 191.919 49.8624ZM166.665 48.7314L166.904 49.2032C167.01 49.4067 167.065 49.6329 167.065 49.8624V69.6264H178.362V49.8624C178.363 49.6329 178.418 49.4067 178.524 49.2032L178.763 48.7314H166.665ZM177.717 49.8624V68.9801H167.711V49.8624C167.711 49.699 167.692 49.5363 167.653 49.3777H177.775C177.736 49.5363 177.717 49.699 177.717 49.8624ZM152.463 48.7314L152.702 49.2032C152.808 49.4067 152.863 49.6329 152.863 49.8624V69.6264H164.16V49.8624C164.161 49.6329 164.216 49.4067 164.322 49.2032L164.561 48.7314H152.463ZM163.515 49.8624V68.9801H153.509V49.8624C153.509 49.699 153.49 49.5363 153.451 49.3777H163.573C163.534 49.5363 163.515 49.699 163.515 49.8624ZM138.261 48.7314L138.5 49.2032C138.606 49.4067 138.661 49.6329 138.661 49.8624V69.6264H149.958V49.8624C149.959 49.6329 150.014 49.4067 150.12 49.2032L150.359 48.7314H138.261ZM149.313 49.8624V68.9801H139.307V49.8624C139.307 49.699 139.288 49.5363 139.249 49.3777H149.371C149.332 49.5363 149.313 49.699 149.313 49.8624ZM124.059 48.7314L124.298 49.2032C124.404 49.4067 124.459 49.6329 124.459 49.8624V69.6264H135.756V49.8624C135.757 49.6329 135.812 49.4067 135.918 49.2032L136.157 48.7314H124.059ZM135.111 49.8624V68.9801H125.105V49.8624C125.105 49.699 125.086 49.5363 125.047 49.3777H135.169C135.13 49.5363 135.111 49.699 135.111 49.8624ZM109.857 48.7314L110.096 49.2032C110.202 49.4067 110.257 49.6329 110.257 49.8624V69.6264H121.554V49.8624C121.555 49.6329 121.61 49.4067 121.716 49.2032L121.955 48.7314H109.857ZM120.909 49.8624V68.9801H110.903V49.8624C110.903 49.699 110.884 49.5363 110.845 49.3777H120.967C120.928 49.5363 120.909 49.699 120.909 49.8624ZM95.6553 48.7314L95.8942 49.2032C96.0001 49.4067 96.0554 49.6329 96.0556 49.8624V69.6264H107.353V49.8624C107.353 49.6329 107.408 49.4067 107.514 49.2032L107.753 48.7314H95.6553ZM106.707 49.8624V68.9801H96.7011V49.8624C96.7013 49.699 96.6818 49.5363 96.643 49.3777H106.765C106.726 49.5363 106.707 49.699 106.707 49.8624ZM209.271 48.7314L209.51 49.2032C209.616 49.4067 209.671 49.6329 209.671 49.8624V69.6264H220.968V49.8624C220.969 49.6329 221.024 49.4067 221.13 49.2032L221.369 48.7314H209.271ZM220.323 49.8624V68.9801H210.317V49.8624C210.317 49.699 210.298 49.5363 210.259 49.3777H220.381C220.342 49.5363 220.323 49.699 220.323 49.8624ZM195.308 49.2032C195.414 49.4067 195.469 49.6329 195.469 49.8624V69.6264H206.766V49.8624C206.767 49.6329 206.822 49.4067 206.928 49.2032L207.167 48.7314H195.069L195.308 49.2032ZM206.179 49.3777C206.14 49.5363 206.121 49.699 206.121 49.8624V68.9801H196.115V49.8624C196.115 49.699 196.096 49.5363 196.057 49.3777H206.179ZM181.106 49.2032C181.212 49.4067 181.267 49.6329 181.267 49.8624V69.6264H192.564V49.8624C192.565 49.6329 192.62 49.4067 192.726 49.2032L192.965 48.7314H180.867L181.106 49.2032ZM191.977 49.3777C191.938 49.5363 191.919 49.699 191.919 49.8624V68.9801H181.913V49.8624C181.913 49.699 181.894 49.5363 181.855 49.3777H191.977ZM166.904 49.2032C167.01 49.4067 167.065 49.6329 167.065 49.8624V69.6264H178.362V49.8624C178.363 49.6329 178.418 49.4067 178.524 49.2032L178.763 48.7314H166.665L166.904 49.2032ZM177.775 49.3777C177.736 49.5363 177.717 49.699 177.717 49.8624V68.9801H167.711V49.8624C167.711 49.699 167.692 49.5363 167.653 49.3777H177.775ZM152.702 49.2032C152.808 49.4067 152.863 49.6329 152.863 49.8624V69.6264H164.16V49.8624C164.161 49.6329 164.216 49.4067 164.322 49.2032L164.561 48.7314H152.463L152.702 49.2032ZM163.573 49.3777C163.534 49.5363 163.515 49.699 163.515 49.8624V68.9801H153.509V49.8624C153.509 49.699 153.49 49.5363 153.451 49.3777H163.573ZM138.5 49.2032C138.606 49.4067 138.661 49.6329 138.661 49.8624V69.6264H149.958V49.8624C149.959 49.6329 150.014 49.4067 150.12 49.2032L150.359 48.7314H138.261L138.5 49.2032ZM149.371 49.3777C149.332 49.5363 149.313 49.699 149.313 49.8624V68.9801H139.307V49.8624C139.307 49.699 139.288 49.5363 139.249 49.3777H149.371ZM124.298 49.2032C124.404 49.4067 124.459 49.6329 124.459 49.8624V69.6264H135.756V49.8624C135.757 49.6329 135.812 49.4067 135.918 49.2032L136.157 48.7314H124.059L124.298 49.2032ZM135.169 49.3777C135.13 49.5363 135.111 49.699 135.111 49.8624V68.9801H125.105V49.8624C125.105 49.699 125.086 49.5363 125.047 49.3777H135.169ZM110.096 49.2032C110.202 49.4067 110.257 49.6329 110.257 49.8624V69.6264H121.554V49.8624C121.555 49.6329 121.61 49.4067 121.716 49.2032L121.955 48.7314H109.857L110.096 49.2032ZM120.967 49.3777C120.928 49.5363 120.909 49.699 120.909 49.8624V68.9801H110.903V49.8624C110.903 49.699 110.884 49.5363 110.845 49.3777H120.967ZM95.8942 49.2032C96.0001 49.4067 96.0554 49.6329 96.0556 49.8624V69.6264H107.353V49.8624C107.353 49.6329 107.408 49.4067 107.514 49.2032L107.753 48.7314H95.6553L95.8942 49.2032ZM106.765 49.3777C106.726 49.5363 106.707 49.699 106.707 49.8624V68.9801H96.7011V49.8624C96.7013 49.699 96.6818 49.5363 96.643 49.3777H106.765ZM209.51 49.2032C209.616 49.4067 209.671 49.6329 209.671 49.8624V69.6264H220.968V49.8624C220.969 49.6329 221.024 49.4067 221.13 49.2032L221.369 48.7314H209.271L209.51 49.2032ZM220.381 49.3777C220.342 49.5363 220.323 49.699 220.323 49.8624V68.9801H210.317V49.8624C210.317 49.699 210.298 49.5363 210.259 49.3777H220.381ZM195.308 49.2032C195.414 49.4067 195.469 49.6329 195.469 49.8624V69.6264H206.766V49.8624C206.767 49.6329 206.822 49.4067 206.928 49.2032L207.167 48.7314H195.069L195.308 49.2032ZM206.179 49.3777C206.14 49.5363 206.121 49.699 206.121 49.8624V68.9801H196.115V49.8624C196.115 49.699 196.096 49.5363 196.057 49.3777H206.179ZM181.106 49.2032C181.212 49.4067 181.267 49.6329 181.267 49.8624V69.6264H192.564V49.8624C192.565 49.6329 192.62 49.4067 192.726 49.2032L192.965 48.7314H180.867L181.106 49.2032ZM191.977 49.3777C191.938 49.5363 191.919 49.699 191.919 49.8624V68.9801H181.913V49.8624C181.913 49.699 181.894 49.5363 181.855 49.3777H191.977ZM166.904 49.2032C167.01 49.4067 167.065 49.6329 167.065 49.8624V69.6264H178.362V49.8624C178.363 49.6329 178.418 49.4067 178.524 49.2032L178.763 48.7314H166.665L166.904 49.2032ZM177.775 49.3777C177.736 49.5363 177.717 49.699 177.717 49.8624V68.9801H167.711V49.8624C167.711 49.699 167.692 49.5363 167.653 49.3777H177.775ZM152.702 49.2032C152.808 49.4067 152.863 49.6329 152.863 49.8624V69.6264H164.16V49.8624C164.161 49.6329 164.216 49.4067 164.322 49.2032L164.561 48.7314H152.463L152.702 49.2032ZM163.573 49.3777C163.534 49.5363 163.515 49.699 163.515 49.8624V68.9801H153.509V49.8624C153.509 49.699 153.49 49.5363 153.451 49.3777H163.573ZM138.5 49.2032C138.606 49.4067 138.661 49.6329 138.661 49.8624V69.6264H149.958V49.8624C149.959 49.6329 150.014 49.4067 150.12 49.2032L150.359 48.7314H138.261L138.5 49.2032ZM149.371 49.3777C149.332 49.5363 149.313 49.699 149.313 49.8624V68.9801H139.307V49.8624C139.307 49.699 139.288 49.5363 139.249 49.3777H149.371ZM124.298 49.2032C124.404 49.4067 124.459 49.6329 124.459 49.8624V69.6264H135.756V49.8624C135.757 49.6329 135.812 49.4067 135.918 49.2032L136.157 48.7314H124.059L124.298 49.2032ZM135.169 49.3777C135.13 49.5363 135.111 49.699 135.111 49.8624V68.9801H125.105V49.8624C125.105 49.699 125.086 49.5363 125.047 49.3777H135.169ZM110.096 49.2032C110.202 49.4067 110.257 49.6329 110.257 49.8624V69.6264H121.554V49.8624C121.555 49.6329 121.61 49.4067 121.716 49.2032L121.955 48.7314H109.857L110.096 49.2032ZM120.967 49.3777C120.928 49.5363 120.909 49.699 120.909 49.8624V68.9801H110.903V49.8624C110.903 49.699 110.884 49.5363 110.845 49.3777H120.967ZM95.8942 49.2032C96.0001 49.4067 96.0554 49.6329 96.0556 49.8624V69.6264H107.353V49.8624C107.353 49.6329 107.408 49.4067 107.514 49.2032L107.753 48.7314H95.6553L95.8942 49.2032ZM106.765 49.3777C106.726 49.5363 106.707 49.699 106.707 49.8624V68.9801H96.7011V49.8624C96.7013 49.699 96.6818 49.5363 96.643 49.3777H106.765ZM233.879 71.5653H230.032C229.82 70.8219 229.372 70.1677 228.756 69.7014C228.14 69.2351 227.389 68.982 226.617 68.9801H224.519V49.8624C224.52 49.6022 224.47 49.3444 224.374 49.103C224.739 48.8874 225.024 48.5573 225.184 48.1636C225.343 47.7699 225.369 47.3346 225.257 46.9247C225.145 46.5149 224.902 46.1533 224.564 45.8958C224.226 45.6383 223.814 45.4992 223.389 45.5H93.6348C93.2104 45.4992 92.7975 45.6383 92.4599 45.8958C92.1222 46.1533 91.8786 46.5149 91.7667 46.9247C91.6547 47.3346 91.6806 47.7699 91.8403 48.1636C92 48.5573 92.2847 48.8874 92.6504 49.103C92.5536 49.3444 92.5042 49.6022 92.5051 49.8624V68.9801H90.4071C89.6348 68.982 88.8841 69.2351 88.2681 69.7014C87.6522 70.1677 87.2043 70.8219 86.9921 71.5653H82.8219C82.0518 71.5664 81.3136 71.8732 80.7691 72.4183C80.2246 72.9635 79.9181 73.7025 79.917 74.4735V245.092C79.9186 245.862 80.2252 246.601 80.7697 247.146C81.3141 247.691 82.052 247.998 82.8219 248H233.879C234.649 247.999 235.388 247.692 235.932 247.147C236.477 246.602 236.783 245.862 236.784 245.092V74.4735C236.783 73.7025 236.477 72.9635 235.932 72.4183C235.388 71.8732 234.649 71.5664 233.879 71.5653ZM236.139 245.092C236.138 245.553 235.997 246.004 235.733 246.383C235.469 246.762 235.096 247.051 234.664 247.211C234.413 247.307 234.147 247.355 233.879 247.353H82.8219C82.5539 247.355 82.288 247.307 82.0375 247.211C81.6051 247.051 81.2319 246.762 80.9683 246.383C80.7046 246.004 80.563 245.553 80.5625 245.092V74.4735C80.5632 73.8738 80.8014 73.2988 81.225 72.8748C81.6486 72.4507 82.2229 72.2122 82.8219 72.2115H87.5086L87.5603 71.953C87.696 71.297 88.053 70.7077 88.5714 70.2841C89.0897 69.8604 89.7379 69.6282 90.4071 69.6264H93.1506V49.8624C93.1507 49.5994 93.2221 49.3414 93.3573 49.1159L93.5573 48.7831L93.1926 48.6474C92.9075 48.5439 92.6681 48.3431 92.5164 48.0803C92.3647 47.8175 92.3106 47.5096 92.3634 47.2107C92.4163 46.9118 92.5727 46.6412 92.8053 46.4465C93.0379 46.2518 93.3316 46.1455 93.6348 46.1463H223.389C223.692 46.1455 223.986 46.2518 224.219 46.4465C224.451 46.6412 224.608 46.9118 224.661 47.2107C224.713 47.5096 224.659 47.8175 224.508 48.0803C224.356 48.3431 224.116 48.5439 223.831 48.6474L223.467 48.7831L223.667 49.1159C223.802 49.3414 223.873 49.5994 223.873 49.8624V69.6264H226.617C227.286 69.6282 227.934 69.8604 228.453 70.2841C228.971 70.7077 229.328 71.297 229.464 71.953L229.515 72.2115H233.879C234.478 72.2122 235.053 72.4507 235.476 72.8748C235.9 73.2988 236.138 73.8738 236.139 74.4735V245.092ZM95.6553 48.7314L95.8942 49.2032C96.0001 49.4067 96.0554 49.6329 96.0556 49.8624V69.6264H107.353V49.8624C107.353 49.6329 107.408 49.4067 107.514 49.2032L107.753 48.7314H95.6553ZM106.707 49.8624V68.9801H96.7011V49.8624C96.7013 49.699 96.6818 49.5363 96.643 49.3777H106.765C106.726 49.5363 106.707 49.699 106.707 49.8624ZM109.857 48.7314L110.096 49.2032C110.202 49.4067 110.257 49.6329 110.257 49.8624V69.6264H121.554V49.8624C121.555 49.6329 121.61 49.4067 121.716 49.2032L121.955 48.7314H109.857ZM120.909 49.8624V68.9801H110.903V49.8624C110.903 49.699 110.884 49.5363 110.845 49.3777H120.967C120.928 49.5363 120.909 49.699 120.909 49.8624ZM124.059 48.7314L124.298 49.2032C124.404 49.4067 124.459 49.6329 124.459 49.8624V69.6264H135.756V49.8624C135.757 49.6329 135.812 49.4067 135.918 49.2032L136.157 48.7314H124.059ZM135.111 49.8624V68.9801H125.105V49.8624C125.105 49.699 125.086 49.5363 125.047 49.3777H135.169C135.13 49.5363 135.111 49.699 135.111 49.8624ZM138.261 48.7314L138.5 49.2032C138.606 49.4067 138.661 49.6329 138.661 49.8624V69.6264H149.958V49.8624C149.959 49.6329 150.014 49.4067 150.12 49.2032L150.359 48.7314H138.261ZM149.313 49.8624V68.9801H139.307V49.8624C139.307 49.699 139.288 49.5363 139.249 49.3777H149.371C149.332 49.5363 149.313 49.699 149.313 49.8624ZM152.463 48.7314L152.702 49.2032C152.808 49.4067 152.863 49.6329 152.863 49.8624V69.6264H164.16V49.8624C164.161 49.6329 164.216 49.4067 164.322 49.2032L164.561 48.7314H152.463ZM163.515 49.8624V68.9801H153.509V49.8624C153.509 49.699 153.49 49.5363 153.451 49.3777H163.573C163.534 49.5363 163.515 49.699 163.515 49.8624ZM166.665 48.7314L166.904 49.2032C167.01 49.4067 167.065 49.6329 167.065 49.8624V69.6264H178.362V49.8624C178.363 49.6329 178.418 49.4067 178.524 49.2032L178.763 48.7314H166.665ZM177.717 49.8624V68.9801H167.711V49.8624C167.711 49.699 167.692 49.5363 167.653 49.3777H177.775C177.736 49.5363 177.717 49.699 177.717 49.8624ZM180.867 48.7314L181.106 49.2032C181.212 49.4067 181.267 49.6329 181.267 49.8624V69.6264H192.564V49.8624C192.565 49.6329 192.62 49.4067 192.726 49.2032L192.965 48.7314H180.867ZM191.919 49.8624V68.9801H181.913V49.8624C181.913 49.699 181.894 49.5363 181.855 49.3777H191.977C191.938 49.5363 191.919 49.699 191.919 49.8624ZM195.069 48.7314L195.308 49.2032C195.414 49.4067 195.469 49.6329 195.469 49.8624V69.6264H206.766V49.8624C206.767 49.6329 206.822 49.4067 206.928 49.2032L207.167 48.7314H195.069ZM206.121 49.8624V68.9801H196.115V49.8624C196.115 49.699 196.096 49.5363 196.057 49.3777H206.179C206.14 49.5363 206.121 49.699 206.121 49.8624ZM209.271 48.7314L209.51 49.2032C209.616 49.4067 209.671 49.6329 209.671 49.8624V69.6264H220.968V49.8624C220.969 49.6329 221.024 49.4067 221.13 49.2032L221.369 48.7314H209.271ZM220.323 49.8624V68.9801H210.317V49.8624C210.317 49.699 210.298 49.5363 210.259 49.3777H220.381C220.342 49.5363 220.323 49.699 220.323 49.8624ZM95.6553 48.7314L95.8942 49.2032C96.0001 49.4067 96.0554 49.6329 96.0556 49.8624V69.6264H107.353V49.8624C107.353 49.6329 107.408 49.4067 107.514 49.2032L107.753 48.7314H95.6553ZM106.707 49.8624V68.9801H96.7011V49.8624C96.7013 49.699 96.6818 49.5363 96.643 49.3777H106.765C106.726 49.5363 106.707 49.699 106.707 49.8624ZM109.857 48.7314L110.096 49.2032C110.202 49.4067 110.257 49.6329 110.257 49.8624V69.6264H121.554V49.8624C121.555 49.6329 121.61 49.4067 121.716 49.2032L121.955 48.7314H109.857ZM120.909 49.8624V68.9801H110.903V49.8624C110.903 49.699 110.884 49.5363 110.845 49.3777H120.967C120.928 49.5363 120.909 49.699 120.909 49.8624ZM124.059 48.7314L124.298 49.2032C124.404 49.4067 124.459 49.6329 124.459 49.8624V69.6264H135.756V49.8624C135.757 49.6329 135.812 49.4067 135.918 49.2032L136.157 48.7314H124.059ZM135.111 49.8624V68.9801H125.105V49.8624C125.105 49.699 125.086 49.5363 125.047 49.3777H135.169C135.13 49.5363 135.111 49.699 135.111 49.8624ZM138.261 48.7314L138.5 49.2032C138.606 49.4067 138.661 49.6329 138.661 49.8624V69.6264H149.958V49.8624C149.959 49.6329 150.014 49.4067 150.12 49.2032L150.359 48.7314H138.261ZM149.313 49.8624V68.9801H139.307V49.8624C139.307 49.699 139.288 49.5363 139.249 49.3777H149.371C149.332 49.5363 149.313 49.699 149.313 49.8624ZM152.463 48.7314L152.702 49.2032C152.808 49.4067 152.863 49.6329 152.863 49.8624V69.6264H164.16V49.8624C164.161 49.6329 164.216 49.4067 164.322 49.2032L164.561 48.7314H152.463ZM163.515 49.8624V68.9801H153.509V49.8624C153.509 49.699 153.49 49.5363 153.451 49.3777H163.573C163.534 49.5363 163.515 49.699 163.515 49.8624ZM166.665 48.7314L166.904 49.2032C167.01 49.4067 167.065 49.6329 167.065 49.8624V69.6264H178.362V49.8624C178.363 49.6329 178.418 49.4067 178.524 49.2032L178.763 48.7314H166.665ZM177.717 49.8624V68.9801H167.711V49.8624C167.711 49.699 167.692 49.5363 167.653 49.3777H177.775C177.736 49.5363 177.717 49.699 177.717 49.8624ZM180.867 48.7314L181.106 49.2032C181.212 49.4067 181.267 49.6329 181.267 49.8624V69.6264H192.564V49.8624C192.565 49.6329 192.62 49.4067 192.726 49.2032L192.965 48.7314H180.867ZM191.919 49.8624V68.9801H181.913V49.8624C181.913 49.699 181.894 49.5363 181.855 49.3777H191.977C191.938 49.5363 191.919 49.699 191.919 49.8624ZM195.069 48.7314L195.308 49.2032C195.414 49.4067 195.469 49.6329 195.469 49.8624V69.6264H206.766V49.8624C206.767 49.6329 206.822 49.4067 206.928 49.2032L207.167 48.7314H195.069ZM206.121 49.8624V68.9801H196.115V49.8624C196.115 49.699 196.096 49.5363 196.057 49.3777H206.179C206.14 49.5363 206.121 49.699 206.121 49.8624ZM209.271 48.7314L209.51 49.2032C209.616 49.4067 209.671 49.6329 209.671 49.8624V69.6264H220.968V49.8624C220.969 49.6329 221.024 49.4067 221.13 49.2032L221.369 48.7314H209.271ZM220.323 49.8624V68.9801H210.317V49.8624C210.317 49.699 210.298 49.5363 210.259 49.3777H220.381C220.342 49.5363 220.323 49.699 220.323 49.8624ZM95.6553 48.7314L95.8942 49.2032C96.0001 49.4067 96.0554 49.6329 96.0556 49.8624V69.6264H107.353V49.8624C107.353 49.6329 107.408 49.4067 107.514 49.2032L107.753 48.7314H95.6553ZM106.707 49.8624V68.9801H96.7011V49.8624C96.7013 49.699 96.6818 49.5363 96.643 49.3777H106.765C106.726 49.5363 106.707 49.699 106.707 49.8624ZM109.857 48.7314L110.096 49.2032C110.202 49.4067 110.257 49.6329 110.257 49.8624V69.6264H121.554V49.8624C121.555 49.6329 121.61 49.4067 121.716 49.2032L121.955 48.7314H109.857ZM120.909 49.8624V68.9801H110.903V49.8624C110.903 49.699 110.884 49.5363 110.845 49.3777H120.967C120.928 49.5363 120.909 49.699 120.909 49.8624ZM124.059 48.7314L124.298 49.2032C124.404 49.4067 124.459 49.6329 124.459 49.8624V69.6264H135.756V49.8624C135.757 49.6329 135.812 49.4067 135.918 49.2032L136.157 48.7314H124.059ZM135.111 49.8624V68.9801H125.105V49.8624C125.105 49.699 125.086 49.5363 125.047 49.3777H135.169C135.13 49.5363 135.111 49.699 135.111 49.8624ZM138.261 48.7314L138.5 49.2032C138.606 49.4067 138.661 49.6329 138.661 49.8624V69.6264H149.958V49.8624C149.959 49.6329 150.014 49.4067 150.12 49.2032L150.359 48.7314H138.261ZM149.313 49.8624V68.9801H139.307V49.8624C139.307 49.699 139.288 49.5363 139.249 49.3777H149.371C149.332 49.5363 149.313 49.699 149.313 49.8624ZM152.463 48.7314L152.702 49.2032C152.808 49.4067 152.863 49.6329 152.863 49.8624V69.6264H164.16V49.8624C164.161 49.6329 164.216 49.4067 164.322 49.2032L164.561 48.7314H152.463ZM163.515 49.8624V68.9801H153.509V49.8624C153.509 49.699 153.49 49.5363 153.451 49.3777H163.573C163.534 49.5363 163.515 49.699 163.515 49.8624ZM166.665 48.7314L166.904 49.2032C167.01 49.4067 167.065 49.6329 167.065 49.8624V69.6264H178.362V49.8624C178.363 49.6329 178.418 49.4067 178.524 49.2032L178.763 48.7314H166.665ZM177.717 49.8624V68.9801H167.711V49.8624C167.711 49.699 167.692 49.5363 167.653 49.3777H177.775C177.736 49.5363 177.717 49.699 177.717 49.8624ZM180.867 48.7314L181.106 49.2032C181.212 49.4067 181.267 49.6329 181.267 49.8624V69.6264H192.564V49.8624C192.565 49.6329 192.62 49.4067 192.726 49.2032L192.965 48.7314H180.867ZM191.919 49.8624V68.9801H181.913V49.8624C181.913 49.699 181.894 49.5363 181.855 49.3777H191.977C191.938 49.5363 191.919 49.699 191.919 49.8624ZM195.069 48.7314L195.308 49.2032C195.414 49.4067 195.469 49.6329 195.469 49.8624V69.6264H206.766V49.8624C206.767 49.6329 206.822 49.4067 206.928 49.2032L207.167 48.7314H195.069ZM206.121 49.8624V68.9801H196.115V49.8624C196.115 49.699 196.096 49.5363 196.057 49.3777H206.179C206.14 49.5363 206.121 49.699 206.121 49.8624ZM209.271 48.7314L209.51 49.2032C209.616 49.4067 209.671 49.6329 209.671 49.8624V69.6264H220.968V49.8624C220.969 49.6329 221.024 49.4067 221.13 49.2032L221.369 48.7314H209.271ZM220.323 49.8624V68.9801H210.317V49.8624C210.317 49.699 210.298 49.5363 210.259 49.3777H220.381C220.342 49.5363 220.323 49.699 220.323 49.8624ZM95.6553 48.7314L95.8942 49.2032C96.0001 49.4067 96.0554 49.6329 96.0556 49.8624V69.6264H107.353V49.8624C107.353 49.6329 107.408 49.4067 107.514 49.2032L107.753 48.7314H95.6553ZM106.707 49.8624V68.9801H96.7011V49.8624C96.7013 49.699 96.6818 49.5363 96.643 49.3777H106.765C106.726 49.5363 106.707 49.699 106.707 49.8624ZM109.857 48.7314L110.096 49.2032C110.202 49.4067 110.257 49.6329 110.257 49.8624V69.6264H121.554V49.8624C121.555 49.6329 121.61 49.4067 121.716 49.2032L121.955 48.7314H109.857ZM120.909 49.8624V68.9801H110.903V49.8624C110.903 49.699 110.884 49.5363 110.845 49.3777H120.967C120.928 49.5363 120.909 49.699 120.909 49.8624ZM124.059 48.7314L124.298 49.2032C124.404 49.4067 124.459 49.6329 124.459 49.8624V69.6264H135.756V49.8624C135.757 49.6329 135.812 49.4067 135.918 49.2032L136.157 48.7314H124.059ZM135.111 49.8624V68.9801H125.105V49.8624C125.105 49.699 125.086 49.5363 125.047 49.3777H135.169C135.13 49.5363 135.111 49.699 135.111 49.8624ZM138.261 48.7314L138.5 49.2032C138.606 49.4067 138.661 49.6329 138.661 49.8624V69.6264H149.958V49.8624C149.959 49.6329 150.014 49.4067 150.12 49.2032L150.359 48.7314H138.261ZM149.313 49.8624V68.9801H139.307V49.8624C139.307 49.699 139.288 49.5363 139.249 49.3777H149.371C149.332 49.5363 149.313 49.699 149.313 49.8624ZM152.463 48.7314L152.702 49.2032C152.808 49.4067 152.863 49.6329 152.863 49.8624V69.6264H164.16V49.8624C164.161 49.6329 164.216 49.4067 164.322 49.2032L164.561 48.7314H152.463ZM163.515 49.8624V68.9801H153.509V49.8624C153.509 49.699 153.49 49.5363 153.451 49.3777H163.573C163.534 49.5363 163.515 49.699 163.515 49.8624ZM166.665 48.7314L166.904 49.2032C167.01 49.4067 167.065 49.6329 167.065 49.8624V69.6264H178.362V49.8624C178.363 49.6329 178.418 49.4067 178.524 49.2032L178.763 48.7314H166.665ZM177.717 49.8624V68.9801H167.711V49.8624C167.711 49.699 167.692 49.5363 167.653 49.3777H177.775C177.736 49.5363 177.717 49.699 177.717 49.8624ZM180.867 48.7314L181.106 49.2032C181.212 49.4067 181.267 49.6329 181.267 49.8624V69.6264H192.564V49.8624C192.565 49.6329 192.62 49.4067 192.726 49.2032L192.965 48.7314H180.867ZM191.919 49.8624V68.9801H181.913V49.8624C181.913 49.699 181.894 49.5363 181.855 49.3777H191.977C191.938 49.5363 191.919 49.699 191.919 49.8624ZM195.069 48.7314L195.308 49.2032C195.414 49.4067 195.469 49.6329 195.469 49.8624V69.6264H206.766V49.8624C206.767 49.6329 206.822 49.4067 206.928 49.2032L207.167 48.7314H195.069ZM206.121 49.8624V68.9801H196.115V49.8624C196.115 49.699 196.096 49.5363 196.057 49.3777H206.179C206.14 49.5363 206.121 49.699 206.121 49.8624ZM209.271 48.7314L209.51 49.2032C209.616 49.4067 209.671 49.6329 209.671 49.8624V69.6264H220.968V49.8624C220.969 49.6329 221.024 49.4067 221.13 49.2032L221.369 48.7314H209.271ZM220.323 49.8624V68.9801H210.317V49.8624C210.317 49.699 210.298 49.5363 210.259 49.3777H220.381C220.342 49.5363 220.323 49.699 220.323 49.8624Z" stroke="white"/>
<path d="M134.03 112.281H110.228C109.727 112.28 109.246 112.081 108.892 111.726C108.537 111.371 108.338 110.89 108.337 110.388V97.6938C108.338 97.1919 108.537 96.7107 108.892 96.3558C109.246 96.001 109.727 95.8013 110.228 95.8008H134.03C134.532 95.8013 135.012 96.0009 135.367 96.3558C135.721 96.7107 135.921 97.1919 135.921 97.6938V110.388C135.921 110.89 135.721 111.371 135.367 111.726C135.012 112.081 134.532 112.28 134.03 112.281Z" fill="#28519E"/>
<path d="M170.252 112.281H146.449C145.948 112.28 145.468 112.081 145.113 111.726C144.759 111.371 144.559 110.89 144.559 110.388V97.6938C144.559 97.1919 144.759 96.7107 145.113 96.3558C145.468 96.001 145.948 95.8013 146.449 95.8008H170.252C170.753 95.8013 171.234 96.0009 171.588 96.3558C171.943 96.7107 172.142 97.1919 172.143 97.6938V110.388C172.142 110.89 171.943 111.371 171.588 111.726C171.234 112.081 170.753 112.28 170.252 112.281Z" fill="#28519E"/>
<path d="M206.473 112.281H182.671C182.169 112.28 181.689 112.081 181.334 111.726C180.98 111.371 180.78 110.89 180.78 110.388V97.6938C180.78 97.1919 180.98 96.7107 181.334 96.3558C181.689 96.001 182.169 95.8013 182.671 95.8008H206.473C206.974 95.8013 207.455 96.0009 207.809 96.3558C208.164 96.7107 208.363 97.1919 208.364 97.6938V110.388C208.363 110.89 208.164 111.371 207.809 111.726C207.455 112.081 206.974 112.28 206.473 112.281Z" fill="#28519E"/>
<path d="M134.03 154.612H110.228C109.727 154.612 109.246 154.412 108.892 154.057C108.537 153.702 108.338 153.221 108.337 152.719V140.025C108.338 139.523 108.537 139.042 108.892 138.687C109.246 138.332 109.727 138.133 110.228 138.132H134.03C134.532 138.133 135.012 138.332 135.367 138.687C135.721 139.042 135.921 139.523 135.921 140.025V152.719C135.921 153.221 135.721 153.702 135.367 154.057C135.012 154.412 134.532 154.612 134.03 154.612Z" fill="#28519E"/>
<path d="M170.252 154.612H146.449C145.948 154.612 145.468 154.412 145.113 154.057C144.759 153.702 144.559 153.221 144.559 152.719V140.025C144.559 139.523 144.759 139.042 145.113 138.687C145.468 138.332 145.948 138.133 146.449 138.132H170.252C170.753 138.133 171.234 138.332 171.588 138.687C171.943 139.042 172.142 139.523 172.143 140.025V152.719C172.142 153.221 171.943 153.702 171.588 154.057C171.234 154.412 170.753 154.612 170.252 154.612Z" fill="#28519E"/>
<path d="M206.473 154.612H182.671C182.169 154.612 181.689 154.412 181.334 154.057C180.98 153.702 180.78 153.221 180.78 152.719V140.025C180.78 139.523 180.98 139.042 181.334 138.687C181.689 138.332 182.169 138.133 182.671 138.132H206.473C206.974 138.133 207.455 138.332 207.809 138.687C208.164 139.042 208.363 139.523 208.364 140.025V152.719C208.363 153.221 208.164 153.702 207.809 154.057C207.455 154.412 206.974 154.612 206.473 154.612Z" fill="#28519E"/>
<path d="M134.03 196.944H110.228C109.727 196.943 109.246 196.743 108.892 196.389C108.537 196.034 108.338 195.553 108.337 195.051V182.356C108.338 181.855 108.537 181.373 108.892 181.019C109.246 180.664 109.727 180.464 110.228 180.463H134.03C134.532 180.464 135.012 180.664 135.367 181.019C135.721 181.373 135.921 181.855 135.921 182.356V195.051C135.921 195.553 135.721 196.034 135.367 196.389C135.012 196.743 134.532 196.943 134.03 196.944Z" fill="#28519E"/>
<path d="M170.252 196.944H146.449C145.948 196.943 145.468 196.743 145.113 196.389C144.759 196.034 144.559 195.553 144.559 195.051V182.356C144.559 181.855 144.759 181.373 145.113 181.019C145.468 180.664 145.948 180.464 146.449 180.463H170.252C170.753 180.464 171.234 180.664 171.588 181.019C171.943 181.373 172.142 181.855 172.143 182.356V195.051C172.142 195.553 171.943 196.034 171.588 196.389C171.234 196.743 170.753 196.943 170.252 196.944Z" fill="#28519E"/>
<path d="M206.473 196.944H182.671C182.169 196.943 181.689 196.743 181.334 196.389C180.98 196.034 180.78 195.553 180.78 195.051V182.356C180.78 181.855 180.98 181.373 181.334 181.019C181.689 180.664 182.169 180.464 182.671 180.463H206.473C206.974 180.464 207.455 180.664 207.809 181.019C208.164 181.373 208.363 181.855 208.364 182.356V195.051C208.363 195.553 208.164 196.034 207.809 196.389C207.455 196.743 206.974 196.943 206.473 196.944Z" fill="#28519E"/>
<path d="M130.177 114.16C130.91 114.159 131.612 113.867 132.13 113.349C132.648 112.83 132.939 112.127 132.94 111.394V96.6881C132.939 95.9549 132.648 95.2517 132.13 94.7331C131.612 94.2146 130.91 93.9228 130.177 93.922H102.603C101.87 93.9228 101.168 94.2146 100.65 94.7331C100.132 95.2517 99.8409 95.9547 99.8401 96.6879V111.394C99.8409 112.127 100.132 112.83 100.65 113.349C101.168 113.867 101.87 114.159 102.603 114.16H130.177ZM101.46 95.5432C101.763 95.2396 102.175 95.0688 102.603 95.0682H130.177C130.606 95.0688 131.017 95.2395 131.32 95.5432C131.623 95.8469 131.794 96.2588 131.795 96.6884V111.393C131.794 111.823 131.623 112.235 131.32 112.538C131.017 112.842 130.605 113.013 130.177 113.013H102.604C102.175 113.013 101.763 112.842 101.46 112.538C101.157 112.235 100.986 111.823 100.986 111.393V96.6883C100.986 96.2587 101.157 95.8469 101.46 95.5432Z" fill="white" stroke="white" stroke-width="0.5"/>
<path d="M172.137 114.16H172.138C172.87 114.159 173.573 113.867 174.09 113.349C174.608 112.83 174.9 112.127 174.901 111.394V96.6881C174.9 95.9549 174.608 95.2517 174.09 94.7331C173.573 94.2146 172.87 93.9228 172.138 93.922H172.137H144.564C143.832 93.9228 143.129 94.2146 142.611 94.7331C142.093 95.2517 141.801 95.9547 141.801 96.6879V111.394C141.801 112.127 142.093 112.83 142.611 113.349C143.129 113.867 143.831 114.159 144.563 114.16H172.137ZM143.421 95.5432C143.724 95.2395 144.135 95.0688 144.564 95.0682H172.137C172.566 95.0688 172.977 95.2396 173.28 95.5432C173.584 95.8469 173.755 96.2588 173.755 96.6884V111.393C173.755 111.823 173.584 112.235 173.28 112.538C172.977 112.842 172.566 113.013 172.137 113.013H144.564C144.135 113.013 143.724 112.842 143.421 112.538C143.117 112.235 142.947 111.823 142.946 111.393V96.6883C142.947 96.2587 143.117 95.8469 143.421 95.5432Z" fill="white" stroke="white" stroke-width="0.5"/>
<path d="M214.098 114.16C214.831 114.159 215.533 113.867 216.051 113.349C216.569 112.83 216.86 112.127 216.861 111.394V96.6881C216.86 95.9549 216.569 95.2517 216.051 94.7331C215.533 94.2146 214.831 93.9228 214.098 93.922H186.524C185.791 93.9228 185.089 94.2146 184.571 94.7331C184.053 95.2517 183.762 95.9547 183.761 96.6879V111.394C183.762 112.127 184.053 112.83 184.571 113.349C185.089 113.867 185.791 114.159 186.524 114.16H214.098ZM185.381 95.5432C185.684 95.2395 186.096 95.0688 186.524 95.0682H214.098C214.526 95.0688 214.938 95.2396 215.241 95.5432C215.544 95.8469 215.715 96.2588 215.715 96.6884V111.393C215.715 111.823 215.544 112.235 215.241 112.538C214.938 112.842 214.526 113.013 214.097 113.013H186.524C186.096 113.013 185.684 112.842 185.381 112.538C185.078 112.235 184.907 111.823 184.907 111.393V96.6883C184.907 96.2587 185.078 95.8469 185.381 95.5432Z" fill="white" stroke="white" stroke-width="0.5"/>
<path d="M130.177 156.491C130.91 156.49 131.612 156.198 132.13 155.68C132.648 155.161 132.939 154.458 132.94 153.725V139.019C132.939 138.286 132.648 137.583 132.13 137.064C131.612 136.546 130.91 136.254 130.177 136.253H102.603C101.87 136.254 101.168 136.546 100.65 137.064C100.132 137.583 99.8409 138.286 99.8401 139.019V153.725C99.8409 154.458 100.132 155.161 100.65 155.68C101.168 156.198 101.87 156.49 102.603 156.491H130.177ZM101.46 137.875C101.763 137.571 102.175 137.4 102.603 137.4H130.177C130.606 137.4 131.017 137.571 131.32 137.875C131.623 138.178 131.794 138.59 131.795 139.02V153.725C131.794 154.154 131.623 154.566 131.32 154.87C131.017 155.174 130.605 155.344 130.177 155.345H102.604C102.175 155.344 101.763 155.173 101.46 154.87C101.157 154.566 100.986 154.154 100.986 153.725V139.02C100.986 138.59 101.157 138.178 101.46 137.875Z" fill="white" stroke="white" stroke-width="0.5"/>
<path d="M172.137 156.491H172.138C172.87 156.49 173.573 156.198 174.09 155.68C174.608 155.161 174.9 154.458 174.901 153.725V139.019C174.9 138.286 174.608 137.583 174.09 137.064C173.573 136.546 172.87 136.254 172.138 136.253H172.137H144.564C143.832 136.254 143.129 136.546 142.611 137.064C142.093 137.583 141.801 138.286 141.801 139.019V153.725C141.801 154.458 142.093 155.161 142.611 155.68C143.129 156.198 143.831 156.49 144.563 156.491H172.137ZM143.421 137.875C143.724 137.571 144.135 137.4 144.564 137.4H172.137C172.566 137.4 172.977 137.571 173.28 137.875C173.584 138.178 173.755 138.59 173.755 139.02V153.725C173.755 154.154 173.584 154.566 173.28 154.87C172.977 155.174 172.566 155.344 172.137 155.345H144.564C144.135 155.344 143.724 155.174 143.421 154.87C143.117 154.566 142.947 154.154 142.946 153.725V139.02C142.947 138.59 143.117 138.178 143.421 137.875Z" fill="white" stroke="white" stroke-width="0.5"/>
<path d="M214.098 156.491C214.831 156.49 215.533 156.198 216.051 155.68C216.569 155.161 216.86 154.458 216.861 153.725V139.019C216.86 138.286 216.569 137.583 216.051 137.064C215.533 136.546 214.831 136.254 214.098 136.253H186.524C185.791 136.254 185.089 136.546 184.571 137.064C184.053 137.583 183.762 138.286 183.761 139.019V153.725C183.762 154.458 184.053 155.161 184.571 155.68C185.089 156.198 185.791 156.49 186.524 156.491H214.098ZM185.381 137.875C185.684 137.571 186.096 137.4 186.524 137.4H214.098C214.526 137.4 214.938 137.571 215.241 137.875C215.544 138.178 215.715 138.59 215.715 139.02V153.725C215.715 154.154 215.544 154.566 215.241 154.87C214.938 155.174 214.526 155.344 214.097 155.345H186.524C186.096 155.344 185.684 155.174 185.381 154.87C185.078 154.566 184.907 154.154 184.907 153.725V139.02C184.907 138.59 185.078 138.178 185.381 137.875Z" fill="white" stroke="white" stroke-width="0.5"/>
<path d="M130.177 198.822C130.91 198.822 131.612 198.53 132.13 198.011C132.648 197.493 132.939 196.79 132.94 196.057V196.056V181.351C132.939 180.617 132.648 179.914 132.13 179.396C131.612 178.877 130.91 178.586 130.177 178.585H102.603C101.87 178.586 101.168 178.877 100.65 179.396C100.132 179.914 99.8409 180.617 99.8401 181.351V196.056V196.057C99.8409 196.79 100.132 197.493 100.65 198.011C101.168 198.53 101.87 198.822 102.603 198.822H130.177ZM101.46 180.206C101.763 179.902 102.175 179.732 102.603 179.731H130.177C130.606 179.732 131.017 179.902 131.32 180.206C131.623 180.51 131.794 180.922 131.795 181.351V196.056C131.794 196.486 131.623 196.897 131.32 197.201C131.017 197.505 130.605 197.676 130.177 197.676H102.604C102.175 197.676 101.763 197.505 101.46 197.201C101.157 196.897 100.986 196.486 100.986 196.056V181.351C100.986 180.921 101.157 180.51 101.46 180.206Z" fill="white" stroke="white" stroke-width="0.5"/>
<path d="M172.137 198.822H172.138C172.87 198.822 173.573 198.53 174.09 198.011C174.608 197.493 174.9 196.79 174.901 196.057V196.056V181.351C174.9 180.617 174.608 179.914 174.09 179.396C173.573 178.877 172.87 178.586 172.138 178.585H172.137H144.564C143.832 178.586 143.129 178.877 142.611 179.396C142.093 179.914 141.801 180.617 141.801 181.351V196.056V196.057C141.801 196.79 142.093 197.493 142.611 198.011C143.129 198.53 143.831 198.822 144.563 198.822H172.137ZM143.421 180.206C143.724 179.902 144.135 179.732 144.564 179.731H172.137C172.566 179.732 172.977 179.902 173.28 180.206C173.584 180.51 173.755 180.922 173.755 181.351V196.056C173.755 196.486 173.584 196.897 173.28 197.201C172.977 197.505 172.566 197.676 172.137 197.676H144.564C144.135 197.676 143.724 197.505 143.421 197.201C143.117 196.897 142.947 196.486 142.946 196.056V181.351C142.947 180.921 143.117 180.51 143.421 180.206Z" fill="white" stroke="white" stroke-width="0.5"/>
<path d="M174.651 216.629C174.659 215.878 174.375 215.154 173.861 214.616C173.346 214.078 172.644 213.771 171.907 213.761H158.351V247.838H174.651V216.629Z" fill="#28519E"/>
<path d="M214.098 198.822C214.831 198.822 215.533 198.53 216.051 198.011C216.569 197.493 216.86 196.79 216.861 196.057V196.056V181.351C216.86 180.617 216.569 179.914 216.051 179.396C215.533 178.877 214.831 178.586 214.098 178.585H186.524C185.791 178.586 185.089 178.877 184.571 179.396C184.053 179.914 183.762 180.617 183.761 181.351V196.056V196.057C183.762 196.79 184.053 197.493 184.571 198.011C185.089 198.53 185.791 198.822 186.524 198.822H214.098ZM185.381 180.206C185.684 179.902 186.096 179.732 186.524 179.731H214.098C214.526 179.732 214.938 179.902 215.241 180.206C215.544 180.51 215.715 180.922 215.715 181.351V196.056C215.715 196.486 215.544 196.897 215.241 197.201C214.938 197.505 214.526 197.676 214.097 197.676H186.524C186.096 197.676 185.684 197.505 185.381 197.201C185.078 196.897 184.907 196.486 184.907 196.056V181.351C184.907 180.921 185.078 180.51 185.381 180.206Z" fill="white" stroke="white" stroke-width="0.5"/>
<path d="M1.07277 248.734H326.427L326.832 248.566C326.94 248.459 327 248.313 327 248.161C327 248.009 326.94 247.864 326.832 247.756C326.725 247.649 326.579 247.588 326.427 247.588H1.07277C0.920763 247.588 0.775047 247.649 0.66766 247.756C0.560279 247.864 0.5 248.009 0.5 248.161C0.5 248.313 0.560278 248.459 0.66766 248.567C0.775047 248.674 0.920763 248.734 1.07277 248.734Z" fill="white" stroke="white" stroke-width="0.5"/>
<path d="M158.673 247.765H158.923V247.515V214.232V213.982H158.673H144.794C143.915 213.983 143.072 214.333 142.45 214.955C141.828 215.577 141.479 216.421 141.478 217.301V247.515V247.765H141.728H158.673ZM157.778 246.619H142.623V217.302C142.624 216.725 142.853 216.173 143.26 215.765C143.667 215.358 144.219 215.129 144.794 215.128H157.778V246.619Z" fill="white" stroke="white" stroke-width="0.5"/>
<path d="M143.826 233.135C144.361 233.135 144.794 232.701 144.794 232.166C144.794 231.631 144.361 231.196 143.826 231.196C143.291 231.196 142.857 231.631 142.857 232.166C142.857 232.701 143.291 233.135 143.826 233.135Z" fill="white"/>
<path fill-rule="evenodd" clip-rule="evenodd" d="M40.2497 245.162C40.6166 245.38 41.0366 245.493 41.464 245.489C41.8914 245.493 42.3115 245.38 42.6784 245.162C43.0453 244.945 43.345 244.632 43.5445 244.257C49.182 233.896 62.2941 208.816 62.2941 199.71C62.2941 194.233 60.0995 188.98 56.1932 185.106C52.2868 181.233 46.9886 179.057 41.4642 179.057C35.9398 179.057 30.6416 181.233 26.7352 185.106C22.8288 188.98 20.6343 194.233 20.6343 199.71C20.6343 208.815 33.7462 233.896 39.3837 244.257C39.5832 244.632 39.8828 244.945 40.2497 245.162ZM36.2275 207.48C37.7776 208.507 39.6 209.055 41.4642 209.055C43.9632 209.053 46.359 208.067 48.126 206.315C49.8931 204.563 50.887 202.188 50.8899 199.71C50.8899 197.862 50.3371 196.055 49.3013 194.518C48.2656 192.981 46.7935 191.783 45.0712 191.076C43.3488 190.368 41.4536 190.183 39.6252 190.544C37.7968 190.905 36.1173 191.795 34.799 193.102C33.4808 194.409 32.5831 196.074 32.2194 197.887C31.8558 199.7 32.0424 201.579 32.7559 203.286C33.4693 204.994 34.6774 206.454 36.2275 207.48Z" fill="#007FD3"/>
<path fill-rule="evenodd" clip-rule="evenodd" d="M271.92 121.325C277.777 127.632 283.953 139.701 290.214 162.237C295.289 180.508 291.222 192.407 283.831 199.776C276.512 207.073 266.111 209.749 258.785 210.004L258.767 210.005H258.75C247.61 210.005 238.67 203.839 235.543 200.712L235.25 200.419V138.505C235.25 138.207 235.322 137.878 235.409 137.577C235.5 137.256 235.63 136.89 235.79 136.49C236.111 135.688 236.572 134.705 237.145 133.611C238.292 131.422 239.911 128.74 241.815 126.107C243.716 123.477 245.922 120.865 248.249 118.837C250.556 116.827 253.089 115.295 255.64 115.011C257.959 114.753 260.55 114.712 263.318 115.565C266.094 116.42 268.974 118.152 271.92 121.325ZM262.729 117.476C260.325 116.736 258.041 116.757 255.86 116.999C253.911 117.215 251.756 118.433 249.563 120.345C247.39 122.239 245.284 124.721 243.435 127.278C241.589 129.832 240.021 132.432 238.917 134.539C238.365 135.594 237.936 136.513 237.647 137.233C237.503 137.594 237.398 137.893 237.332 138.126C237.298 138.242 237.277 138.335 237.264 138.405C237.252 138.47 237.25 138.501 237.25 138.505C237.25 138.505 237.25 138.505 237.25 138.505L237.25 199.583C240.372 202.537 248.615 207.999 258.733 208.005C265.738 207.757 275.577 205.182 282.419 198.359C289.195 191.603 293.211 180.501 288.286 162.773C282.047 140.309 275.973 128.628 270.455 122.685C267.714 119.733 265.125 118.215 262.729 117.476Z" fill="white"/>
<path fill-rule="evenodd" clip-rule="evenodd" d="M291.582 247.005C291.17 244.564 290.009 242.293 288.235 240.52C285.985 238.269 282.933 237.005 279.75 237.005C276.567 237.005 273.515 238.269 271.265 240.52C269.491 242.293 268.33 244.564 267.918 247.005L291.582 247.005ZM293.606 247.005C293.177 244.031 291.799 241.255 289.649 239.106C287.024 236.48 283.463 235.005 279.75 235.005C276.037 235.005 272.476 236.48 269.851 239.106C267.701 241.255 266.323 244.031 265.894 247.005C265.798 247.664 265.75 248.332 265.75 249.005L293.75 249.005C293.75 248.332 293.702 247.664 293.606 247.005Z" fill="white"/>
<path fill-rule="evenodd" clip-rule="evenodd" d="M243.543 170.798C243.933 170.407 244.567 170.407 244.957 170.798L257.75 183.591V172.505C257.75 171.953 258.198 171.505 258.75 171.505C259.302 171.505 259.75 171.953 259.75 172.505V248.005C259.75 248.557 259.302 249.005 258.75 249.005C258.198 249.005 257.75 248.557 257.75 248.005V186.419L243.543 172.212C243.152 171.822 243.152 171.188 243.543 170.798Z" fill="white"/>
<path fill-rule="evenodd" clip-rule="evenodd" d="M270.973 186.814C271.354 187.213 271.34 187.846 270.941 188.228L259.441 199.228C259.042 199.609 258.409 199.595 258.027 199.196C257.646 198.797 257.66 198.164 258.059 197.782L269.559 186.782C269.958 186.401 270.591 186.415 270.973 186.814Z" fill="white"/>
<path fill-rule="evenodd" clip-rule="evenodd" d="M279.75 239.255C280.164 239.255 280.5 239.591 280.5 240.005V244.999C280.5 245.003 280.5 245.008 280.5 245.012V248.005C280.5 248.419 280.164 248.755 279.75 248.755C279.336 248.755 279 248.419 279 248.005V245.365L274.282 241.591C273.958 241.332 273.906 240.86 274.164 240.536C274.423 240.213 274.895 240.161 275.219 240.419L279 243.445V240.005C279 239.591 279.336 239.255 279.75 239.255Z" fill="white"/>
</svg>
