<svg width="11" height="16" viewBox="0 0 11 16" fill="none" xmlns="http://www.w3.org/2000/svg">
<path d="M6.86667 16L0.888889 9.77778V8H4C4.78519 8 5.46296 7.74444 6.03333 7.23333C6.6037 6.72222 6.94815 6.08889 7.06667 5.33333H0V3.55556H6.8C6.54815 3.03704 6.17407 2.61111 5.67778 2.27778C5.18148 1.94444 4.62222 1.77778 4 1.77778H0V0H10.6667V1.77778H7.77778C7.98519 2.02963 8.17037 2.3037 8.33333 2.6C8.4963 2.8963 8.62222 3.21481 8.71111 3.55556H10.6667V5.33333H8.86667C8.74815 6.59259 8.22963 7.64815 7.31111 8.5C6.39259 9.35185 5.28889 9.77778 4 9.77778H3.35556L9.33333 16H6.86667Z" fill="#343435"/>
</svg>
