<svg width="40" height="40" viewBox="0 0 40 40" fill="none" xmlns="http://www.w3.org/2000/svg">
<g clip-path="url(#clip0_891_8547)">
<rect width="40" height="40" rx="20" fill="#E9ECEB"/>
<path d="M18.4012 7.01325C15.3839 7.68488 13.0282 9.92031 12.126 12.9677C11.9255 13.6494 11.8954 13.9902 11.8653 16.5765C11.8252 19.7743 11.8453 19.9046 12.5269 20.3557C12.8377 20.5662 12.9881 20.5862 14.0707 20.5862H15.2736L15.7949 20.9772C17.92 22.5811 20.8572 22.8818 23.2129 21.739C23.5938 21.5486 24.1552 21.2178 24.4459 20.9872L24.9672 20.5862H26.2102C27.3229 20.5862 27.4733 20.5662 27.784 20.3557C28.4657 19.9046 28.4857 19.7843 28.4456 16.4762C28.4155 13.7195 28.3955 13.4689 28.185 12.8173C27.2627 10.0206 25.1476 7.92546 22.441 7.14356C21.4486 6.86288 19.3936 6.79271 18.4012 7.01325ZM23.9146 13.3787C24.4258 13.89 25.9796 15.0027 26.3706 15.123C26.5811 15.1931 26.5911 15.2332 26.5209 15.8648C26.1801 19.0425 23.664 21.4784 20.5164 21.6588C19.3335 21.719 18.3611 21.5185 17.2484 20.9772C16.1056 20.4158 14.9629 19.2831 14.4215 18.1804C14.0105 17.3484 13.7399 16.366 13.7399 15.6743V15.2132L14.7824 15.2533C16.4966 15.3234 18.5416 15.0227 20.1655 14.4613C20.9173 14.2007 22.3608 13.489 22.8621 13.1281C23.0525 12.9878 23.263 12.8775 23.3131 12.8675C23.3733 12.8675 23.644 13.098 23.9146 13.3787Z" fill="#8E8E8F"/>
<path d="M16.216 23.2026C12.6974 24.7063 10.2315 28.2649 9.79039 32.4852L9.72021 43.1167H20.0052H30.2802V32.7759C30.2802 32.2245 29.9995 30.781 29.7188 29.8889C28.987 27.5732 27.3932 25.3979 25.4685 24.0948C24.8369 23.6738 23.5638 23.0322 23.233 22.9721C23.0727 22.942 22.8621 23.5033 21.6592 27.1322C20.8974 29.4378 20.2558 31.3424 20.2358 31.3725C20.2057 31.3925 19.4739 29.528 18.6018 27.2324C17.7297 24.9268 16.9879 23.0121 16.9578 22.9721C16.9277 22.932 16.5869 23.0422 16.216 23.2026Z" fill="#8E8E8F"/>
</g>
<rect x="0.5" y="0.5" width="39" height="39" rx="19.5" stroke="#E9ECEB"/>
<defs>
<clipPath id="clip0_891_8547">
<rect width="40" height="40" rx="20" fill="white"/>
</clipPath>
</defs>
</svg>
