<svg width="16" height="17" viewBox="0 0 16 17" fill="none" xmlns="http://www.w3.org/2000/svg">
<path d="M8.00033 5.83341C8.70757 5.83341 9.38585 6.11437 9.88594 6.61446C10.386 7.11456 10.667 7.79284 10.667 8.50008C10.667 9.20732 10.386 9.8856 9.88594 10.3857C9.38585 10.8858 8.70757 11.1667 8.00033 11.1667C7.29308 11.1667 6.6148 10.8858 6.11471 10.3857C5.61461 9.8856 5.33366 9.20732 5.33366 8.50008C5.33366 7.79284 5.61461 7.11456 6.11471 6.61446C6.6148 6.11437 7.29308 5.83341 8.00033 5.83341ZM2.03366 9.16675H0.666992V7.83341H2.03366C2.33366 5.05341 4.55366 2.83341 7.33366 2.53341V1.16675H8.66699V2.53341C11.447 2.83341 13.667 5.05341 13.967 7.83341H15.3337V9.16675H13.967C13.667 11.9467 11.447 14.1667 8.66699 14.4667V15.8334H7.33366V14.4667C4.55366 14.1667 2.33366 11.9467 2.03366 9.16675ZM8.00033 3.83341C6.76265 3.83341 5.57566 4.32508 4.70049 5.20025C3.82532 6.07542 3.33366 7.2624 3.33366 8.50008C3.33366 9.73776 3.82532 10.9247 4.70049 11.7999C5.57566 12.6751 6.76265 13.1667 8.00033 13.1667C9.238 13.1667 10.425 12.6751 11.3002 11.7999C12.1753 10.9247 12.667 9.73776 12.667 8.50008C12.667 7.2624 12.1753 6.07542 11.3002 5.20025C10.425 4.32508 9.238 3.83341 8.00033 3.83341Z" fill="#007FD3"/>
</svg>
