<svg width="241" height="152" viewBox="0 0 241 152" fill="none" xmlns="http://www.w3.org/2000/svg">
<g opacity="0.1">
<path fill-rule="evenodd" clip-rule="evenodd" d="M62.9932 5.24312C62.9932 2.18762 63.1575 1.58743 64.1982 0.878115C65.2938 0.114238 68.8543 0.00511303 92.4082 0.00511303C94.3438 0.00511303 96.1517 0.00366049 97.8403 0.00230381C115.842 -0.012159 120.284 -0.0157279 121.33 1.86748C121.673 2.48445 121.651 3.30392 121.622 4.39187C121.614 4.7229 121.604 5.07878 121.604 5.46137V8.73513H92.2987H62.9932V5.24312ZM53.2429 55.0042C53.4073 17.4106 53.462 16.2648 54.448 15.5009C55.3792 14.8461 61.4046 14.737 92.2439 14.737C114.483 14.737 129.328 14.9553 129.821 15.2826C130.272 15.5591 130.503 18.9643 130.668 36.2223C123.501 44.2635 119.146 54.8652 119.146 66.4841C119.146 78.2695 123.627 89.0084 130.977 97.0901L131.19 148.688H134.203H137.216L137.443 102.96C139.682 104.633 142.08 106.104 144.61 107.347V110.767H147.623H150.636V109.786C155.049 111.213 159.757 111.984 164.646 111.984C168.259 111.984 171.773 111.563 175.143 110.767H177.476V110.15C180.343 109.309 183.092 108.194 185.693 106.834V148.961H191.992H198.292V151.962V154.963H99.1458H0V151.962V148.961H8.76427H17.5285V144.16V139.358L15.7757 138.703C10.8458 136.957 7.12097 131.446 7.12097 125.936C7.12097 123.426 7.83306 120.861 10.4076 113.659C12.2152 108.639 14.0776 103.947 14.5706 103.238C15.8852 101.219 19.8839 99.691 22.5132 100.128C26.6762 100.837 27.9909 102.637 31.7157 112.95C33.5233 118.024 35.1666 123.153 35.3857 124.299C36.2622 129.7 32.2087 136.303 26.5667 138.649L23.4992 139.904L23.6635 144.269L23.8279 148.688L38.508 148.852L53.1334 148.961V144.432V139.904L50.1207 138.649C46.8341 137.285 43.657 134.175 42.2876 131.01C40.6443 127.136 41.1921 123.371 44.8621 113.223C48.5869 102.91 50.1207 100.837 54.2289 100.128C56.8582 99.691 60.8569 101.273 62.1715 103.347C62.6645 104.111 64.5817 108.803 66.3345 113.768C68.8543 120.807 69.5664 123.426 69.5664 125.936C69.5664 131.446 65.8416 136.957 60.9664 138.703L59.1588 139.358V144.16V148.961H62.1715H65.1842V146.342C65.1842 143.832 65.2938 143.614 67.6492 141.923C68.9638 140.995 70.6071 139.413 71.3192 138.431L72.5791 136.685L72.853 142.686L73.1269 148.688L76.03 148.852L78.8784 149.016V137.558V126.045H84.0822H89.286V137.503V148.961H92.2987H95.3114V137.503V126.045H100.241H105.171L105.281 137.339L105.445 148.688H108.458H111.471V135.157C111.471 122.335 111.416 121.571 110.43 120.807C109.553 120.207 106.157 120.043 92.2987 120.043H75.3179L73.7294 115.787C72.853 113.495 72.0313 111.258 71.9218 110.876C71.7027 110.385 73.4007 110.222 79.3166 110.222C79.8628 110.222 80.3774 110.224 80.8623 110.226C84.5336 110.241 86.4994 110.249 87.5496 109.273C88.76 108.147 88.754 105.713 88.7411 100.474V100.473V100.471V100.469V100.468C88.7397 99.897 88.7382 99.2933 88.7382 98.6543C88.7382 97.9331 88.7409 97.2575 88.7435 96.6246C88.7623 91.9497 88.7717 89.6092 87.6061 88.442C86.4376 87.2719 84.0879 87.2813 79.3823 87.3001H79.3795C78.745 87.3026 78.0677 87.3053 77.3447 87.3053L77.0376 87.3053H77.0375C70.1998 87.305 67.4975 87.3049 66.4296 88.626C65.7318 89.4892 65.7319 90.9165 65.732 93.2765V93.3618V97.6722L62.7193 95.9808C60.6378 94.835 58.6658 94.1802 56.42 94.0165L53.1334 93.6891L53.2429 55.0042ZM88.7382 38.0898C88.7382 29.6326 88.6286 28.8142 87.6427 27.8321C86.6567 26.8499 85.835 26.7408 77.3447 26.7408C69.9498 26.7408 67.9231 26.9045 66.9371 27.6138C65.7868 28.4322 65.732 28.7051 65.732 38.4172C65.732 45.4012 65.9511 48.5658 66.3893 49.0023C66.8275 49.4389 70.0046 49.6571 77.016 49.6571C86.7662 49.6571 87.0401 49.6025 87.8618 48.4567C88.5739 47.4746 88.7382 45.4558 88.7382 38.0898ZM118.865 37.9807C118.865 28.7596 118.811 28.4322 117.66 27.6138C116.674 26.9045 114.648 26.7408 107.253 26.7408C106.496 26.7408 105.788 26.7377 105.128 26.7347C100.493 26.7141 98.1639 26.7037 96.9984 27.8633C95.8209 29.0348 95.8315 31.4005 95.8528 36.1564C95.8559 36.8411 95.8592 37.5753 95.8592 38.3626C95.8592 46.8744 95.9687 47.9657 96.8452 48.7295C97.7216 49.548 99.3101 49.6571 107.8 49.6571C117.058 49.6571 117.77 49.6025 118.318 48.6204C118.646 47.9657 118.865 43.5461 118.865 37.9807ZM88.7382 68.8631C88.7382 61.4972 88.5739 59.4784 87.8618 58.4962C87.0401 57.3504 86.7662 57.2959 77.016 57.2959C70.0046 57.2959 66.8275 57.5141 66.3893 57.9506C65.9511 58.3871 65.732 61.5518 65.732 68.4812C65.732 77.4295 65.8416 78.5207 66.718 79.2846C67.5944 80.0485 69.1829 80.2122 77.1255 80.2122C77.9125 80.2122 78.6464 80.2155 79.3307 80.2185C84.089 80.2398 86.4527 80.2503 87.6217 79.0738C88.7755 77.9124 88.7651 75.5942 88.7444 70.9876C88.7414 70.3275 88.7382 69.6205 88.7382 68.8631ZM118.865 68.754C118.865 60.6242 118.701 58.8782 117.989 58.1689C117.277 57.4596 115.524 57.2959 107.417 57.2959C98.6528 57.2959 97.5572 57.405 96.7904 58.278C96.0235 59.151 95.8592 60.7333 95.8592 68.6449C95.8592 69.4288 95.8559 70.1598 95.8528 70.8415C95.8315 75.5689 95.8209 77.9235 96.9929 79.0909C98.1558 80.2494 100.483 80.239 105.12 80.2183H105.122H105.123H105.125H105.127H105.129H105.132C105.791 80.2153 106.497 80.2122 107.253 80.2122C108.086 80.2122 108.86 80.216 109.579 80.2196C114.289 80.2431 116.625 80.2547 117.778 79.0923C118.913 77.948 118.9 75.6658 118.874 71.1368V71.1361V71.1353V71.1346V71.1338V71.1329V71.1319V71.131C118.87 70.3989 118.865 69.6081 118.865 68.754ZM118.865 98.9817C118.865 89.2696 118.811 88.9968 117.66 88.1783C116.674 87.469 114.648 87.3053 107.253 87.3053C106.496 87.3053 105.788 87.3022 105.128 87.2992C100.493 87.2786 98.1639 87.2683 96.9984 88.4278C95.8209 89.5993 95.8315 91.965 95.8528 96.7209C95.8559 97.4056 95.8592 98.1398 95.8592 98.9272C95.8592 107.439 95.9687 108.53 96.8452 109.294C97.7216 110.112 99.3101 110.222 107.691 110.222C114.648 110.222 117.77 110.003 118.208 109.567C118.646 109.13 118.865 105.966 118.865 98.9817ZM177.476 134.829C177.476 120.807 177.476 120.643 176.271 119.825C175.231 119.061 172.82 118.952 161.043 118.952C149.266 118.952 146.856 119.061 145.815 119.825C144.61 120.643 144.61 120.807 144.61 134.829V148.961H147.623H150.636V142.686V136.412H161.043H171.396L171.561 142.523L171.725 148.688L174.628 148.852L177.476 149.016V134.829ZM71.7573 38.199V43.6552H77.235H82.7674L82.6031 38.3081L82.4388 33.0155L77.1254 32.8518L71.7573 32.6882V38.199ZM101.885 38.5809C101.885 35.7437 102.049 33.2883 102.268 33.1247C102.432 32.9064 104.897 32.7427 107.746 32.7427H112.84V38.199V43.6552H107.362H101.885V38.5809ZM71.7573 68.754V74.2649L77.1254 74.1012L82.4388 73.9375L82.6031 68.5903L82.7674 63.2978H77.235H71.7573V68.754ZM101.885 74.2103V68.754V63.2978H107.362H112.84V68.754V74.2103H107.362H101.885ZM102.268 93.6891C102.049 93.8528 101.885 96.3081 101.885 99.1454V104.22H107.362H112.84V98.7635V93.3072H107.746C104.897 93.3072 102.432 93.4709 102.268 93.6891ZM150.636 130.41V127.682V124.954H161.043H171.451V127.682V130.41H161.043H150.636ZM71.7573 99.0363V104.22H77.235H82.7127V99.0363V93.8528H77.235H71.7573V99.0363Z" fill="#B2B2B3"/>
<path d="M150.041 26.5344C141.788 30.7315 135.491 37.1104 131.484 45.4142C126.219 56.3057 125.753 67.1951 130.142 78.3452C136.802 95.3437 153.224 105.576 171.729 104.288C174.869 104.083 175.584 103.906 181.572 101.834C187.56 99.7615 188.231 99.4585 190.806 97.7205C194.542 95.1571 198.225 91.7295 200.791 88.3358L202.921 85.5166L218.702 93.1825L234.515 100.837L236.575 96.5953L238.636 92.3531L222.94 84.7284C214.317 80.5136 207.211 77.0092 207.157 76.8516C207.113 76.7255 207.314 75.8795 207.588 74.9377C209.042 70.1646 209.603 63.9358 209.048 58.7638C208.566 54.4136 206.53 47.9192 204.525 44.1665C196.207 28.8006 179.796 20.4353 162.484 22.7217C159.177 23.1603 152.893 25.0885 150.041 26.5344ZM166.691 31.8174C177.822 31.3524 188.473 36.7357 194.472 45.8108C200.376 54.8132 201.421 65.0735 197.489 75.3276C195.553 80.3383 190.571 86.4385 185.684 89.7533C182.366 91.9955 174.834 94.6024 170.872 94.8798C163.073 95.3909 155.094 93.0355 149.125 88.4317C140.155 81.4789 135.689 70.9202 136.973 59.6418C137.933 51.4046 142.056 43.9432 148.598 38.6794C151.795 36.0905 153.745 35.0979 158.8 33.4897C162.835 32.199 164.045 31.9215 166.691 31.8174Z" fill="#B2B2B3"/>
</g>
</svg>
