<svg width="487" height="120" viewBox="0 0 487 120" fill="none" xmlns="http://www.w3.org/2000/svg">
<g clip-path="url(#clip0_891_8573)">
<path fill-rule="evenodd" clip-rule="evenodd" d="M679.6 138.6L679 138.7L678.7 137.9C678.2 136.6 677.2 135.8 675.9 135.8C675.7 135.8 675.433 135.833 675.1 135.9L674.2 136.2L673.9 135.3C673.1 133 671.2 131.4 669.1 131.4C668.367 131.4 667.667 131.567 667 131.9L665.8 132.5L665.6 131.2C665.3 129.5 664 128.4 662.6 128.4C661.933 128.4 661.333 128.633 660.8 129.1L659.6 130.2L659.2 128.6C658.8 127 657.6 126 656.3 126C654.7 126 653.3 127.5 653.2 129.5V130.7L652 130.5C651.733 130.433 651.5 130.4 651.3 130.4C649.4 130.4 647.7 131.8 647.1 134L647 134.6L646.3 134.7C645 135 643.8 136.4 643.8 138.2C643.8 138.6 643.867 139 644 139.4L644.3 140.4L643.4 140.7C642 141.1 640.9 142.4 640.5 144L640.3 144.6L639.6 144.7C635 145.3 630.433 145.9 625.9 146.5L624.8 146.6L624.1 146.7C621.567 146.967 619 147.267 616.4 147.6C614 147.867 611.6 148.133 609.2 148.4L608.1 148.5V64.4H607.9H582.1H581.3V97.5H570.6V64.4H570.4H544.6H543.8V139.3C543.8 139.3 543.833 139.3 543.9 139.3C544.5 139.567 545.067 139.933 545.6 140.4C545.667 140.467 545.7 140.5 545.7 140.5C545.967 140.7 546.2 140.933 546.4 141.2C546.467 141.267 546.533 141.333 546.6 141.4C546.733 141.6 546.9 141.8 547.1 142C547.1 142.067 547.133 142.133 547.2 142.2C547.333 142.467 547.467 142.733 547.6 143C547.667 143.133 547.733 143.267 547.8 143.4C547.867 143.6 547.933 143.833 548 144.1C548.067 144.167 548.1 144.267 548.1 144.4C548.233 144.667 548.3 144.967 548.3 145.3C548.367 145.433 548.4 145.533 548.4 145.6C548.4 145.933 548.4 146.267 548.4 146.6C548.4 146.667 548.4 146.7 548.4 146.7C548.4 146.7 548.4 146.733 548.4 146.8C550.5 147.8 552.2 149.5 553.1 151.7L553.7 153.1H552.3C536.2 154.1 520.2 154.7 504.2 154.9C501.667 154.9 499.133 154.933 496.6 155C496.467 155 496.333 155 496.2 155C493.533 155 490.833 155 488.1 155C487.167 155 486.233 155 485.3 155H484.1H484C483.133 155 482.3 155 481.5 155C480.9 155 480.333 155 479.8 155H478.7V112.9L460.2 88.1H439.7V154L438.6 153.9C435.333 153.767 432.1 153.633 428.9 153.5C428.833 153.5 428.8 153.5 428.8 153.5L427.8 153.4V112.9L409.3 88.1H388.8V150.8L387.7 150.7H387.6C383.333 150.367 379.067 150 374.8 149.6C374.733 149.6 374.667 149.6 374.6 149.6C373 149.4 371.367 149.233 369.7 149.1L368.4 149C366.2 148.8 364.033 148.567 361.9 148.3H361.8H361.6C357.667 147.9 353.733 147.5 349.8 147.1C349.733 147.1 349.667 147.067 349.6 147C349.267 147 348.933 146.967 348.6 146.9H348.4C348.2 146.9 348 146.867 347.8 146.8C347.733 146.8 347.7 146.8 347.7 146.8C344.167 146.4 340.633 146 337.1 145.6C336.5 145.533 335.9 145.467 335.3 145.4L334.4 145.3C329.6 144.7 324.8 144.1 320 143.5C319.933 143.5 319.867 143.5 319.8 143.5L319.7 142.6L319.3 142.7C319.1 142.1 318.967 141.467 318.9 140.8C318.9 140.733 318.9 140.667 318.9 140.6C318.9 139.933 319 139.267 319.2 138.6C319.2 138.6 319.2 138.567 319.2 138.5C319.267 138.367 319.333 138.233 319.4 138.1C320 136.4 321.4 135 323.1 134.4C323.4 133.5 323.9 132.6 324.5 131.8H323.8V124.4H327.1V129.7C327.9 129.367 328.767 129.167 329.7 129.1V124.4H333V124.7C333.4 124.433 333.833 124.233 334.3 124.1C334.367 124.1 334.4 124.1 334.4 124.1V74.1H331.2V59.4H328.4V45.2H326.6H317.3H316.1V59.4H313.4V74.1H310.2V142.2L309 142.1C304.267 141.433 299.467 140.767 294.6 140.1L294 140L292.8 139.8C291.2 139.6 289.567 139.367 287.9 139.1C286.1 138.833 284.3 138.567 282.5 138.3C279.3 137.833 276.067 137.333 272.8 136.8L272.1 136.7L271 136.6C270.867 136.533 270.7 136.5 270.5 136.5C267.567 136.033 264.633 135.567 261.7 135.1L260.8 135V73H257.6V58.2H239.8V73H236.6V131.5L235.5 131.3C233.167 130.967 230.867 130.633 228.6 130.3C226.667 130.1 224.7 129.867 222.7 129.6C221.367 129.4 220.033 129.2 218.7 129L217.8 128.9V73H214.6V58.2H196.8V73H193.6V125.9L192.5 125.8C192.3 125.8 192.1 125.767 191.9 125.7C185.1 124.967 178.333 124.233 171.6 123.5H170.7V109.8C170.3 109.467 169.967 109.033 169.7 108.5C169.633 108.5 169.6 108.467 169.6 108.4C169.533 108.333 169.5 108.3 169.5 108.3C169.433 108.233 169.4 108.167 169.4 108.1C169.2 107.767 169.033 107.467 168.9 107.2C168.9 107.133 168.867 107.067 168.8 107C168.667 106.6 168.533 106.167 168.4 105.7C168.333 105.633 168.3 105.533 168.3 105.4C168.167 105.067 168.067 104.733 168 104.4C168 104.267 167.967 104.1 167.9 103.9C167.833 103.5 167.767 103.067 167.7 102.6C167.7 102.6 167.7 102.567 167.7 102.5C167.633 101.9 167.6 101.333 167.6 100.8C167.6 98 168.3 95.6 169.7 94.1C169.633 93.9666 169.6 93.8333 169.6 93.7C169.6 93.4333 169.6 93.1333 169.6 92.8C169.6 92.8 169.6 92.7667 169.6 92.7C169.6 92.6333 169.6 92.5667 169.6 92.5C169.6 92.4333 169.6 92.3667 169.6 92.3C169.667 91.8333 169.7 91.3667 169.7 90.9C169.767 90.7 169.8 90.4667 169.8 90.2C169.867 89.9333 169.933 89.6667 170 89.4C170.067 89.2 170.133 88.9667 170.2 88.7C170.267 88.5 170.333 88.2667 170.4 88C170.467 87.8 170.533 87.6 170.6 87.4C170.667 87.2667 170.7 87.1666 170.7 87.1V58.8H167.5V52.7H116.9V58.8H113.6V103.5C114.067 103.3 114.567 103.2 115.1 103.2C116.7 103.2 117.9 104 118.7 105.3C119.1 105.1 119.567 105 120.1 105C121.8 105 123.1 106.1 123.8 107.5C124.2 107.433 124.633 107.4 125.1 107.4C127.4 107.4 129.3 108.8 130.2 110.8C130.267 110.8 130.367 110.8 130.5 110.8C131.5 110.8 132.4 111.2 133.2 111.9C134 110.3 135.6 109.2 137.4 109.2C137.9 107.3 139.4 105.8 141.4 105.8C143 105.8 144.2 106.7 145 107.9C145.4 107.7 145.867 107.6 146.4 107.6C148.1 107.6 149.4 108.7 150.1 110.2C150.5 110.067 150.933 110 151.4 110C153.7 110 155.6 111.4 156.5 113.4C156.567 113.4 156.667 113.4 156.8 113.4C159 113.4 160.8 115.3 160.9 117.6C162.3 118.4 163.3 119.8 163.6 121.5L163.9 122.8L162.5 122.7C151.9 121.633 141.367 120.733 130.9 120C124.433 119.533 117.967 119.133 111.5 118.8C105.233 118.467 98.9667 118.167 92.7 117.9L92.8 116.9L92.7 117.6C78.3 117 63.9667 116.7 49.7 116.7C49.5 116.7 49.3 116.7 49.1 116.7V116.1L48.4 116C48.4 114.2 49.5 112.7 51 111.9C51.0667 111.833 51.1333 111.8 51.2 111.8C51.1333 111.467 51.1 111.133 51.1 110.8C51.1 109.4 51.6 108.1 52.4 107.1H52.2V99.6H55.5V103.7C56.2 102.8 57.1 102 58.1 101.5V99.6H61.1C61.5 98.8 62.1 98 62.8 97.5V49.3H59.6V34.6H56.9V33.6C56.9 30.2 54.1 27.4 50.7 27.4C47.3 27.4 44.5 30.2 44.5 33.6V34.6H41.8V49.3H38.6V117.1H37.6C35.0667 117.1 32.5 117.133 29.9 117.2H28.9V49.3H25.7V34.6H23V33.6C23 30.2 20.2 27.4 16.8 27.4C13.4 27.4 10.6 30.2 10.6 33.6V34.6H7.89999V49.3H4.7V118L3.7 118.1C3.56667 118.1 3.39999 118.1 3.2 118.1C2 118.167 0.833328 118.233 -0.300003 118.3C-2.7 118.367 -5.10001 118.5 -7.5 118.7H-7.89999L-8.2 118.4C-8.86667 117.8 -9.59999 117.333 -10.4 117L-11.2 116.8L-11.1 116C-11.0333 115.733 -11 115.533 -11 115.4C-11 114.733 -11.1 114.133 -11.3 113.6V113.5C-11.3 113.5 -11.3 113.467 -11.3 113.4C-11.5 112.8 -11.7333 112.3 -12 111.9C-12.0667 111.833 -12.1 111.767 -12.1 111.7C-12.2333 111.5 -12.4 111.333 -12.6 111.2C-12.6 111.133 -12.6333 111.067 -12.7 111C-12.8333 110.867 -12.9667 110.767 -13.1 110.7C-13.1667 110.633 -13.2333 110.567 -13.3 110.5C-13.4333 110.367 -13.6 110.233 -13.8 110.1C-13.8667 110.1 -13.9667 110.067 -14.1 110C-14.1667 109.933 -14.2667 109.867 -14.4 109.8C-14.5333 109.8 -14.6333 109.767 -14.7 109.7C-14.9 109.633 -15.1 109.6 -15.3 109.6C-15.3667 109.533 -15.4333 109.5 -15.5 109.5C-15.7 109.5 -15.9333 109.5 -16.2 109.5C-16.5333 109.5 -16.8667 109.533 -17.2 109.6C-17.3333 109.667 -17.4667 109.7 -17.6 109.7L-18.6 110L-18.7 109.5L-18.9 109.1C-18.9667 108.833 -19.0333 108.567 -19.1 108.3C-19.1667 108.233 -19.2 108.167 -19.2 108.1C-19.2667 107.967 -19.3333 107.833 -19.4 107.7C-19.4667 107.567 -19.5333 107.433 -19.6 107.3C-19.6667 107.233 -19.7333 107.133 -19.8 107C-19.8667 106.867 -19.9333 106.767 -20 106.7C-20.0667 106.567 -20.1333 106.467 -20.2 106.4C-20.2667 106.267 -20.3333 106.167 -20.4 106.1C-20.4667 105.967 -20.5333 105.867 -20.6 105.8C-20.6667 105.667 -20.7333 105.567 -20.8 105.5C-20.9333 105.433 -21.0333 105.333 -21.1 105.2C-21.1667 105.133 -21.2333 105.067 -21.3 105C-21.4333 104.933 -21.5333 104.833 -21.6 104.7C-21.6667 104.633 -21.7667 104.567 -21.9 104.5C-21.9667 104.433 -22.0667 104.367 -22.2 104.3C-23.5 103.3 -25 102.7 -26.7 102.7C-27.9 102.7 -29 103.1 -30.1 103.6L-31.3 104.2L-31.5 102.9C-32 100.1 -34.2 98.1 -36.6 98.2C-37.8 98.2 -38.8 98.6 -39.7 99.4L-41 100.5L-41.4 98.9C-42 96.3 -44 94.5 -46.3 94.5C-49.1 94.4 -51.5 97 -51.5 100.3V101.6L-52.7 101.3C-53.1667 101.233 -53.6 101.2 -54 101.2C-57.2 101.2 -60 103.6 -60.9 107.1L-61 107.7L-61.6 107.8C-63.9 108.3 -65.8 110.5 -65.9 113.4L-66.2 113.5C-66.2667 113.567 -66.3 113.667 -66.3 113.8L-71.3 123.1C-71.3667 123.233 -71.4667 123.333 -71.6 123.4C-71.6 123.467 -71.6 123.567 -71.6 123.7L-71.7 124.2L-72.2 124.3C-74.4 124.567 -76.5667 124.833 -78.7 125.1C-80.2333 125.3 -81.7667 125.5 -83.3 125.7C-86.3 126.1 -89.3333 126.533 -92.4 127C-93.7333 127.2 -95.0667 127.4 -96.4 127.6C-99.0667 128 -101.767 128.4 -104.5 128.8L-105.4 129L-105.3 128C-104.967 126.467 -104.633 124.967 -104.3 123.5H-110.8L-106.5 128C-106.2 128.3 -106.2 128.8 -106.5 129C-106.633 129.133 -106.8 129.2 -107 129.2C-107.2 129.2 -107.367 129.133 -107.5 129L-112.2 124C-113.867 126.4 -115.7 128.733 -117.7 131L-117.9 131.3L-118.3 131.4C-120.9 131.8 -123.8 132.3 -126.8 132.7L-128 132.9V123.4C-128.067 123.4 -128.133 123.4 -128.2 123.4C-128.267 123.4 -128.3 123.4 -128.3 123.4C-128.367 123.4 -128.4 123.4 -128.4 123.4V133L-129.3 133.1C-136.6 134.3 -144.3 135.5 -150 136.5V134.5C-144.4 133.5 -137.4 132.4 -130.4 131.3V123.4C-133.2 123.1 -135.8 122.2 -138 120.8C-141.8 120.5 -144.9 116.9 -145.6 112.5C-145.733 111.833 -145.8 111.233 -145.8 110.7C-145.8 107.8 -144.6 105.2 -142.6 103.8C-142.667 103.467 -142.7 103.1 -142.7 102.7C-142.7 102.567 -142.7 102.467 -142.7 102.4C-142.5 97.7 -139.5 93.7 -135.5 93.4C-134.7 89.8 -132 87 -128.6 87C-125.2 87 -122.6 89.8 -121.7 93.4C-117.7 93.7 -114.7 97.7 -114.6 102.4C-114.6 102.467 -114.6 102.567 -114.6 102.7C-114.6 103.1 -114.6 103.467 -114.6 103.8C-112.6 105.2 -111.5 107.8 -111.5 110.7C-111.5 111.233 -111.533 111.8 -111.6 112.4C-112.3 116.9 -115.5 120.5 -119.3 120.8C-121.3 122.1 -123.6 122.9 -126 123.3V130.6C-123.5 130.2 -121.2 129.8 -118.9 129.5C-96.6 103.7 -96.6 68.4 -95.6 34.9V33.9H-93.2C-92.8 31.1 -90.6 28.9 -87.8 28.5V11H-85.8V28.5C-83 28.9 -80.9 31.1 -80.4 33.9H-78.5L-78.4 34.9C-77.7 60.7 -77.5 87.6 -67.3 110.3C-66.4 108.2 -64.7 106.6 -62.6 106C-61.4 102.1 -58.1 99.2 -54 99.2C-53.8 99.2 -53.6 99.2 -53.4 99.2C-52.9 95.4 -50 92.5 -46.3 92.5C-43.4 92.5 -41 94.4 -39.8 97C-38.9 96.5 -37.8 96.2 -36.6 96.2C-33.5 96.2 -30.9 98.3 -29.9 101.3C-28.9 100.967 -27.8333 100.767 -26.7 100.7C-25.4 100.7 -24.1 101 -23 101.5C-23 101.5 -23 101.467 -23 101.4C-22.9 98.6 -22.3 96.2 -20.9 94.7C-20.9 94.3 -20.9 93.9 -20.9 93.5C-20.9 93.3667 -20.9 93.2333 -20.9 93.1C-20.9 90.8 -20.4 88.7 -19.5 87C-18.8 85.6 -17.7 84.5 -16.3 84.2C-16.1 82.6 -15.6 81.2 -14.9 80.1C-14.1 78.8 -13 77.7 -11.5 77.7C-10 77.7 -8.8 78.8 -8 80.1C-7.39999 81.2 -6.90001 82.6 -6.60001 84.2C-5.20001 84.5 -4.2 85.6 -3.39999 87C-2.59999 88.7 -2.10001 90.8 -2 93.1C-2 93.2333 -2 93.3667 -2 93.5C-2 93.9 -2 94.3 -2 94.7C-0.699997 96.2 0 98.6 0 101.4C0 102 -0.0333405 102.6 -0.100006 103.2C-0.300003 105.4 -1 107.4 -1.89999 108.9C-2.7 110.3 -3.8 111.3 -5.2 111.6C-6.3 112.7 -7.7 113.4 -9.2 113.9C-9.06667 114.367 -9 114.867 -9 115.4C-9 115.4 -9 115.433 -9 115.5C-8.33333 115.767 -7.73334 116.133 -7.2 116.6C-4.93333 116.467 -2.66666 116.367 -0.399994 116.3C0.600006 116.233 1.63333 116.167 2.7 116.1V47.3H5.89999V32.6H8.7C9.2 28.6 12.6 25.4 16.8 25.4C21 25.4 24.4 28.6 24.9 32.6H27.7V47.3H30.9V115.2C32.7667 115.133 34.6667 115.1 36.6 115.1V47.3H39.8V32.6H42.6C43.1 28.6 46.5 25.4 50.7 25.4C54.9 25.4 58.3 28.6 58.8 32.6H61.6V47.3H64.8V94C65 91.9 65.7 90.1 66.8 89C66.7333 88.6 66.7 88.1667 66.7 87.7C66.7 87.6333 66.7 87.5334 66.7 87.4C66.8 85 67.3 82.9 68.1 81.3C68.9 79.9 69.9 78.7 71.3 78.5C71.6 76.9 72.1 75.4 72.7 74.3C73.5 73 74.7 72 76.2 72C77.7 72 78.8 73 79.6 74.3C80.3 75.4 80.8 76.9 81 78.5C82.4 78.7 83.5 79.9 84.2 81.3C85.1 82.9 85.6 85 85.6 87.4C85.6667 87.4667 85.7 87.5667 85.7 87.7C85.6333 88.1667 85.6 88.6 85.6 89C87 90.4 87.6 92.9 87.7 95.7C87.7 96.2333 87.6667 96.8 87.6 97.4C87.3 99.5 86.8 101.4 85.9 102.9C85.3 103.9 84.6 104.8 83.7 105.3C84.0333 105.767 84.3 106.267 84.5 106.8C84.7667 106.733 85 106.7 85.2 106.7C87.9 106.7 89.9 109.1 89.9 111.9C91.7 112.6 93.2 113.6 93.5 115.9C95.4333 115.967 97.3333 116.067 99.2 116.2V113C98 112.8 96.8 112.1 95.9 111.2C94.8 111 94 110.2 93.3 109.2C92.7 108 92.2 106.5 92 104.8C91.9333 104.333 91.9 103.9 91.9 103.5C92 101.4 92.4 99.6 93.4 98.5C93.4 98.2333 93.4 97.9333 93.4 97.6C93.4 97.5333 93.4 97.4667 93.4 97.4C93.5 95.6 93.9 94 94.5 92.8C95 91.7 95.8 90.9 96.9 90.6C97.1 89.4 97.4 88.4 97.9 87.6C98.5 86.6 99.4 85.7 100.7 85.7C101.9 85.7 102.8 86.6 103.4 87.6C103.9 88.4 104.3 89.4 104.5 90.6C105.6 90.9 106.3 91.7 106.9 92.8C107.5 94 107.9 95.6 107.9 97.4C107.9 97.4667 107.9 97.5333 107.9 97.6C107.9 97.9333 107.9 98.2333 107.9 98.5C109 99.6 109.4 101.4 109.4 103.5C109.4 103.9 109.4 104.333 109.4 104.8C109.267 105.867 109.033 106.833 108.7 107.7C109.4 107.2 110.3 106.9 111.2 106.9C111.267 106.9 111.333 106.9 111.4 106.9C111.467 106.567 111.533 106.267 111.6 106V56.8H114.9V50.7H169.5V56.8H172.7V84.3C173.167 83.9667 173.667 83.7333 174.2 83.6C174.5 82 175 80.6 175.6 79.4C176.4 78.1 177.6 77.1 179.1 77.1C180.6 77.1 181.7 78.1 182.5 79.4C183.2 80.6 183.7 82 183.9 83.6C185.3 83.9 186.4 85 187.1 86.4C188 88 188.5 90.2 188.6 92.5C188.6 92.6333 188.6 92.7333 188.6 92.8C188.6 93.2667 188.567 93.7 188.5 94.1C189.9 95.6 190.5 98 190.6 100.8C190.6 101.333 190.567 101.9 190.5 102.5C190.2 104.8 189.6 106.8 188.7 108.3C187.9 109.6 186.8 110.7 185.4 110.9C184.1 112.1 182.7 112.9 181.2 113.3V122.5C184.667 122.9 188.133 123.3 191.6 123.7V71H194.8V56.2H216.6V71H219.8V127.2C220.867 127.333 221.933 127.467 223 127.6C224.933 127.867 226.9 128.133 228.9 128.4C230.767 128.667 232.667 128.933 234.6 129.2V71H237.8V56.2H259.6V71H262.8V133.3C265.267 133.633 267.7 134 270.1 134.4V130.1C269 129.8 268 129.2 267.1 128.4C266 128.1 265.2 127.3 264.6 126.3C263.9 125.1 263.4 123.6 263.3 121.9H263.2C263.2 121.5 263.2 121.067 263.2 120.6C263.2 118.6 263.7 116.8 264.7 115.6C264.7 115.333 264.7 115.033 264.7 114.7C264.7 114.633 264.7 114.567 264.7 114.5C264.7 112.7 265.1 111.1 265.7 109.9C266.3 108.9 267.1 108 268.1 107.7C268.3 106.567 268.667 105.567 269.2 104.7C269.8 103.7 270.7 102.9 271.9 102.8C273.2 102.9 274.1 103.7 274.7 104.7C275.2 105.5 275.5 106.6 275.7 107.7C276.8 108 277.6 108.9 278.1 109.9C278.8 111.1 279.1 112.7 279.2 114.5C279.2 114.567 279.2 114.667 279.2 114.8C279.2 115.067 279.2 115.333 279.2 115.6C280.2 116.8 280.7 118.6 280.7 120.6C280.7 121.067 280.667 121.5 280.6 121.9C280.4 123.6 280 125.1 279.3 126.3C278.6 127.3 277.8 128.1 276.7 128.4C275.9 129.1 275 129.7 274 130V135C276.933 135.467 279.867 135.9 282.8 136.3C284.6 136.567 286.4 136.833 288.2 137.1C289.467 137.3 290.733 137.5 292 137.7V132.8C290.9 132.5 289.8 131.9 288.9 131.1C287.8 130.9 287 130 286.4 129C285.7 127.9 285.2 126.4 285.1 124.7C285.033 124.233 285 123.8 285 123.4C285 121.3 285.5 119.5 286.5 118.3C286.5 118.033 286.5 117.767 286.5 117.5C286.5 117.367 286.5 117.267 286.5 117.2C286.5 115.4 286.9 113.8 287.6 112.6C288.1 111.6 288.9 110.7 289.9 110.4C290.1 109.3 290.5 108.3 291 107.4C291.6 106.4 292.5 105.6 293.8 105.6C295 105.6 295.9 106.4 296.5 107.4C297 108.3 297.4 109.3 297.6 110.4C298.6 110.7 299.4 111.6 299.9 112.6C300.6 113.8 301 115.4 301 117.2V117.5C301 117.767 301 118.033 301 118.3C302 119.5 302.5 121.3 302.5 123.4C302.5 123.8 302.467 124.233 302.4 124.7C302.3 126.4 301.8 127.9 301.1 129C300.5 130 299.6 130.9 298.5 131.1C297.7 131.8 296.8 132.4 295.8 132.7V138.2C299.933 138.8 304.067 139.367 308.2 139.9V72.1H311.4V57.4H314.1V43.2H317.4L318.2 34.7H325.6L326.4 43.2H330.4V57.4H333.2V72.1H336.4V123.9C338.5 124 340.2 125.4 341.1 127.3C341.8 126.9 342.7 126.7 343.5 126.7C346 126.7 348 128.4 348.9 130.7C349.633 130.433 350.4 130.3 351.2 130.3C351.8 130.3 352.367 130.367 352.9 130.5C351.2 129.3 350 127.4 349.6 125.1C349.533 124.633 349.5 124.167 349.5 123.7C349.5 121.6 350.3 119.6 351.8 118.5C351.8 118.3 351.8 118.067 351.8 117.8C351.8 117.733 351.8 117.667 351.8 117.6C351.9 114.1 354.1 111 357.1 110.7C357.8 108 359.8 105.9 362.5 105.9C365.1 105.9 367.1 108 367.8 110.7C370.8 111 373 114.1 373.1 117.6C373.1 117.667 373.1 117.733 373.1 117.8C373.1 118.067 373.1 118.3 373.1 118.5C374.6 119.6 375.4 121.6 375.4 123.7C375.4 124.167 375.367 124.633 375.3 125.1C374.7 128.4 372.4 131.2 369.5 131.5C367.9 132.4 366.2 133 364.4 133.3V138.6C364.9 139.5 365.2 140.6 365.2 141.8C367.2 142.8 368.7 144.7 369.3 147C371.167 147.2 373 147.4 374.8 147.6C374.867 147.6 374.933 147.6 375 147.6C378.933 147.933 382.867 148.267 386.8 148.6V86.1H410.3L429.8 112.2V151.5C432.467 151.633 435.1 151.767 437.7 151.9V86.1H461.2L480.7 112.2V153C480.967 153 481.233 153 481.5 153C482.5 153 483.5 153 484.5 153C485.4 150.2 487.2 147.9 489.7 146.7C489.567 146.167 489.5 145.567 489.5 144.9C489.5 141.3 491.7 138.3 494.8 137.3C496.1 133.4 499.4 130.5 503.5 130.5C503.7 130.5 503.867 130.5 504 130.5C504.6 126.7 507.5 123.8 511.1 123.8C514.1 123.8 516.5 125.7 517.6 128.3C518.6 127.8 519.7 127.5 520.9 127.5C524 127.5 526.6 129.6 527.6 132.6C528.6 132.267 529.667 132.067 530.8 132C535 132 538.6 134.9 540.2 138.9C540.533 138.833 540.9 138.8 541.3 138.8C541.5 138.8 541.667 138.8 541.8 138.8V62.4H545.2L547.3 55.8H567.6L569.7 62.4H572.6V95.5H579.3V62.4H582.8L584.9 55.8H605.2L607.3 62.4H610.1V146.3C612.167 146.033 614.2 145.8 616.2 145.6C618.467 145.333 620.733 145.067 623 144.8V140.1C621.9 139.8 620.8 139.2 619.9 138.4C618.8 138.2 618 137.3 617.4 136.3C616.7 135.2 616.2 133.7 616.1 132C616.033 131.533 616 131.1 616 130.7C616 128.6 616.5 126.8 617.5 125.6C617.5 125.333 617.5 125.067 617.5 124.8C617.5 124.667 617.5 124.567 617.5 124.5C617.5 122.8 617.9 121.2 618.6 119.9C619.1 118.9 619.9 118 620.9 117.7C621.1 116.6 621.5 115.6 622 114.7C622.6 113.7 623.5 112.9 624.8 112.9C626 112.9 626.9 113.7 627.5 114.7C628 115.6 628.4 116.6 628.6 117.7C629.6 118 630.4 118.9 630.9 119.9C631.6 121.2 632 122.8 632 124.6V124.8C632 125.067 632 125.333 632 125.6C633 126.8 633.5 128.6 633.5 130.7C633.5 131.1 633.467 131.533 633.4 132C633.3 133.7 632.8 135.2 632.1 136.3C631.5 137.3 630.6 138.2 629.5 138.4C628.7 139.1 627.8 139.7 626.8 140V144.3C630.733 143.833 634.7 143.333 638.7 142.8C639.3 141.2 640.5 139.9 641.9 139.1C641.833 138.833 641.8 138.533 641.8 138.2C641.8 135.8 643.2 133.6 645.3 132.9C646.2 130.3 648.5 128.4 651.3 128.4C651.8 125.9 653.8 124 656.3 124C658.2 124 659.8 125.2 660.7 126.9C661.3 126.567 661.933 126.4 662.6 126.4C664.7 126.4 666.5 127.8 667.2 129.7C667.8 129.5 668.433 129.4 669.1 129.4C671.9 129.4 674.3 131.3 675.5 133.8C675.633 133.8 675.767 133.8 675.9 133.8C676.167 133.8 676.433 133.833 676.7 133.9V131.7C675.5 131.4 674.3 130.8 673.4 129.9C672.3 129.7 671.4 128.9 670.8 127.9C670.1 126.7 669.7 125.2 669.5 123.5C669.433 123.033 669.4 122.6 669.4 122.2C669.4 120.1 669.9 118.3 670.9 117.2C670.9 116.933 670.9 116.633 670.9 116.3C670.9 116.233 670.9 116.167 670.9 116.1C670.9 114.3 671.3 112.7 672 111.5C672.5 110.4 673.3 109.5 674.4 109.3C674.6 108.1 674.9 107.1 675.4 106.3C676 105.3 676.9 104.4 678.2 104.4C679.4 104.4 680.3 105.3 680.9 106.3C681.4 107.1 681.8 108.1 682 109.3C683 109.5 683.8 110.4 684.3 111.5C685 112.7 685.4 114.3 685.4 116.1C685.4 116.167 685.4 116.233 685.4 116.3C685.4 116.567 685.4 116.867 685.4 117.2C686.4 118.3 686.9 120.1 686.9 122.2C686.9 122.6 686.867 123.033 686.8 123.5C686.7 125.2 686.2 126.7 685.5 127.9C684.9 128.9 684.1 129.7 683 129.9C682 130.8 681 131.4 679.9 131.7V135.9C680.033 136.1 680.167 136.3 680.3 136.5C684.1 135.8 688.1 135.2 691.9 134.5V136.5C687.8 137.2 683.9 137.9 679.9 138.6H679.6ZM323.7 76.6H327V84H323.7V76.6ZM317.8 76.6H321.1V84H317.8V76.6ZM311.9 76.6H315.2V84.1H311.9V76.6ZM568 77.8H564.8V72.6H568V77.8ZM562.1 77.8H558.9V72.7H562.1V77.8ZM553 72.6H556.2V77.8H553V72.6ZM550.3 77.7H547.1V72.6H550.3V77.7ZM564.8 84.2H568V89.4H564.8V84.2ZM558.9 84.2H562.1V89.3H558.9V84.2ZM553 84.2H556.2V89.4H553V84.2ZM550.3 89.4H547.1V84.2H550.3V89.4ZM564.8 95.9H568V101.1H564.8V95.9ZM558.9 95.9H562.1V101.1H558.9V95.9ZM553 95.9H556.2V101H553V95.9ZM550.3 101.1H547.1V95.9H550.3V101.1ZM564.8 107.7H568V112.8H564.8V107.7ZM558.9 107.7H562.1V112.9H558.9V107.7ZM553 107.7H556.2V112.9H553V107.7ZM550.3 112.8H547.1V107.7H550.3V112.8ZM564.8 119.3H568V124.5H564.8V119.3ZM558.9 119.3H562.1V124.4H558.9V119.3ZM553 119.3H556.2V124.5H553V119.3ZM550.3 124.5H547.1V119.3H550.3V124.5ZM602.9 147.1L605.7 148.6L602.5 148.9C588.767 150.367 575.067 151.533 561.4 152.4L560 152.5L560.4 151.1C560.9 149.3 562.1 147.8 563.7 147C563.633 146.667 563.6 146.333 563.6 146C563.6 143.6 565.1 141.5 567.2 140.8C567.8 138.9 569.1 137.4 570.9 136.7V121.4H580.9V132.8C581.6 133.3 582.1 134 582.5 134.7C583.033 134.433 583.633 134.3 584.3 134.3V131H587.6V135.5C588.2 136 588.7 136.7 589.1 137.5C589.633 137.367 590.233 137.3 590.9 137.3C593.8 137.3 596.2 139.1 597.3 141.7C597.433 141.633 597.6 141.6 597.8 141.6C600.6 141.7 602.7 144.1 602.8 147C602.867 147 602.9 147.033 602.9 147.1ZM558.9 131H562.1V136.2H558.9V131ZM553 131H556.2V136.2H553V131ZM543.4 141.1C543.333 141.1 543.267 141.067 543.2 141C543 140.867 542.767 140.767 542.5 140.7C542.1 140.567 541.667 140.5 541.2 140.5C540.733 140.5 540.267 140.6 539.8 140.8L538.8 141.1L538.5 140.1C537.4 136.4 534.3 133.8 530.7 133.8C529.5 133.8 528.4 134.1 527.3 134.7L526.1 135.3L525.9 133.9C525.4 131.2 523.2 129.2 520.8 129.2C519.6 129.2 518.6 129.7 517.7 130.5L516.4 131.6L516 129.9C515.4 127.3 513.4 125.5 511.1 125.5C508.3 125.5 505.9 128.1 505.9 131.4V132.6L504.7 132.4C504.233 132.267 503.8 132.2 503.4 132.2C500.2 132.2 497.4 134.7 496.5 138.2L496.4 138.8L495.8 138.9C493.4 139.4 491.5 141.7 491.5 144.7C491.5 145.433 491.6 146.133 491.8 146.8L492.1 147.7L491.2 148C489.1 148.7 487.4 150.5 486.5 152.8H488C501.8 152.8 515.6 152.5 529.3 152C536.367 151.733 543.433 151.4 550.5 151C550.433 150.867 550.333 150.767 550.2 150.7C549.4 149.5 548.2 148.6 547 148.1L546.5 147.9L546.2 147.8L546.3 147.1C546.367 146.833 546.4 146.633 546.4 146.5C546.4 146.167 546.367 145.867 546.3 145.6C546.3 145.467 546.3 145.367 546.3 145.3C546.233 145.033 546.167 144.767 546.1 144.5C546.1 144.433 546.067 144.367 546 144.3C545.933 144.1 545.833 143.867 545.7 143.6C545.7 143.6 545.7 143.567 545.7 143.5C545.567 143.3 545.433 143.1 545.3 142.9C545.3 142.833 545.267 142.767 545.2 142.7C545.067 142.5 544.9 142.3 544.7 142.1C544.7 142.1 544.667 142.067 544.6 142C544.4 141.8 544.2 141.633 544 141.5C544 141.5 543.967 141.467 543.9 141.4C543.7 141.267 543.533 141.167 543.4 141.1ZM605.3 77.6H602V72.5H605.3V77.6ZM599.4 77.6H596.1V72.4H599.4V77.6ZM593.5 77.6H590.2V72.4H593.5V77.6ZM587.6 77.6H584.3V72.5H587.6V77.6ZM602 84.1H605.3V89.3H602V84.1ZM596.1 84.1H599.4V89.2H596.1V84.1ZM590.2 84.1H593.5V89.3H590.2V84.1ZM584.3 84.1H587.6V89.3H584.3V84.1ZM602 95.8H605.3V100.9H602V95.8ZM596.1 95.8H599.4V101H596.1V95.8ZM590.2 95.8H593.5V101H590.2V95.8ZM584.3 95.8H587.6V100.9H584.3V95.8ZM602 107.5H605.3V112.7H602V107.5ZM596.1 107.5H599.4V112.7H596.1V107.5ZM590.2 107.5H593.5V112.6H590.2V107.5ZM584.3 107.5H587.6V112.7H584.3V107.5ZM602 119.2H605.3V124.4H602V119.2ZM596.1 119.2H599.4V124.3H596.1V119.2ZM590.2 119.2H593.5V124.4H590.2V119.2ZM584.3 119.2H587.6V124.4H584.3V119.2ZM602 130.9H605.3V136H602V130.9ZM596.1 130.9H599.4V136.1H596.1V130.9ZM590.2 130.9H593.5V136.1H590.2V130.9ZM323.7 62.9H327V70.4H323.7V62.9ZM317.8 62.9H321.1V70.3H317.8V62.9ZM327 56.4H323.7V49H327V56.4ZM321.1 56.4H317.8V48.9H321.1V56.4ZM329.6 88.2H332.9V95.7H329.6V88.2ZM323.7 88.2H327V95.6H323.7V88.2ZM317.8 88.2H321.1V95.6H317.8V88.2ZM311.9 88.2H315.2V95.6H311.9V88.2ZM329.6 100.2H332.9V107.6H329.6V100.2ZM323.7 100.2H327V107.6H323.7V100.2ZM317.8 100.2H321.1V107.7H317.8V100.2ZM311.9 100.2H315.2V107.6H311.9V100.2ZM329.6 112.2H332.9V119.6H329.6V112.2ZM323.7 112.2H327V119.6H323.7V112.2ZM317.8 112.2H321.1V119.6H317.8V112.2ZM311.9 112.2H315.2V119.7H311.9V112.2ZM317.8 124.1H321.1V131.5H317.8V124.1ZM311.9 124.1H315.2V131.6H311.9V124.1ZM61.3 58.9H58.1V51.5H61.3V58.9ZM52.2 51.4H55.4V58.9H52.2V51.4ZM46.3 51.4H49.5V58.8H46.3V51.4ZM40.4 51.4H43.6V58.8H40.4V51.4ZM55.4 45.5H52.2V38.1H55.4V45.5ZM49.5 45.5H46.3V38.1H49.5V45.5ZM58.1 63.3H61.3V70.8H58.1V63.3ZM52.2 63.3H55.4V70.7H52.2V63.3ZM46.3 63.3H49.5V70.7H46.3V63.3ZM40.4 63.3H43.6V70.7H40.4V63.3ZM58.1 75.3H61.3V82.7H58.1V75.3ZM52.2 75.3H55.4V82.7H52.2V75.3ZM46.3 75.3H49.5V82.8H46.3V75.3ZM40.4 75.3H43.6V82.7H40.4V75.3ZM58.1 87.3H61.3V94.7H58.1V87.3ZM52.2 87.3H55.4V94.7H52.2V87.3ZM46.3 87.3H49.5V94.7H46.3V87.3ZM40.4 87.3H43.6V94.8H40.4V87.3ZM46.3 99.2H49.5V106.6H46.3V99.2ZM40.4 99.2H43.6V106.7H40.4V99.2ZM238.8 76.4H258.4V80.7H238.8V76.4ZM238.8 85.3H258.4V89.6H238.8V85.3ZM238.8 94.2H258.4V98.4H238.8V94.2ZM411.3 95.6L414.7 99.9H391.7V95.6H411.3ZM391.7 104.5H418L421.3 108.8H391.7V104.5ZM391.7 113.4H424V117.7H391.7V113.4ZM391.7 122.4H423.9V126.7H391.7V122.4ZM391.7 131.3H423.5V135.6H391.7V131.3ZM238.7 103.1H258.4V107.4H238.7V103.1ZM238.7 112H258.4V116.3H238.7V112ZM195.8 76.4H215.4V80.7H195.8V76.4ZM195.8 85.3H215.4V89.6H195.8V85.3ZM195.8 94.2H215.4V98.5H195.8V94.2ZM195.8 103H215.4V107.3H195.8V103ZM195.8 111.9H215.4V116.2H195.8V111.9ZM135.4 66.5H115.8V62.2H135.4V66.5ZM135.4 75.4H115.8V71.1H135.4V75.4ZM135.4 84.3H115.8V80H135.4V84.3ZM135.4 93.2H115.8V88.9H135.4V93.2ZM115.8 97.8H135.4V102.1H115.8V97.8ZM147.7 62.3H167.3V66.6H147.7V62.3ZM147.7 71.1H167.3V75.4H147.7V71.1ZM147.7 80H167.3V84.3H147.7V80ZM147.7 88.9H167.3V93.2H147.7V88.9ZM147.7 97.8H167.3V102.1H147.7V97.8ZM462.2 95.5L465.6 99.8H442.6V95.5H462.2ZM442.5 104.4H468.8L472.2 108.7H442.5V104.4ZM442.5 113.3H474.9V117.6H442.5V113.3ZM442.5 122.3H474.8V126.6H442.5V122.3ZM442.5 131.2H474.4V135.5H442.5V131.2ZM391.7 140.4H423.5V144.7H391.7V140.4ZM442.5 140.4H474.4V144.7H442.5V140.4ZM24.1 51.2H27.4V58.7H24.1V51.2ZM18.2 51.2H21.5V58.6H18.2V51.2ZM12.3 51.2H15.6V58.6H12.3V51.2ZM6.39999 51.2H9.7V58.6H6.39999V51.2ZM18.2 37.9H21.5V45.3H18.2V37.9ZM12.3 37.9H15.6V45.4H12.3V37.9ZM24.1 63.2H27.4V70.6H24.1V63.2ZM18.2 63.2H21.5V70.6H18.2V63.2ZM12.3 63.2H15.6V70.6H12.3V63.2ZM6.39999 63.2H9.7V70.7H6.39999V63.2ZM24.1 75.1H27.4V82.5H24.1V75.1ZM18.2 75.1H21.5V82.6H18.2V75.1ZM12.3 75.1H15.6V82.5H12.3V75.1ZM6.39999 75.1H9.7V82.5H6.39999V75.1ZM24.1 87.1H27.4V94.5H24.1V87.1ZM18.2 87.1H21.5V94.5H18.2V87.1ZM12.3 87.1H15.6V94.6H12.3V87.1ZM6.39999 87.1H9.7V94.5H6.39999V87.1ZM24.1 99H27.4V106.5H24.1V99ZM18.2 99H21.5V106.4H18.2V99ZM12.3 99H15.6V106.4H12.3V99ZM6.39999 99H9.7V106.4H6.39999V99ZM564.7 130.6H568V135.8H564.7V130.6ZM572.1 135.8C572.433 135.8 572.767 135.8 573.1 135.8C573.6 133.3 575.6 131.4 578.1 131.4C578.633 131.4 579.133 131.467 579.6 131.6V122.2H572.1V135.8ZM600.8 146.6C600.7 144.6 599.3 143.2 597.8 143.2C597.533 143.2 597.233 143.233 596.9 143.3L596 143.6L595.7 142.7C594.9 140.4 593 138.8 590.9 138.8C590.167 138.8 589.467 138.967 588.8 139.3L587.6 139.9L587.4 138.6C587.1 136.9 585.8 135.8 584.4 135.8C583.733 135.8 583.133 136.033 582.6 136.5L581.4 137.6L581 136C580.6 134.4 579.4 133.4 578.1 133.4C576.5 133.4 575.1 134.9 575 136.9V138.1L573.8 137.9C573.533 137.833 573.3 137.8 573.1 137.8C571.2 137.8 569.5 139.2 568.9 141.4L568.8 142L568.1 142.1C566.8 142.4 565.6 143.8 565.6 145.6C565.6 146 565.667 146.4 565.8 146.8L566.1 147.8L565.2 148.1C564.3 148.4 563.5 149 562.9 149.9C575.5 149.033 588.133 147.933 600.8 146.6ZM332.9 83.4H329.6V76H332.9V83.4ZM-126.1 120.5V120.6C-124 120.2 -122 119.5 -120.2 118.4L-120 118.2H-119.7C-117.1 118.2 -114.3 115.4 -113.7 111.5C-113.633 110.967 -113.6 110.467 -113.6 110C-113.6 107.4 -114.7 105.4 -116.3 104.6L-116.9 104.3L-116.8 103.6C-116.733 103.067 -116.7 102.567 -116.7 102.1C-116.7 101.967 -116.7 101.867 -116.7 101.8C-116.8 97.7 -119.5 94.7 -122.1 94.8H-122.2C-122.267 94.8 -122.367 94.8 -122.5 94.8L-123.5 94.9L-123.6 94C-124.1 90.6 -126.4 88.3 -128.7 88.3C-131.1 88.3 -133.3 90.6 -133.8 94L-134 94.9L-134.9 94.8C-135.1 94.8 -135.2 94.8 -135.2 94.8C-135.267 94.8 -135.3 94.8 -135.3 94.8C-138 94.7 -140.6 97.7 -140.8 101.8C-140.8 101.867 -140.8 101.967 -140.8 102.1C-140.8 102.567 -140.767 103.067 -140.7 103.6L-140.6 104.3L-141.2 104.6C-142.7 105.4 -143.9 107.4 -143.9 110C-143.9 110.467 -143.867 110.967 -143.8 111.5C-143.2 115.3 -140.3 118.2 -137.8 118.2H-137.5L-137.3 118.4C-135.3 119.6 -133 120.4 -130.5 120.7V120.5L-129.4 120.7C-129 120.767 -128.667 120.8 -128.4 120.8C-128.267 120.8 -128.167 120.8 -128.1 120.8C-127.833 120.8 -127.567 120.767 -127.3 120.7L-126.1 120.5ZM-71.4 105.1L-74.5 112.1H-68.4C-69.5333 109.767 -70.5333 107.433 -71.4 105.1ZM-72.2 103.5H-83C-80.2 105 -77.7 107.7 -75.7 111.4L-72.2 103.5ZM-75.7 90.2L-86.1 102.1H-72.4C-73.7333 98.2333 -74.8333 94.2667 -75.7 90.2ZM-93.5 51.2L-87.1 57.6L-80.7 51.2H-86.2H-93.5ZM-80.7 49.8L-87.1 43.4L-93.6 49.8H-80.7ZM-87.1 59.6L-94.5 67H-85.1H-79.7L-87.1 59.6ZM-94.4 68.4L-87.1 75.7L-79.7 68.4H-94.4ZM-87.1 77.6L-97.5 88H-87.8H-76.7L-87.1 77.6ZM-97.4 89.4L-87.4 101.5L-76.8 89.4H-97.4ZM-78.8 69.4L-86.1 76.7L-76.5 86.2C-77.6 80.7 -78.3 75.1 -78.8 69.4ZM-79.9 52.4L-86.1 58.6L-81.5 63.2L-79.2 65.5C-79.5333 61.1667 -79.7667 56.8 -79.9 52.4ZM-86.1 42.4L-82.4 46.1L-80.1 48.5C-80.1667 44.5667 -80.2667 40.6333 -80.4 36.7L-86.1 42.4ZM-91.9 33.2H-81.9C-82.3 30.9 -84.4 29.1 -86.9 29.1C-89.4 29.1 -91.4 30.9 -91.9 33.2ZM-93.3 35.2L-87.1 41.5L-80.8 35.2H-93.3ZM-94.1 48.5L-88.1 42.4L-93.7 36.8C-93.8333 40.6667 -93.9667 44.5667 -94.1 48.5ZM-95 65.5L-88.1 58.6L-89.3 57.4L-94.2 52.4C-94.4 56.8 -94.6667 61.1667 -95 65.5ZM-97.6 86.2L-88.1 76.7L-95.3 69.4C-95.8 75.1 -96.6 80.7 -97.6 86.2ZM-101.8 102.1H-88.7L-98.5 90.3C-99.3667 94.3 -100.467 98.2333 -101.8 102.1ZM-102.1 103.5L-99.7 111C-97.7 107.5 -95.3 104.9 -92.6 103.5H-102.1ZM-105.8 112.1H-100.9L-103 105.4C-103.8 107.667 -104.733 109.9 -105.8 112.1ZM-104.5 121.4L-107.2 114.8C-108.333 117.067 -109.6 119.267 -111 121.4H-104.5ZM-103.6 120C-102.867 117.6 -102.033 115.4 -101.1 113.4H-106.2L-103.6 120ZM-73 121.9C-76.1 110.7 -81.8 103.5 -87.9 103.6C-87.9 103.6 -87.9333 103.6 -88 103.6C-94.8 103.6 -101.2 113 -103.9 126.7C-101.5 126.3 -99.1333 125.933 -96.8 125.6C-95.4 125.4 -94.0333 125.2 -92.7 125C-89.7 124.533 -86.6667 124.1 -83.6 123.7C-82.0667 123.5 -80.5333 123.3 -79 123.1C-77 122.833 -75.0333 122.567 -73.1 122.3C-73.0333 122.167 -73 122.033 -73 121.9ZM-68.2 113.5H-74.6C-73.6 115.633 -72.7333 117.967 -72 120.5L-68.2 113.5ZM-9.8 111.3C-8.60001 110.967 -7.46666 110.3 -6.39999 109.3L-6.10001 109H-5.7C-5.2 109 -4.39999 108.5 -3.7 107.3C-2.89999 106.1 -2.39999 104.3 -2.2 102.3C-2.13333 101.767 -2.10001 101.267 -2.10001 100.8C-2.10001 98.1 -2.90001 95.9 -3.8 95.3L-4.2 94.9V94.4C-4.13333 93.8667 -4.10001 93.3667 -4.10001 92.9C-4.10001 92.7667 -4.10001 92.6666 -4.10001 92.6C-4.10001 90.5 -4.60001 88.6 -5.3 87.3C-5.90001 86.1 -6.7 85.6 -7.2 85.6C-7.26666 85.6 -7.33333 85.6 -7.39999 85.6L-8.5 85.8L-8.60001 84.7C-8.8 83 -9.2 81.5 -9.8 80.5C-10.5 79.5 -11.1 79.1 -11.6 79.1C-12 79.1 -12.7 79.5 -13.3 80.5C-13.9 81.5 -14.4 83 -14.5 84.7L-14.6 85.8L-15.7 85.6C-15.8333 85.6 -15.9 85.6 -15.9 85.6C-16.4 85.6 -17.2 86.1 -17.9 87.3C-18.5 88.6 -19 90.5 -19 92.6C-19 92.6666 -19 92.7667 -19 92.9C-19 93.3667 -19 93.8667 -19 94.4L-18.9 94.9L-19.3 95.3C-20.2 95.9 -21.1 98.1 -21.1 100.8C-21.1 101.2 -21.0667 101.633 -21 102.1C-21 102.1 -20.9667 102.1 -20.9 102.1C-20.5667 102.433 -20.2333 102.767 -19.9 103.1C-19.9 103.1 -19.8667 103.1 -19.8 103.1C-19.4667 103.433 -19.1667 103.8 -18.9 104.2C-18.9 104.2 -18.9 104.233 -18.9 104.3C-18.3 105.1 -17.8 105.967 -17.4 106.9C-17.2 106.9 -17.0333 106.9 -16.9 106.9C-16.9 106.9 -16.8667 106.9 -16.8 106.9C-16.7333 106.9 -16.6667 106.867 -16.6 106.8C-16.5333 106.8 -16.4333 106.8 -16.3 106.8C-15.9667 106.8 -15.6667 106.833 -15.4 106.9C-15.2667 106.9 -15.1667 106.933 -15.1 107C-14.8333 107 -14.6 107.033 -14.4 107.1C-14.3333 107.167 -14.2667 107.2 -14.2 107.2C-13.8667 107.267 -13.5667 107.367 -13.3 107.5C-13.2333 107.567 -13.1667 107.6 -13.1 107.6C-12.9 107.733 -12.7 107.867 -12.5 108C-12.4333 108.067 -12.3667 108.1 -12.3 108.1C-12.1 108.3 -11.8667 108.5 -11.6 108.7C-11.6 108.767 -11.5667 108.8 -11.5 108.8C-11.3 109 -11.1333 109.2 -11 109.4C-10.9333 109.467 -10.8667 109.533 -10.8 109.6C-10.6667 109.867 -10.5 110.133 -10.3 110.4C-10.1667 110.667 -10.0333 110.933 -9.89999 111.2C-9.83333 111.267 -9.8 111.3 -9.8 111.3ZM66.6 95C66.6 95.4 66.6 95.8 66.6 96.2C67.5 96.4 68.2 96.9 68.8 97.5C68.8667 97.5 68.9 97.5333 68.9 97.6C69.0333 97.6666 69.1333 97.7667 69.2 97.9C69.2667 97.9667 69.3 98 69.3 98C69.3667 98.1333 69.4333 98.2333 69.5 98.3C69.5667 98.4333 69.6333 98.5333 69.7 98.6C69.7667 98.6666 69.8 98.7333 69.8 98.8C70.4 98.5333 71.0667 98.4 71.8 98.4C73.9 98.4 75.6 99.8 76.4 101.7C76.6667 101.633 76.9333 101.567 77.2 101.5C77.2667 101.5 77.3 101.5 77.3 101.5C77.6333 101.433 77.9667 101.4 78.3 101.4C78.5 101.4 78.7 101.4 78.9 101.4C78.9667 101.467 79.0667 101.5 79.2 101.5C79.2667 101.5 79.3667 101.5 79.5 101.5C79.6333 101.567 79.7667 101.6 79.9 101.6C79.9667 101.6 80.0333 101.633 80.1 101.7C80.2333 101.7 80.3667 101.733 80.5 101.8C80.5667 101.8 80.6 101.833 80.6 101.9C81.3333 102.167 82 102.533 82.6 103C83 102.7 83.6 102.2 84.1 101.3C84.8 100.1 85.3 98.4 85.5 96.6C85.5667 96.0666 85.6 95.5333 85.6 95C85.6 92.3 84.7 90.2 83.8 89.5L83.4 89.2L83.5 88.6C83.5667 88.1333 83.6 87.6333 83.6 87.1C83.6 86.9666 83.6 86.8667 83.6 86.8C83.5 84.7 83 82.8 82.4 81.6C81.7 80.3 81 79.8 80.4 79.8C80.4 79.8 80.3333 79.8 80.2 79.8L79.2 80L79 79C78.9 77.2 78.4 75.7 77.8 74.7C77.2 73.7 76.5 73.3 76.1 73.3C75.6 73.3 75 73.7 74.4 74.7C73.8 75.7 73.3 77.2 73.1 79L73 80L71.9 79.8C71.8333 79.8 71.7667 79.8 71.7 79.8C71.2 79.8 70.4 80.3 69.8 81.6C69.1 82.8 68.7 84.7 68.6 86.8C68.6 86.9333 68.6 87.0333 68.6 87.1C68.6 87.6333 68.6333 88.1333 68.7 88.6V89.2L68.3 89.5C67.4 90.2 66.6 92.3 66.6 95ZM92 115.6C91.8 113.6 90.8 113.2 88.9 112.4L88.4 112.2V111.7C88.4667 111.5 88.5 111.367 88.5 111.3C88.5 109.1 86.9 107.5 85.1 107.5C84.8333 107.5 84.5333 107.533 84.2 107.6L83.5 107.9L83.3 107.2C83.1 106.467 82.7667 105.8 82.3 105.2L82 105.3L81.6 104.9C80.8 104.1 79.9 103.6 78.9 103.5C78.7 103.433 78.5 103.4 78.3 103.4C78.1 103.4 77.9 103.4 77.7 103.4C77.1667 103.467 76.6667 103.633 76.2 103.9L75 104.5L74.8 103.2C74.7333 102.867 74.6 102.533 74.4 102.2C73.9 101.1 72.9 100.4 71.8 100.4C71.6 100.4 71.4333 100.433 71.3 100.5C70.8333 100.567 70.4 100.767 70 101.1L68.7 102.2L68.5 101.2L68.3 100.6C68.3 100.4 68.2667 100.233 68.2 100.1C68.1333 99.9666 68.1 99.8667 68.1 99.8C68.0333 99.7333 67.9667 99.6666 67.9 99.6C67.8333 99.4666 67.7667 99.3333 67.7 99.2C67.1 98.5 66.4 98.1 65.6 98H65.4C65.0667 98 64.7333 98.0667 64.4 98.2L64.2 98.3C63.4 98.7 62.8 99.6 62.5 100.6C62.4333 100.867 62.4 101.167 62.4 101.5V102.7L61.2 102.5C60.9333 102.433 60.6667 102.4 60.4 102.4C58.5 102.4 56.8 103.8 56.3 106L56.1 106.6L55.5 106.7C54.2 107 53 108.4 53 110.2C53 110.6 53.0667 111 53.2 111.4L53.5 112.4L52.6 112.7C51.8 113 51.1 113.4 50.6 114.7C64.3333 114.767 78.1333 115.067 92 115.6ZM100.6 110.6C101.867 110.6 103.067 110.033 104.2 108.9L104.5 108.7H104.9C105.1 108.7 105.7 108.4 106.2 107.5C106.7 106.7 107.1 105.4 107.3 104C107.3 103.6 107.3 103.233 107.3 102.9C107.4 100.9 106.7 99.4 106.2 99L105.7 98.6L105.8 98.1C105.867 97.7666 105.9 97.4 105.9 97C105.9 96.9333 105.9 96.8667 105.9 96.8C105.8 95.3 105.5 93.9 105 93.1C104.6 92.2 104.1 91.9 103.8 91.9C103.8 91.9 103.767 91.9 103.7 91.9L102.6 92.1L102.5 91C102.4 89.8 102.1 88.7 101.6 88C101.2 87.3 100.8 87.1 100.6 87.1C100.4 87.1 100 87.3 99.5 88C99.1 88.7 98.8 89.8 98.7 91L98.5 92.1L97.5 91.9C97.4333 91.9 97.3667 91.9 97.3 91.9C97.1 91.9 96.6 92.2 96.2 93.1C95.7 93.9 95.4 95.3 95.3 96.8C95.3 96.8667 95.3 96.9333 95.3 97C95.3 97.4 95.3333 97.7666 95.4 98.1V98.6L95 99C94.5 99.4 93.8 100.9 93.8 102.9C93.8 103.233 93.8333 103.6 93.9 104C94 105.4 94.5 106.7 95 107.5C95.5 108.4 96 108.7 96.3 108.7H96.7L96.9 108.9C98.1 110 99.3 110.6 100.6 110.6ZM100.9 112.6C100.833 112.6 100.733 112.6 100.6 112.6C100.533 112.6 100.5 112.6 100.5 112.6V115.6C100.633 115.6 100.767 115.6 100.9 115.6V112.6ZM104 114.6C103.933 114.4 103.9 114.133 103.9 113.8C103.9 112.8 104.2 111.9 104.8 111.2C104 111.733 103.167 112.133 102.3 112.4V115.7C102.367 115.7 102.433 115.7 102.5 115.7C102.9 115.3 103.4 114.933 104 114.6ZM134.4 113.5C134.467 113.833 134.5 114.167 134.5 114.5C134.767 114.633 135.033 114.8 135.3 115C135.367 115.067 135.4 115.1 135.4 115.1C135.667 115.367 135.9 115.6 136.1 115.8C136.1 115.867 136.133 115.933 136.2 116C136.4 116.267 136.567 116.533 136.7 116.8C136.7 116.867 136.7 116.9 136.7 116.9C136.9 117.167 137.033 117.467 137.1 117.8C137.1 117.867 137.1 117.9 137.1 117.9C145.033 118.5 153 119.167 161 119.9C160.6 119.3 160 118.9 159.4 118.6L158.7 118.4L158.8 117.6C158.8 117.4 158.8 117.3 158.8 117.3C158.8 115.9 157.8 114.8 156.7 114.8C156.5 114.8 156.3 114.833 156.1 114.9L155.1 115.2L154.8 114.3C154.3 112.5 152.9 111.4 151.3 111.4C150.767 111.4 150.267 111.533 149.8 111.8L148.6 112.4L148.4 111.1C148.2 109.9 147.2 109.1 146.3 109.1C145.833 109.1 145.4 109.267 145 109.6L143.8 110.7L143.4 109C143.1 107.9 142.3 107.2 141.3 107.2C140.3 107.2 139.2 108.2 139.2 109.7V110.9L138 110.7C137.8 110.633 137.633 110.6 137.5 110.6C136.1 110.6 134.8 111.6 134.4 113.2V113.5ZM113.4 105.5L112.7 106.6C112.7 106.8 112.7 106.967 112.7 107.1V107.9L111.9 107.8L111.6 108.3V107.7C111.467 107.7 111.333 107.7 111.2 107.7C109.7 107.7 108.3 108.9 107.9 110.6L107.8 111L107.4 111.1C106.3 111.3 105.3 112.4 105.3 113.8C105.3 114.2 105.367 114.533 105.5 114.8L105.7 115.5L105.1 115.7C104.967 115.767 104.833 115.833 104.7 115.9C106.967 115.967 109.267 116.067 111.6 116.2C119.333 116.667 127.133 117.167 135 117.7C134.7 117.1 134.2 116.6 133.7 116.3C133.5 116.167 133.333 116.067 133.2 116L132.5 115.8V115C132.567 114.8 132.6 114.7 132.6 114.7C132.6 114.5 132.567 114.3 132.5 114.1C132.433 113.9 132.367 113.7 132.3 113.5V113.4C131.9 112.7 131.2 112.2 130.4 112.2C130.267 112.2 130.1 112.233 129.9 112.3L128.9 112.6L128.6 111.7C128.1 109.9 126.7 108.8 125.1 108.8C124.567 108.8 124.067 108.933 123.6 109.2L122.4 109.8L122.2 108.5C121.9 107.2 121 106.4 120.1 106.5C119.633 106.5 119.2 106.667 118.8 107L117.5 108.1L117.2 106.4C116.9 105.3 116 104.6 115.1 104.6C114.5 104.6 113.9 104.9 113.4 105.5ZM172.3 108C172.633 108.267 172.933 108.4 173.2 108.4H173.6L173.9 108.7C175.4 110.2 177.2 111 179.1 111C180.9 111 182.7 110.2 184.2 108.7L184.5 108.4H184.9C185.4 108.4 186.2 107.9 187 106.7C187.7 105.5 188.3 103.7 188.5 101.7C188.5 101.233 188.5 100.733 188.5 100.2C188.6 97.5 187.7 95.3 186.8 94.7L186.4 94.3L186.5 93.8C186.5 93.2667 186.5 92.7667 186.5 92.3C186.5 92.1667 186.5 92.0667 186.5 92C186.5 89.9 186 88 185.3 86.8C184.7 85.5 183.9 85 183.4 85C183.4 85 183.333 85 183.2 85L182.1 85.2L182 84.1C181.9 82.4 181.4 80.9 180.8 79.9C180.2 78.9 179.5 78.5 179.1 78.5C178.6 78.5 178 78.9 177.3 79.9C176.7 80.9 176.3 82.4 176.1 84.1L176 85.2L174.9 85C174.833 85 174.767 85 174.7 85C174.2 85 173.4 85.5 172.8 86.8C172.667 87 172.567 87.2 172.5 87.4C172.433 87.6 172.367 87.8 172.3 88C172.233 88.2 172.167 88.4 172.1 88.6C172.033 88.8 171.967 89 171.9 89.2C171.9 89.4667 171.867 89.7 171.8 89.9C171.733 90.1 171.7 90.3 171.7 90.5C171.633 90.9667 171.6 91.4667 171.6 92C171.6 92.0667 171.6 92.1667 171.6 92.3C171.6 92.7667 171.633 93.2667 171.7 93.8V94.3L171.6 94.4L171.3 94.7C171 94.9 170.7 95.3 170.4 95.9C170.4 95.9667 170.4 96 170.4 96C169.9 97.1 169.6 98.5 169.6 100.2C169.6 100.733 169.633 101.233 169.7 101.7C169.7 101.767 169.7 101.8 169.7 101.8C169.7 102.2 169.767 102.633 169.9 103.1C169.9 103.167 169.9 103.267 169.9 103.4C169.967 103.667 170.067 103.967 170.2 104.3C170.2 104.433 170.233 104.533 170.3 104.6C170.367 104.867 170.433 105.133 170.5 105.4C170.567 105.533 170.667 105.7 170.8 105.9C170.867 106.1 170.967 106.3 171.1 106.5C171.3 106.9 171.533 107.267 171.8 107.6C171.867 107.6 171.9 107.633 171.9 107.7C172.033 107.833 172.167 107.933 172.3 108ZM177.3 112.8C175.6 112.5 174.1 111.6 172.7 110.4C172.7 110.333 172.7 110.3 172.7 110.3V121.1C174.233 121.233 175.767 121.4 177.3 121.6V112.8ZM179.8 112.9C179.533 112.9 179.3 112.9 179.1 112.9C178.967 112.9 178.833 112.9 178.7 112.9V121.6C179.033 121.667 179.4 121.733 179.8 121.8V112.9ZM275.6 126L275.8 125.8L276.2 125.7C276.5 125.8 277 125.4 277.5 124.6C278 123.7 278.5 122.5 278.6 121.1C278.667 120.7 278.7 120.333 278.7 120C278.7 118 278 116.5 277.5 116.1L277.1 115.7V115.2C277.167 114.867 277.2 114.5 277.2 114.1C277.2 114.033 277.2 113.967 277.2 113.9C277.1 112.4 276.8 111 276.3 110.1C275.9 109.3 275.4 109 275.2 108.9C275.133 108.967 275.067 109 275 109L274 109.2L273.8 108.1C273.7 106.8 273.4 105.8 273 105.1C272.5 104.4 272.1 104.2 271.9 104.2C271.7 104.2 271.3 104.4 270.9 105.1C270.4 105.8 270.1 106.8 270 108.1L269.9 109.2L268.8 109C268.733 109 268.7 108.967 268.7 108.9C268.4 109 267.9 109.3 267.5 110.1C267 111 266.7 112.4 266.6 113.9C266.6 113.967 266.6 114.033 266.6 114.1C266.6 114.433 266.633 114.8 266.7 115.2L266.8 115.7L266.3 116.1C265.8 116.5 265.1 118 265.2 120C265.2 120.333 265.2 120.667 265.2 121L264.2 121.2L265.2 121.1C265.4 122.5 265.8 123.7 266.3 124.6C266.8 125.4 267.4 125.8 267.6 125.7L268 125.8L268.3 126C269.033 126.733 269.833 127.233 270.7 127.5L271.3 127.6C271.433 127.6 271.567 127.6 271.7 127.6C271.767 127.667 271.833 127.7 271.9 127.7C273.233 127.633 274.467 127.067 275.6 126ZM297.4 128.8L297.6 128.5H298C298.3 128.5 298.8 128.2 299.3 127.3C299.9 126.5 300.3 125.2 300.4 123.8C300.467 123.4 300.5 123.033 300.5 122.7C300.5 120.7 299.8 119.2 299.3 118.8L298.9 118.4V117.9C298.967 117.567 299 117.2 299 116.8V116.6C299 115.1 298.6 113.7 298.1 112.9C297.7 112 297.2 111.7 297 111.7C296.933 111.7 296.9 111.7 296.9 111.7L295.8 111.9L295.7 110.8C295.5 109.6 295.2 108.5 294.8 107.8C294.3 107.1 293.9 106.9 293.7 106.9C293.5 106.9 293.1 107.1 292.7 107.8C292.3 108.5 291.9 109.6 291.8 110.8L291.7 111.9L290.6 111.7C290.533 111.7 290.5 111.7 290.5 111.7C290.2 111.7 289.7 112 289.3 112.9C288.8 113.7 288.5 115.1 288.5 116.6C288.5 116.667 288.5 116.733 288.5 116.8C288.5 117.2 288.5 117.567 288.5 117.9L288.6 118.4L288.2 118.8C287.6 119.2 287 120.7 287 122.7C287 123.033 287 123.4 287 123.8C287.2 125.2 287.6 126.5 288.1 127.3C288.6 128.2 289.2 128.5 289.4 128.5H289.8L290.1 128.7C290.833 129.5 291.633 130 292.5 130.2L293.1 130.3C293.367 130.367 293.6 130.4 293.8 130.4C295.067 130.4 296.267 129.867 297.4 128.8ZM324.4 42.5L323.8 36H320L319.4 42.5H324.4ZM355.8 128.8H356.1L356.3 129C358.1 130.1 360.2 130.7 362.5 130.7C364.8 130.7 366.9 130.1 368.7 129L368.9 128.8H369.2C370.9 128.8 372.9 126.8 373.4 124.1C373.4 123.7 373.4 123.333 373.4 123C373.4 121.2 372.6 119.8 371.6 119.2L371 118.9L371.1 118.2C371.167 117.867 371.2 117.5 371.2 117.1C371.2 117.033 371.2 116.967 371.2 116.9C371.1 114.1 369.2 112 367.4 112C367.333 112 367.267 112.033 367.2 112.1L366.2 112.2L366 111.2C365.7 108.8 364.1 107.2 362.5 107.2C360.9 107.2 359.4 108.8 359 111.2L358.8 112.2L357.9 112.1C357.767 112.033 357.667 112 357.6 112C355.9 112 354 114 353.9 116.9C353.9 117.033 353.9 117.1 353.9 117.1C353.9 117.5 353.9 117.867 353.9 118.2L354.1 118.9L353.4 119.2C352.4 119.8 351.6 121.2 351.6 123C351.6 123.333 351.6 123.7 351.6 124.1L350.7 124.2L351.7 124.1C352.1 126.8 354.1 128.8 355.8 128.8ZM367.2 146.2C366.6 144.5 365.3 143.3 363.9 142.7L363.2 142.5V141.7C363.267 141.433 363.3 141.267 363.3 141.2C363.3 138.7 361.5 136.8 359.5 136.8C359.167 136.8 358.8 136.867 358.4 137L357.5 137.3L357.2 136.4C356.3 133.5 353.9 131.6 351.3 131.6C350.367 131.6 349.5 131.8 348.7 132.2L347.5 132.9L347.3 131.5C346.9 129.5 345.3 128 343.6 128C342.733 128.067 341.967 128.367 341.3 128.9L340 130L339.7 128.4C339.2 126.5 337.7 125.2 336 125.2C335.933 125.2 335.833 125.2 335.7 125.2H335.6C335.133 125.267 334.7 125.433 334.3 125.7C334.3 125.7 334.267 125.7 334.2 125.7C334.067 125.767 333.9 125.867 333.7 126C333.7 126.067 333.667 126.1 333.6 126.1C333.467 126.233 333.333 126.367 333.2 126.5C333.2 126.567 333.167 126.633 333.1 126.7C333.033 126.833 332.933 127 332.8 127.2C332.733 127.267 332.7 127.367 332.7 127.5C332.633 127.633 332.567 127.767 332.5 127.9C332.433 128.033 332.4 128.2 332.4 128.4C332.333 128.467 332.3 128.533 332.3 128.6C332.233 128.933 332.2 129.233 332.2 129.5V129.9V130.7L331 130.5C330.867 130.433 330.733 130.4 330.6 130.4C330.4 130.4 330.2 130.4 330 130.4C329.467 130.4 328.933 130.5 328.4 130.7C326.8 131.3 325.4 132.8 324.9 134.8V135L324.7 135.4L324.1 135.6C322.4 135.9 321 137.6 321 139.9C321 140.233 321.033 140.6 321.1 141C325.9 141.6 330.7 142.167 335.5 142.7L336.1 142.8C336.633 142.867 337.167 142.933 337.7 143C337.767 143 337.8 143 337.8 143C341.267 143.4 344.667 143.8 348 144.2C348.067 144.2 348.1 144.2 348.1 144.2C348.633 144.267 349.167 144.333 349.7 144.4C349.767 144.4 349.833 144.4 349.9 144.4C353.9 144.8 357.867 145.2 361.8 145.6L362 145.7H362.2C363.867 145.833 365.533 146 367.2 146.2ZM355.5 130.8C355.433 130.8 355.333 130.767 355.2 130.7C356.8 131.7 358 133.1 358.8 134.9C359 134.833 359.233 134.8 359.5 134.8C360.1 134.8 360.667 134.9 361.2 135.1V132.7C359.1 132.5 357.2 131.8 355.5 130.8ZM362.6 132.7V135.9C362.733 135.967 362.867 136.067 363 136.2V132.7C362.867 132.7 362.733 132.7 362.6 132.7ZM547.2 130.5H550.5V135.7H547.2V130.5ZM567.7 61.7L566.2 57.1H548.8L547.4 61.7H567.7ZM605.2 61.7L603.8 57.1H586.4L584.9 61.7H605.2ZM628.4 136L628.7 135.8L629.1 135.7C629.3 135.8 629.9 135.4 630.4 134.6C630.9 133.7 631.3 132.5 631.5 131.1C631.5 130.7 631.5 130.333 631.5 130C631.6 128 630.9 126.5 630.4 126.1L630 125.7V125.2C630.067 124.8 630.1 124.4 630.1 124C630.1 124 630.1 123.967 630.1 123.9C630 122.4 629.7 121 629.2 120.1C628.8 119.3 628.3 119 628 118.9C628 118.967 627.967 119 627.9 119L626.8 119.2L626.7 118.1C626.6 116.8 626.3 115.8 625.8 115.1C625.4 114.4 625 114.2 624.8 114.2C624.6 114.2 624.2 114.4 623.7 115.1C623.3 115.8 623 116.8 622.9 118.1L622.8 119.2L621.7 119C621.633 119 621.567 118.967 621.5 118.9C621.3 119 620.8 119.3 620.4 120.1C619.9 121 619.6 122.4 619.5 123.9C619.5 123.967 619.5 124.033 619.5 124.1C619.5 124.433 619.533 124.8 619.6 125.2V125.7L619.2 126.1C618.7 126.5 618 128 618 130C618 130.333 618.033 130.667 618.1 131L617.1 131.2L618.1 131.1C618.2 132.5 618.7 133.7 619.2 134.6C619.7 135.4 620.2 135.8 620.5 135.7L620.9 135.8L621.1 136C621.9 136.733 622.733 137.233 623.6 137.5L624.2 137.6C624.467 137.667 624.667 137.7 624.8 137.7C626.133 137.633 627.333 137.067 628.4 136ZM678.5 131.2C678.433 131.2 678.333 131.2 678.2 131.2C678.2 131.2 678.167 131.2 678.1 131.2V133.6C678.233 133.667 678.367 133.733 678.5 133.8V131.2ZM681.8 127.6L682.1 127.4L682.5 127.3C682.8 127.4 683.3 127 683.8 126.2C684.3 125.3 684.8 124.1 684.9 122.7C684.967 122.3 685 121.933 685 121.6C685 119.6 684.3 118.1 683.8 117.7L683.4 117.3V116.8C683.467 116.4 683.5 116 683.5 115.6V115.5C683.4 114 683.1 112.6 682.6 111.7C682.2 110.9 681.7 110.6 681.5 110.5C681.433 110.567 681.367 110.6 681.3 110.6L680.3 110.8L680.1 109.7C680 108.4 679.7 107.4 679.3 106.7C678.8 105.9 678.4 105.8 678.2 105.8C678 105.8 677.6 105.9 677.2 106.7C676.7 107.4 676.4 108.4 676.3 109.7L676.2 110.8L675.1 110.6C675.033 110.6 675 110.567 675 110.5C674.7 110.6 674.2 110.9 673.8 111.7C673.3 112.6 673 114 672.9 115.5C672.9 115.567 672.9 115.633 672.9 115.7C672.9 116.033 672.933 116.4 673 116.8L673.1 117.3L672.6 117.7C672.1 118.1 671.4 119.6 671.5 121.6C671.5 121.933 671.5 122.267 671.5 122.6L670.5 122.8L671.5 122.7C671.7 124.1 672.1 125.3 672.6 126.2C673.1 127 673.7 127.4 673.9 127.3L674.3 127.4L674.6 127.6C675.7 128.7 676.9 129.3 678.2 129.3C679.5 129.3 680.7 128.7 681.8 127.6Z" fill="#E9ECEB"/>
</g>
<defs>
<clipPath id="clip0_891_8573">
<rect width="487" height="167" fill="white"/>
</clipPath>
</defs>
</svg>
