<svg width="72" height="72" viewBox="0 0 72 72" fill="none" xmlns="http://www.w3.org/2000/svg">
<path fill-rule="evenodd" clip-rule="evenodd" d="M36 9C21.0883 9 9 21.0883 9 36C9 50.9117 21.0883 63 36 63C50.9117 63 63 50.9117 63 36C63 21.0883 50.9117 9 36 9ZM3 36C3 17.7746 17.7746 3 36 3C54.2254 3 69 17.7746 69 36C69 54.2254 54.2254 69 36 69C17.7746 69 3 54.2254 3 36Z" fill="#02A443"/>
<path fill-rule="evenodd" clip-rule="evenodd" d="M51.5457 22.7351C52.8327 23.6269 53.1759 25.4093 52.3123 26.7162L36.9686 49.9326C36.5489 50.5675 35.8956 51.0017 35.1554 51.1375C34.4152 51.2732 33.6503 51.0992 33.0326 50.6545L22.7669 43.2639C21.4957 42.3486 21.1839 40.5605 22.0707 39.2699C22.9574 37.9793 24.7068 37.6751 25.9781 38.5903L33.9001 44.2937L47.6515 23.4865C48.5152 22.1797 50.2587 21.8433 51.5457 22.7351Z" fill="#02A443"/>
</svg>
