<svg width="20" height="20" viewBox="0 0 20 20" fill="none" xmlns="http://www.w3.org/2000/svg">
<path d="M10.0003 16.6667C13.667 16.6667 16.667 13.6667 16.667 10.0001C16.667 6.33341 13.667 3.33341 10.0003 3.33341C6.33366 3.33341 3.33366 6.33341 3.33366 10.0001C3.33366 13.6667 6.33366 16.6667 10.0003 16.6667ZM10.0003 1.66675C14.5837 1.66675 18.3337 5.41675 18.3337 10.0001C18.3337 14.5834 14.5837 18.3334 10.0003 18.3334C5.41699 18.3334 1.66699 14.5834 1.66699 10.0001C1.66699 5.41675 5.41699 1.66675 10.0003 1.66675ZM14.167 11.5834L13.5837 12.6667L9.16699 10.2501V5.83341H10.417V9.50008L14.167 11.5834Z" fill="#28519E"/>
</svg>
