<svg width="148" height="149" viewBox="0 0 148 149" fill="none" xmlns="http://www.w3.org/2000/svg">
<circle cx="74" cy="74.5" r="74" fill="#F8F8F8"/>
<g clip-path="url(#clip0_1302_8933)">
<path d="M98.4108 109.241H48.8623C48.5319 109.241 48.2152 109.106 47.9816 108.867C47.748 108.627 47.6166 108.303 47.6162 107.964V47.142C47.6166 46.8036 47.748 46.4791 47.9816 46.2398C48.2152 46.0005 48.5319 45.8659 48.8623 45.8655H98.4108C98.7412 45.8659 99.0579 46.0005 99.2915 46.2398C99.5251 46.4791 99.6565 46.8036 99.6569 47.142V107.964C99.6565 108.303 99.5251 108.627 99.2915 108.867C99.0579 109.106 98.7412 109.241 98.4108 109.241Z" fill="#E6E6E6"/>
<path d="M75.6156 42.8621H44.7577C44.0971 42.863 43.4637 43.1323 42.9966 43.6109C42.5294 44.0895 42.2666 44.7383 42.2656 45.4151V106.658L42.5588 106.566V45.4151C42.5595 44.8179 42.7914 44.2453 43.2036 43.823C43.6159 43.4007 44.1747 43.1631 44.7577 43.1624H75.7065L75.6156 42.8621ZM102.516 42.8621H44.7577C44.0971 42.863 43.4637 43.1323 42.9966 43.6109C42.5294 44.0895 42.2666 44.7383 42.2656 45.4151V114.197C42.2666 114.874 42.5294 115.523 42.9966 116.001C43.4637 116.48 44.0971 116.749 44.7577 116.75H102.516C103.176 116.749 103.81 116.48 104.277 116.001C104.744 115.523 105.007 114.874 105.008 114.197V45.4151C105.007 44.7383 104.744 44.0895 104.277 43.6109C103.81 43.1323 103.176 42.863 102.516 42.8621ZM104.714 114.197C104.714 114.794 104.482 115.367 104.07 115.789C103.657 116.211 103.098 116.449 102.516 116.45H44.7577C44.1747 116.449 43.6159 116.211 43.2036 115.789C42.7914 115.367 42.5595 114.794 42.5588 114.197V45.4151C42.5595 44.8179 42.7914 44.2453 43.2036 43.823C43.6159 43.4007 44.1747 43.1631 44.7577 43.1624H102.516C103.098 43.1631 103.657 43.4007 104.07 43.823C104.482 44.2453 104.714 44.8179 104.714 45.4151V114.197Z" fill="#3F3D56"/>
<path d="M87.1236 49.4698H60.1504C59.8006 49.4694 59.4653 49.3269 59.2179 49.0735C58.9706 48.8201 58.8314 48.4765 58.8311 48.1182V41.5103C58.8314 41.152 58.9706 40.8084 59.2179 40.555C59.4653 40.3016 59.8006 40.1591 60.1504 40.1587H87.1236C87.4734 40.1591 87.8087 40.3016 88.0561 40.555C88.3034 40.8084 88.4425 41.152 88.4429 41.5103V48.1182C88.4425 48.4765 88.3034 48.8201 88.0561 49.0735C87.8087 49.3269 87.4734 49.4694 87.1236 49.4698Z" fill="#8E8E92"/>
<path d="M73.6369 40.6092C75.2562 40.6092 76.5688 39.2645 76.5688 37.6056C76.5688 35.9468 75.2562 34.6021 73.6369 34.6021C72.0177 34.6021 70.7051 35.9468 70.7051 37.6056C70.7051 39.2645 72.0177 40.6092 73.6369 40.6092Z" fill="#8E8E92"/>
<path d="M73.6364 39.435C74.6226 39.435 75.4221 38.616 75.4221 37.6056C75.4221 36.5952 74.6226 35.7761 73.6364 35.7761C72.6501 35.7761 71.8506 36.5952 71.8506 37.6056C71.8506 38.616 72.6501 39.435 73.6364 39.435Z" fill="white"/>
</g>
<defs>
<clipPath id="clip0_1302_8933">
<rect width="63.863" height="83.25" fill="white" transform="translate(42 33.5)"/>
</clipPath>
</defs>
</svg>
