<svg width="16" height="16" viewBox="0 0 16 16" fill="none" xmlns="http://www.w3.org/2000/svg">
<path d="M3.55556 7.2H5.33333V8.8H3.55556V7.2ZM16 3.2V14.4C16 15.28 15.2 16 14.2222 16H1.77778C0.791111 16 0 15.28 0 14.4L0.00888888 3.2C0.00888888 2.32 0.791111 1.6 1.77778 1.6H2.66667V0H4.44444V1.6H11.5556V0H13.3333V1.6H14.2222C15.2 1.6 16 2.32 16 3.2ZM1.77778 4.8H14.2222V3.2H1.77778V4.8ZM14.2222 14.4V6.4H1.77778V14.4H14.2222ZM10.6667 8.8H12.4444V7.2H10.6667V8.8ZM7.11111 8.8H8.88889V7.2H7.11111V8.8Z" fill="#343435"/>
</svg>
