<svg width="40" height="41" viewBox="0 0 40 41" fill="none" xmlns="http://www.w3.org/2000/svg">
<g clip-path="url(#clip0_1452_10184)">
<rect y="0.5" width="40" height="40" rx="20" fill="#E9ECEB"/>
<path d="M18.4007 7.51325C15.3834 8.18488 13.0277 10.4203 12.1255 13.4677C11.925 14.1494 11.8949 14.4902 11.8648 17.0765C11.8247 20.2743 11.8448 20.4046 12.5265 20.8557C12.8372 21.0662 12.9876 21.0862 14.0702 21.0862H15.2731L15.7944 21.4772C17.9196 23.0811 20.8567 23.3818 23.2124 22.239C23.5933 22.0486 24.1547 21.7178 24.4454 21.4872L24.9667 21.0862H26.2097C27.3224 21.0862 27.4728 21.0662 27.7835 20.8557C28.4652 20.4046 28.4852 20.2843 28.4451 16.9762C28.4151 14.2195 28.395 13.9689 28.1845 13.3173C27.2623 10.5206 25.1471 8.42546 22.4405 7.64356C21.4481 7.36288 19.3931 7.29271 18.4007 7.51325ZM23.9141 13.8787C24.4254 14.39 25.9791 15.5027 26.3701 15.623C26.5806 15.6931 26.5906 15.7332 26.5205 16.3648C26.1796 19.5425 23.6635 21.9784 20.5159 22.1588C19.333 22.219 18.3606 22.0185 17.2479 21.4772C16.1051 20.9158 14.9624 19.7831 14.4211 18.6804C14.0101 17.8484 13.7394 16.866 13.7394 16.1743V15.7132L14.7819 15.7533C16.4961 15.8234 18.5411 15.5227 20.165 14.9613C20.9168 14.7007 22.3603 13.989 22.8616 13.6281C23.052 13.4878 23.2625 13.3775 23.3127 13.3675C23.3728 13.3675 23.6435 13.598 23.9141 13.8787Z" fill="#8E8E8F"/>
<path d="M16.2155 23.7026C12.697 25.2063 10.231 28.7649 9.7899 32.9852L9.71973 43.6167H20.0047H30.2797V33.2759C30.2797 32.7245 29.999 31.281 29.7183 30.3889C28.9865 28.0732 27.3927 25.8979 25.468 24.5948C24.8365 24.1738 23.5634 23.5322 23.2326 23.4721C23.0722 23.442 22.8617 24.0033 21.6587 27.6322C20.8969 29.9378 20.2553 31.8424 20.2353 31.8725C20.2052 31.8925 19.4734 30.028 18.6013 27.7324C17.7292 25.4268 16.9874 23.5121 16.9573 23.4721C16.9272 23.432 16.5864 23.5422 16.2155 23.7026Z" fill="#8E8E8F"/>
</g>
<rect x="0.5" y="1" width="39" height="39" rx="19.5" stroke="#E9ECEB"/>
<defs>
<clipPath id="clip0_1452_10184">
<rect y="0.5" width="40" height="40" rx="20" fill="white"/>
</clipPath>
</defs>
</svg>
