<svg width="149" height="148" viewBox="0 0 149 148" fill="none" xmlns="http://www.w3.org/2000/svg">
<circle cx="74.5" cy="74" r="74" fill="#F8F8F8"/>
<g clip-path="url(#clip0_1302_8906)">
<path d="M124.926 63.8365C124.893 63.8365 124.861 63.8263 124.833 63.8073L79.8371 32.4705C79.7001 32.3756 79.5374 32.3249 79.3708 32.3252C79.2042 32.3255 79.0416 32.3767 78.905 32.4721L34.2327 63.807C34.1974 63.8318 34.1537 63.8415 34.1112 63.8341C34.0687 63.8266 34.0309 63.8026 34.0061 63.7672C33.9813 63.7319 33.9716 63.6882 33.979 63.6457C33.9865 63.6031 34.0105 63.5653 34.0458 63.5406L78.7182 32.2057C78.9094 32.0722 79.137 32.0004 79.3703 32C79.6035 31.9996 79.8313 32.0706 80.023 32.2035L125.019 63.5402C125.048 63.56 125.069 63.5884 125.08 63.6212C125.092 63.654 125.092 63.6895 125.082 63.7225C125.071 63.7556 125.051 63.7845 125.023 63.805C124.995 63.8255 124.961 63.8365 124.926 63.8365Z" fill="#3F3D56"/>
<path d="M36.7852 64.9473L79.4148 33.3535L122.368 67.1953L81.6112 91.3564L59.4839 86.3127L36.7852 64.9473Z" fill="#E6E6E6"/>
<path d="M124.601 63.511H124.568L105.89 71.4866L80.3346 82.3989C80.2348 82.441 80.1276 82.4629 80.0193 82.4634C79.911 82.464 79.8036 82.4432 79.7033 82.4022L53.3376 71.4638L34.2007 63.524L34.1715 63.511H34.1389C33.837 63.5113 33.5475 63.6314 33.3339 63.8449C33.1204 64.0584 33.0003 64.3479 33 64.6499V114.111C33.0003 114.413 33.1204 114.702 33.3339 114.916C33.5475 115.129 33.837 115.25 34.1389 115.25H124.601C124.903 115.25 125.192 115.129 125.406 114.916C125.619 114.702 125.739 114.413 125.74 114.111V64.6499C125.739 64.3479 125.619 64.0584 125.406 63.8449C125.192 63.6314 124.903 63.5113 124.601 63.511ZM125.414 114.111C125.414 114.327 125.328 114.534 125.176 114.686C125.023 114.839 124.816 114.924 124.601 114.924H34.1389C33.9232 114.924 33.7163 114.839 33.5638 114.686C33.4112 114.534 33.3255 114.327 33.3254 114.111V64.6499C33.3257 64.4395 33.4073 64.2374 33.5531 64.0858C33.699 63.9342 33.8978 63.8448 34.108 63.8364L53.3376 71.8152L79.5781 82.7032C79.8621 82.8188 80.1804 82.817 80.4632 82.6983L105.89 71.8397L124.633 63.8364C124.843 63.8454 125.041 63.9351 125.187 64.0866C125.332 64.2381 125.414 64.4399 125.414 64.6499V114.111Z" fill="#3F3D56"/>
</g>
<defs>
<clipPath id="clip0_1302_8906">
<rect width="92.7396" height="83.25" fill="white" transform="translate(33 32)"/>
</clipPath>
</defs>
</svg>
