<svg width="25" height="24" viewBox="0 0 25 24" fill="none" xmlns="http://www.w3.org/2000/svg">
<path d="M18.25 11H13.25V6H18.25M16.75 17C16.3522 17 15.9706 16.842 15.6893 16.5607C15.408 16.2794 15.25 15.8978 15.25 15.5C15.25 15.1022 15.408 14.7206 15.6893 14.4393C15.9706 14.158 16.3522 14 16.75 14C17.1478 14 17.5294 14.158 17.8107 14.4393C18.092 14.7206 18.25 15.1022 18.25 15.5C18.25 15.8978 18.092 16.2794 17.8107 16.5607C17.5294 16.842 17.1478 17 16.75 17ZM11.25 11H6.25V6H11.25M7.75 17C7.35218 17 6.97064 16.842 6.68934 16.5607C6.40804 16.2794 6.25 15.8978 6.25 15.5C6.25 15.1022 6.40804 14.7206 6.68934 14.4393C6.97064 14.158 7.35218 14 7.75 14C8.14782 14 8.52936 14.158 8.81066 14.4393C9.09196 14.7206 9.25 15.1022 9.25 15.5C9.25 15.8978 9.09196 16.2794 8.81066 16.5607C8.52936 16.842 8.14782 17 7.75 17ZM12.25 2C7.83 2 4.25 2.5 4.25 6V15.5C4.25 16.4283 4.61875 17.3185 5.27513 17.9749C5.9315 18.6313 6.82174 19 7.75 19L6.25 20.5V21H18.25V20.5L16.75 19C17.6783 19 18.5685 18.6313 19.2249 17.9749C19.8813 17.3185 20.25 16.4283 20.25 15.5V6C20.25 2.5 16.67 2 12.25 2Z" fill="#343435"/>
</svg>
