<svg width="25" height="24" viewBox="0 0 25 24" fill="none" xmlns="http://www.w3.org/2000/svg">
<path d="M12.8618 22C13.9618 22 14.8618 21.1 14.8618 20H10.8618C10.8618 21.1 11.7518 22 12.8618 22ZM18.8618 16V11C18.8618 7.93 17.2218 5.36 14.3618 4.68V4C14.3618 3.17 13.6918 2.5 12.8618 2.5C12.0318 2.5 11.3618 3.17 11.3618 4V4.68C8.49182 5.36 6.86182 7.92 6.86182 11V16L4.86182 18V19H20.8618V18L18.8618 16Z" fill="white"/>
<path d="M18.8619 10.1C20.4635 10.1 21.7619 8.80167 21.7619 7.20005C21.7619 5.59842 20.4635 4.30005 18.8619 4.30005C17.2603 4.30005 15.9619 5.59842 15.9619 7.20005C15.9619 8.80167 17.2603 10.1 18.8619 10.1Z" fill="#FFB81C" stroke="#002C3F"/>
</svg>
