<svg width="186" height="141" viewBox="0 0 186 141" fill="none" xmlns="http://www.w3.org/2000/svg">
<g opacity="0.1" clip-path="url(#clip0_891_8503)">
<path d="M60.4987 1.70102C59.5308 2.33805 59.3779 2.87707 59.3779 5.62119V8.75732H86.6321H113.886V5.8172C113.886 0.573974 115.924 0.916988 86.7339 0.916988C64.8288 0.916988 61.5175 1.01499 60.4987 1.70102Z" fill="#B2B2B3"/>
<path d="M51.4311 14.8336C50.5141 15.5197 50.4632 16.5487 50.3104 50.3112L50.2085 85.0536L53.265 85.3477C55.3536 85.4947 57.1876 86.0827 59.1234 87.1117L61.9252 88.6308V84.7596C61.9252 79.2714 61.8743 79.3204 72.725 79.3204C84.0342 79.3204 83.321 78.6344 83.321 89.5128C83.321 100.538 83.8304 99.9013 74.5589 99.9013C69.0571 99.9013 67.4779 100.048 67.6817 100.489C67.7836 100.832 68.5477 102.841 69.3628 104.899L70.8401 108.722H86.6322C99.5206 108.722 102.679 108.869 103.494 109.408C104.411 110.094 104.462 110.78 104.462 122.295V134.448H101.66H98.8584L98.7055 124.255L98.6037 114.112H94.0188H89.434V124.402V134.693H86.6322H83.8304V124.402V114.112H78.9909H74.1513V124.451V134.742L71.5023 134.595L68.8024 134.448L68.5477 129.058L68.293 123.667L67.1213 125.235C66.4591 126.117 64.9308 127.538 63.7082 128.372C61.5177 129.891 61.4158 130.087 61.4158 132.341V134.693H58.6139H55.8121V130.381V126.068L57.4932 125.48C62.0271 123.912 65.4912 118.963 65.4912 114.014C65.4912 111.76 64.8289 109.408 62.4856 103.086C60.8554 98.6272 59.0724 94.413 58.6139 93.727C57.3913 91.8649 53.6725 90.4439 51.2273 90.8359C47.4066 91.4729 45.9803 93.335 42.5162 102.596C39.103 111.711 38.5936 115.092 40.1219 118.571C41.3954 121.413 44.3501 124.206 47.4066 125.431L50.2085 126.558V130.626V134.693L36.6069 134.595L22.9543 134.448L22.8015 130.479L22.6487 126.558L25.5014 125.431C30.7485 123.324 34.5182 117.395 33.7032 112.544C33.4994 111.515 31.9711 106.909 30.29 102.351C26.8259 93.09 25.6033 91.4729 21.7317 90.8359C19.2865 90.4439 15.5677 91.8159 14.3451 93.629C13.8866 94.266 12.1546 98.4802 10.4735 102.988C8.07918 109.457 7.41693 111.76 7.41693 114.014C7.41693 118.963 10.881 123.912 15.4658 125.48L17.096 126.068V130.381V134.693H8.9452H0.794434V137.388V140.083H93H185.206V137.388V134.693H179.347H173.489V93.335C173.489 54.6723 173.438 51.9282 172.623 50.9482C171.961 50.2131 165.338 47.714 150.31 42.6668L128.914 35.4145L128.66 84.9556L128.405 134.448H125.603H122.801L122.547 74.7632C122.343 22.429 122.19 15.0296 121.528 14.6376C121.069 14.3436 107.264 14.1476 86.5813 14.1476C57.9008 14.1476 52.2971 14.2456 51.4311 14.8336ZM82.3021 25.9081C83.2191 26.7901 83.321 27.5252 83.321 35.1205C83.321 41.7358 83.1681 43.5489 82.5059 44.4309C81.7418 45.4599 81.487 45.5089 72.4193 45.5089C65.8987 45.5089 62.944 45.3129 62.5365 44.9209C62.129 44.5289 61.9252 41.6868 61.9252 35.4145C61.9252 26.6921 61.9761 26.4471 63.0459 25.7121C63.9629 25.0751 65.8478 24.9281 72.725 24.9281C80.621 24.9281 81.3852 25.0261 82.3021 25.9081ZM110.218 25.7121C111.288 26.4471 111.339 26.7411 111.339 35.0225C111.339 40.0207 111.135 43.9899 110.83 44.5779C110.32 45.4599 109.658 45.5089 101.049 45.5089C93.1528 45.5089 91.6755 45.4109 90.8604 44.6759C90.0453 43.9899 89.9435 43.0098 89.9435 35.3655C89.9435 24.193 89.1793 24.9281 100.539 24.9281C107.417 24.9281 109.302 25.0751 110.218 25.7121ZM140.886 75.4002V100.391H138.084H135.282V75.4002V50.4092H138.084H140.886V75.4002ZM82.5059 53.4473C83.1681 54.3293 83.321 56.1424 83.321 62.7577C83.321 73.6852 84.0851 72.9501 72.5212 72.9501C65.1346 72.9501 63.6572 72.8031 62.8422 72.1171C62.0271 71.4311 61.9252 70.451 61.9252 62.4147C61.9252 56.1914 62.129 53.3493 62.5365 52.9573C62.944 52.5653 65.8987 52.3692 72.4193 52.3692C81.487 52.3692 81.7418 52.4182 82.5059 53.4473ZM110.524 53.1533C111.186 53.7903 111.339 55.3584 111.339 62.6597C111.339 73.7342 112.205 72.9501 100.539 72.9501C89.1793 72.9501 89.9435 73.6852 89.9435 62.5617C89.9435 55.4564 90.0963 54.0353 90.8095 53.2513C91.5227 52.4672 92.5415 52.3692 100.692 52.3692C108.232 52.3692 109.862 52.5162 110.524 53.1533ZM153.621 78.8304V100.391H150.565H147.508V78.8304V57.2695H150.565H153.621V78.8304ZM165.847 81.2805V100.391H163.046H160.244V81.2805V62.1697H163.046H165.847V81.2805ZM110.218 80.1044C111.288 80.8395 111.339 81.0845 111.339 89.8068C111.339 96.0791 111.135 98.9212 110.728 99.3133C110.32 99.7053 107.417 99.9013 100.947 99.9013C93.1528 99.9013 91.6755 99.8033 90.8604 99.0682C90.0453 98.3822 89.9435 97.4022 89.9435 89.7578C89.9435 78.5854 89.1793 79.3204 100.539 79.3204C107.417 79.3204 109.302 79.4674 110.218 80.1044ZM164.727 108.526C165.847 109.261 165.847 109.408 165.847 122.001V134.742L163.198 134.595L160.499 134.448L160.346 128.911L160.193 123.422H150.565H140.886V129.058V134.693H138.084H135.282V122.001C135.282 109.408 135.282 109.261 136.403 108.526C137.371 107.84 139.612 107.742 150.565 107.742C161.517 107.742 163.759 107.84 164.727 108.526Z" fill="#B2B2B3"/>
<path d="M67.5288 35.2184V40.1187H72.623H77.7682L77.6154 35.3164L77.4626 30.5632L72.5212 30.4162L67.5288 30.2692V35.2184Z" fill="#B2B2B3"/>
<path d="M95.9035 30.6612C95.6997 30.8083 95.5469 33.0133 95.5469 35.5615V40.1187H100.641H105.735V35.2184V30.3182H100.998C98.3487 30.3182 96.0563 30.4652 95.9035 30.6612Z" fill="#B2B2B3"/>
<path d="M67.5288 62.6597V67.6089L72.5212 67.4619L77.4626 67.3149L77.6154 62.5127L77.7682 57.7595H72.623H67.5288V62.6597Z" fill="#B2B2B3"/>
<path d="M95.5469 62.6596V67.5598H100.641H105.735V62.6596V57.7594H100.641H95.5469V62.6596Z" fill="#B2B2B3"/>
<path d="M95.9035 85.0536C95.6997 85.2006 95.5469 87.4057 95.5469 89.9538V94.511H100.641H105.735V89.6108V84.7106H100.998C98.3487 84.7106 96.0563 84.8576 95.9035 85.0536Z" fill="#B2B2B3"/>
<path d="M140.886 115.582V118.032H150.565H160.244V115.582V113.132H150.565H140.886V115.582Z" fill="#B2B2B3"/>
<path d="M67.5288 89.8558V94.511H72.623H77.7173V89.8558V85.2006H72.623H67.5288V89.8558Z" fill="#B2B2B3"/>
</g>
<defs>
<clipPath id="clip0_891_8503">
<rect width="186" height="141" fill="white"/>
</clipPath>
</defs>
</svg>
